<?xml version="1.0" encoding="UTF-8"?>
<svg xmlns="http://www.w3.org/2000/svg"
     viewBox="0 0 600.0 600.0"
     width="600.0mm" height="600.0mm">
  <!-- BOX + STAND | 3mm BIRCH PLY 600x600mm | RED=CUT (preview 0.3mm stroke; use --laser for 0.01mm) -->
  <rect x="0" y="0" width="600.0" height="600.0" fill="#faf8f4" stroke="#aaaaaa" stroke-width="0.3"/>

<g id="box_base">
  <path id="box_base_outer" d="M 2.0000,2.0000 L 21.6250,2.0000 L 21.6250,5.0000 L 25.6250,5.0000 L 25.6250,2.0000 L 43.2500,2.0000 L 43.2500,5.0000 L 47.2500,5.0000 L 47.2500,2.0000 L 64.8750,2.0000 L 64.8750,5.0000 L 68.8750,5.0000 L 68.8750,2.0000 L 86.5000,2.0000 L 86.5000,5.0000 L 90.5000,5.0000 L 90.5000,2.0000 L 108.1250,2.0000 L 108.1250,5.0000 L 112.1250,5.0000 L 112.1250,2.0000 L 129.7500,2.0000 L 129.7500,5.0000 L 133.7500,5.0000 L 133.7500,2.0000 L 151.3750,2.0000 L 151.3750,5.0000 L 155.3750,5.0000 L 155.3750,2.0000 L 173.0000,2.0000 L 173.0000,5.0000 L 177.0000,5.0000 L 177.0000,2.0000 L 194.6250,2.0000 L 194.6250,5.0000 L 198.6250,5.0000 L 198.6250,2.0000 L 216.2500,2.0000 L 216.2500,5.0000 L 220.2500,5.0000 L 220.2500,2.0000 L 237.8750,2.0000 L 237.8750,5.0000 L 241.8750,5.0000 L 241.8750,2.0000 L 259.5000,2.0000 L 259.5000,5.0000 L 263.5000,5.0000 L 263.5000,2.0000 L 281.1250,2.0000 L 281.1250,5.0000 L 285.1250,5.0000 L 285.1250,2.0000 L 302.7500,2.0000 L 302.7500,5.0000 L 306.7500,5.0000 L 306.7500,2.0000 L 324.3750,2.0000 L 324.3750,5.0000 L 328.3750,5.0000 L 328.3750,2.0000 L 348.0000,2.0000 L 348.0000,46.0000 L 345.0000,46.0000 L 345.0000,50.0000 L 348.0000,50.0000 L 348.0000,89.0000 L 345.0000,89.0000 L 345.0000,93.0000 L 348.0000,93.0000 L 348.0000,132.0000 L 345.0000,132.0000 L 345.0000,136.0000 L 348.0000,136.0000 L 348.0000,175.0000 L 345.0000,175.0000 L 345.0000,179.0000 L 348.0000,179.0000 L 348.0000,218.0000 L 345.0000,218.0000 L 345.0000,222.0000 L 348.0000,222.0000 L 348.0000,266.0000 L 328.3750,266.0000 L 328.3750,263.0000 L 324.3750,263.0000 L 324.3750,266.0000 L 306.7500,266.0000 L 306.7500,263.0000 L 302.7500,263.0000 L 302.7500,266.0000 L 285.1250,266.0000 L 285.1250,263.0000 L 281.1250,263.0000 L 281.1250,266.0000 L 263.5000,266.0000 L 263.5000,263.0000 L 259.5000,263.0000 L 259.5000,266.0000 L 241.8750,266.0000 L 241.8750,263.0000 L 237.8750,263.0000 L 237.8750,266.0000 L 220.2500,266.0000 L 220.2500,263.0000 L 216.2500,263.0000 L 216.2500,266.0000 L 198.6250,266.0000 L 198.6250,263.0000 L 194.6250,263.0000 L 194.6250,266.0000 L 177.0000,266.0000 L 177.0000,263.0000 L 173.0000,263.0000 L 173.0000,266.0000 L 155.3750,266.0000 L 155.3750,263.0000 L 151.3750,263.0000 L 151.3750,266.0000 L 133.7500,266.0000 L 133.7500,263.0000 L 129.7500,263.0000 L 129.7500,266.0000 L 112.1250,266.0000 L 112.1250,263.0000 L 108.1250,263.0000 L 108.1250,266.0000 L 90.5000,266.0000 L 90.5000,263.0000 L 86.5000,263.0000 L 86.5000,266.0000 L 68.8750,266.0000 L 68.8750,263.0000 L 64.8750,263.0000 L 64.8750,266.0000 L 47.2500,266.0000 L 47.2500,263.0000 L 43.2500,263.0000 L 43.2500,266.0000 L 25.6250,266.0000 L 25.6250,263.0000 L 21.6250,263.0000 L 21.6250,266.0000 L 2.0000,266.0000 L 2.0000,222.0000 L 5.0000,222.0000 L 5.0000,218.0000 L 2.0000,218.0000 L 2.0000,179.0000 L 5.0000,179.0000 L 5.0000,175.0000 L 2.0000,175.0000 L 2.0000,136.0000 L 5.0000,136.0000 L 5.0000,132.0000 L 2.0000,132.0000 L 2.0000,93.0000 L 5.0000,93.0000 L 5.0000,89.0000 L 2.0000,89.0000 L 2.0000,50.0000 L 5.0000,50.0000 L 5.0000,46.0000 L 2.0000,46.0000 Z" fill="none" stroke="#ff0000" stroke-width="0.3"/>
  <text x="175.00" y="134.00" font-size="4.0" font-family="monospace" text-anchor="middle" fill="#000000">BOX BASE</text>
</g>

<g id="box_lid">
  <path id="box_lid_outer" d="M 2.0000,268.0000 L 342.0000,268.0000 L 342.0000,526.0000 L 2.0000,526.0000 Z" fill="none" stroke="#ff0000" stroke-width="0.3"/>
  <text x="172.00" y="397.00" font-size="4.0" font-family="monospace" text-anchor="middle" fill="#000000">BOX LID</text>
</g>

<g id="box_long_wall_L">
  <path id="box_long_wall_L_outer" d="M 350.0000,2.0000 L 354.0000,2.0000 L 354.0000,5.0000 L 358.0000,5.0000 L 358.0000,2.0000 L 362.0000,2.0000 L 362.0000,21.6250 L 365.0000,21.6250 L 365.0000,25.6250 L 362.0000,25.6250 L 362.0000,43.2500 L 365.0000,43.2500 L 365.0000,47.2500 L 362.0000,47.2500 L 362.0000,64.8750 L 365.0000,64.8750 L 365.0000,68.8750 L 362.0000,68.8750 L 362.0000,86.5000 L 365.0000,86.5000 L 365.0000,90.5000 L 362.0000,90.5000 L 362.0000,108.1250 L 365.0000,108.1250 L 365.0000,112.1250 L 362.0000,112.1250 L 362.0000,129.7500 L 365.0000,129.7500 L 365.0000,133.7500 L 362.0000,133.7500 L 362.0000,151.3750 L 365.0000,151.3750 L 365.0000,155.3750 L 362.0000,155.3750 L 362.0000,173.0000 L 365.0000,173.0000 L 365.0000,177.0000 L 362.0000,177.0000 L 362.0000,194.6250 L 365.0000,194.6250 L 365.0000,198.6250 L 362.0000,198.6250 L 362.0000,216.2500 L 365.0000,216.2500 L 365.0000,220.2500 L 362.0000,220.2500 L 362.0000,237.8750 L 365.0000,237.8750 L 365.0000,241.8750 L 362.0000,241.8750 L 362.0000,259.5000 L 365.0000,259.5000 L 365.0000,263.5000 L 362.0000,263.5000 L 362.0000,281.1250 L 365.0000,281.1250 L 365.0000,285.1250 L 362.0000,285.1250 L 362.0000,302.7500 L 365.0000,302.7500 L 365.0000,306.7500 L 362.0000,306.7500 L 362.0000,324.3750 L 365.0000,324.3750 L 365.0000,328.3750 L 362.0000,328.3750 L 362.0000,348.0000 L 358.0000,348.0000 L 358.0000,345.0000 L 354.0000,345.0000 L 354.0000,348.0000 L 350.0000,348.0000 Z" fill="none" stroke="#ff0000" stroke-width="0.3"/>
  <text x="357.50" y="175.00" font-size="4.0" font-family="monospace" text-anchor="middle" fill="#000000">LONG WALL L</text>
</g>

<g id="box_long_wall_R">
  <path id="box_long_wall_R_outer" d="M 367.0000,2.0000 L 371.0000,2.0000 L 371.0000,5.0000 L 375.0000,5.0000 L 375.0000,2.0000 L 379.0000,2.0000 L 379.0000,21.6250 L 382.0000,21.6250 L 382.0000,25.6250 L 379.0000,25.6250 L 379.0000,43.2500 L 382.0000,43.2500 L 382.0000,47.2500 L 379.0000,47.2500 L 379.0000,64.8750 L 382.0000,64.8750 L 382.0000,68.8750 L 379.0000,68.8750 L 379.0000,86.5000 L 382.0000,86.5000 L 382.0000,90.5000 L 379.0000,90.5000 L 379.0000,108.1250 L 382.0000,108.1250 L 382.0000,112.1250 L 379.0000,112.1250 L 379.0000,129.7500 L 382.0000,129.7500 L 382.0000,133.7500 L 379.0000,133.7500 L 379.0000,151.3750 L 382.0000,151.3750 L 382.0000,155.3750 L 379.0000,155.3750 L 379.0000,173.0000 L 382.0000,173.0000 L 382.0000,177.0000 L 379.0000,177.0000 L 379.0000,194.6250 L 382.0000,194.6250 L 382.0000,198.6250 L 379.0000,198.6250 L 379.0000,216.2500 L 382.0000,216.2500 L 382.0000,220.2500 L 379.0000,220.2500 L 379.0000,237.8750 L 382.0000,237.8750 L 382.0000,241.8750 L 379.0000,241.8750 L 379.0000,259.5000 L 382.0000,259.5000 L 382.0000,263.5000 L 379.0000,263.5000 L 379.0000,281.1250 L 382.0000,281.1250 L 382.0000,285.1250 L 379.0000,285.1250 L 379.0000,302.7500 L 382.0000,302.7500 L 382.0000,306.7500 L 379.0000,306.7500 L 379.0000,324.3750 L 382.0000,324.3750 L 382.0000,328.3750 L 379.0000,328.3750 L 379.0000,348.0000 L 375.0000,348.0000 L 375.0000,345.0000 L 371.0000,345.0000 L 371.0000,348.0000 L 367.0000,348.0000 Z" fill="none" stroke="#ff0000" stroke-width="0.3"/>
  <text x="374.50" y="175.00" font-size="4.0" font-family="monospace" text-anchor="middle" fill="#000000">LONG WALL R</text>
</g>

<g id="box_short_wall_front">
  <path id="box_short_wall_front_outer" d="M 5.0000,528.0000 L 5.0000,528.8000 L 2.0000,528.8000 L 2.0000,532.8000 L 5.0000,532.8000 L 5.0000,536.8000 L 46.0000,536.8000 L 46.0000,539.8000 L 50.0000,539.8000 L 50.0000,536.8000 L 89.0000,536.8000 L 89.0000,539.8000 L 93.0000,539.8000 L 93.0000,536.8000 L 132.0000,536.8000 L 132.0000,539.8000 L 136.0000,539.8000 L 136.0000,536.8000 L 175.0000,536.8000 L 175.0000,539.8000 L 179.0000,539.8000 L 179.0000,536.8000 L 218.0000,536.8000 L 218.0000,539.8000 L 222.0000,539.8000 L 222.0000,536.8000 L 263.0000,536.8000 L 263.0000,532.8000 L 266.0000,532.8000 L 266.0000,528.8000 L 263.0000,528.8000 L 263.0000,528.0000 Z" fill="none" stroke="#ff0000" stroke-width="0.3"/>
  <text x="134.00" y="533.90" font-size="4.0" font-family="monospace" text-anchor="middle" fill="#000000">SHORT WALL FR</text>
</g>

<g id="box_short_wall_back">
  <path id="box_short_wall_back_outer" d="M 271.0000,528.0000 L 271.0000,528.8000 L 268.0000,528.8000 L 268.0000,532.8000 L 271.0000,532.8000 L 271.0000,536.8000 L 312.0000,536.8000 L 312.0000,539.8000 L 316.0000,539.8000 L 316.0000,536.8000 L 355.0000,536.8000 L 355.0000,539.8000 L 359.0000,539.8000 L 359.0000,536.8000 L 398.0000,536.8000 L 398.0000,539.8000 L 402.0000,539.8000 L 402.0000,536.8000 L 441.0000,536.8000 L 441.0000,539.8000 L 445.0000,539.8000 L 445.0000,536.8000 L 484.0000,536.8000 L 484.0000,539.8000 L 488.0000,539.8000 L 488.0000,536.8000 L 529.0000,536.8000 L 529.0000,532.8000 L 532.0000,532.8000 L 532.0000,528.8000 L 529.0000,528.8000 L 529.0000,528.0000 Z" fill="none" stroke="#ff0000" stroke-width="0.3"/>
  <text x="400.00" y="533.90" font-size="4.0" font-family="monospace" text-anchor="middle" fill="#000000">SHORT WALL BK</text>
</g>

</svg>