<?xml version="1.0" encoding="UTF-8"?>
<svg xmlns="http://www.w3.org/2000/svg"
     viewBox="0 0 600.0 600.0"
     width="600.0mm" height="600.0mm">
  <!-- BOX + STAND | 3mm BIRCH PLY 600x600mm | RED=CUT preview 0.1mm — change to 0.01mm for laser -->
  <rect x="0" y="0" width="600.0" height="600.0" fill="#faf8f4" stroke="#aaaaaa" stroke-width="0.3"/>

<g id="box_base">
  <path id="box_base_outer" d="M 2.0000,2.0000 L 116.5000,2.0000 L 116.5000,5.0000 L 120.5000,5.0000 L 120.5000,2.0000 L 233.0000,2.0000 L 233.0000,5.0000 L 237.0000,5.0000 L 237.0000,2.0000 L 349.5000,2.0000 L 349.5000,5.0000 L 353.5000,5.0000 L 353.5000,2.0000 L 468.0000,2.0000 L 468.0000,132.0000 L 465.0000,132.0000 L 465.0000,136.0000 L 468.0000,136.0000 L 468.0000,266.0000 L 353.5000,266.0000 L 353.5000,263.0000 L 349.5000,263.0000 L 349.5000,266.0000 L 237.0000,266.0000 L 237.0000,263.0000 L 233.0000,263.0000 L 233.0000,266.0000 L 120.5000,266.0000 L 120.5000,263.0000 L 116.5000,263.0000 L 116.5000,266.0000 L 2.0000,266.0000 L 2.0000,136.0000 L 5.0000,136.0000 L 5.0000,132.0000 L 2.0000,132.0000 Z" fill="none" stroke="#ff0000" stroke-width="0.1"/>
  <text x="235.00" y="134.00" font-size="4.0" font-family="monospace" text-anchor="middle" fill="#000000">BOX BASE</text>
</g>

<g id="box_lid">
  <path id="box_lid_outer" d="M 2.0000,268.0000 L 462.0000,268.0000 L 462.0000,526.0000 L 2.0000,526.0000 Z" fill="none" stroke="#ff0000" stroke-width="0.1"/>
  <text x="232.00" y="397.00" font-size="4.0" font-family="monospace" text-anchor="middle" fill="#000000">BOX LID</text>
</g>

<g id="box_long_wall_L">
  <path id="box_long_wall_L_outer" d="M 470.0000,2.0000 L 474.0000,2.0000 L 474.0000,5.0000 L 478.0000,5.0000 L 478.0000,2.0000 L 482.0000,2.0000 L 482.0000,116.5000 L 485.0000,116.5000 L 485.0000,120.5000 L 482.0000,120.5000 L 482.0000,233.0000 L 485.0000,233.0000 L 485.0000,237.0000 L 482.0000,237.0000 L 482.0000,349.5000 L 485.0000,349.5000 L 485.0000,353.5000 L 482.0000,353.5000 L 482.0000,468.0000 L 478.0000,468.0000 L 478.0000,465.0000 L 474.0000,465.0000 L 474.0000,468.0000 L 470.0000,468.0000 Z" fill="none" stroke="#ff0000" stroke-width="0.1"/>
  <text x="477.50" y="235.00" font-size="4.0" font-family="monospace" text-anchor="middle" fill="#000000">LONG WALL L</text>
</g>

<g id="box_long_wall_R">
  <path id="box_long_wall_R_outer" d="M 487.0000,2.0000 L 491.0000,2.0000 L 491.0000,5.0000 L 495.0000,5.0000 L 495.0000,2.0000 L 499.0000,2.0000 L 499.0000,116.5000 L 502.0000,116.5000 L 502.0000,120.5000 L 499.0000,120.5000 L 499.0000,233.0000 L 502.0000,233.0000 L 502.0000,237.0000 L 499.0000,237.0000 L 499.0000,349.5000 L 502.0000,349.5000 L 502.0000,353.5000 L 499.0000,353.5000 L 499.0000,468.0000 L 495.0000,468.0000 L 495.0000,465.0000 L 491.0000,465.0000 L 491.0000,468.0000 L 487.0000,468.0000 Z" fill="none" stroke="#ff0000" stroke-width="0.1"/>
  <text x="494.50" y="235.00" font-size="4.0" font-family="monospace" text-anchor="middle" fill="#000000">LONG WALL R</text>
</g>

<g id="box_short_wall_front">
  <path id="box_short_wall_front_outer" d="M 5.0000,528.0000 L 5.0000,528.8000 L 2.0000,528.8000 L 2.0000,532.8000 L 5.0000,532.8000 L 5.0000,536.8000 L 132.0000,536.8000 L 132.0000,539.8000 L 136.0000,539.8000 L 136.0000,536.8000 L 263.0000,536.8000 L 263.0000,532.8000 L 266.0000,532.8000 L 266.0000,528.8000 L 263.0000,528.8000 L 263.0000,528.0000 Z" fill="none" stroke="#ff0000" stroke-width="0.1"/>
  <text x="134.00" y="533.90" font-size="4.0" font-family="monospace" text-anchor="middle" fill="#000000">SHORT WALL FR</text>
</g>

<g id="box_short_wall_back">
  <path id="box_short_wall_back_outer" d="M 271.0000,528.0000 L 271.0000,528.8000 L 268.0000,528.8000 L 268.0000,532.8000 L 271.0000,532.8000 L 271.0000,536.8000 L 398.0000,536.8000 L 398.0000,539.8000 L 402.0000,539.8000 L 402.0000,536.8000 L 529.0000,536.8000 L 529.0000,532.8000 L 532.0000,532.8000 L 532.0000,528.8000 L 529.0000,528.8000 L 529.0000,528.0000 Z" fill="none" stroke="#ff0000" stroke-width="0.1"/>
  <text x="400.00" y="533.90" font-size="4.0" font-family="monospace" text-anchor="middle" fill="#000000">SHORT WALL BK</text>
</g>

<g id="stand_L">
  <path id="stand_L_outer" d="M 504.0000,2.0000 L 512.7500,2.0000 L 512.7500,27.0000 L 535.2500,27.0000 L 535.2500,2.0000 L 544.0000,2.0000 L 544.0000,302.0000 L 504.0000,302.0000 Z" fill="none" stroke="#ff0000" stroke-width="0.1"/>
  <path id="stand_L_hole0" d="M 516.5000,270.4500 L 531.5000,270.4500 L 531.5000,273.5500 L 516.5000,273.5500 Z" fill="none" stroke="#ff0000" stroke-width="0.1"/>
  <text x="524.00" y="152.00" font-size="4.0" font-family="monospace" text-anchor="middle" fill="#000000">STAND L</text>
</g>

<g id="stand_R">
  <path id="stand_R_outer" d="M 586.0000,2.0000 L 577.2500,2.0000 L 577.2500,27.0000 L 554.7500,27.0000 L 554.7500,2.0000 L 546.0000,2.0000 L 546.0000,302.0000 L 586.0000,302.0000 Z" fill="none" stroke="#ff0000" stroke-width="0.1"/>
  <path id="stand_R_hole0" d="M 558.5000,270.4500 L 573.5000,270.4500 L 573.5000,273.5500 L 558.5000,273.5500 Z" fill="none" stroke="#ff0000" stroke-width="0.1"/>
  <text x="566.00" y="152.00" font-size="4.0" font-family="monospace" text-anchor="middle" fill="#000000">STAND R</text>
</g>

<g id="stand_spreader">
  <path id="stand_spreader_outer" d="M 2.0000,545.0000 L 376.0000,545.0000 L 376.0000,585.0000 L 2.0000,585.0000 Z" fill="none" stroke="#ff0000" stroke-width="0.1"/>
  <text x="189.00" y="565.00" font-size="4.0" font-family="monospace" text-anchor="middle" fill="#000000">STAND SPREADER</text>
</g>

</svg>