<?xml version="1.0" encoding="UTF-8"?>
<svg xmlns="http://www.w3.org/2000/svg"
     viewBox="0 0 600.0 600.0"
     width="600.0mm" height="600.0mm">
  <!-- FRAME LOOM v6 | 6mm BIRCH PLY 600x600mm | RED=CUT preview 0.1mm — change to 0.01mm for laser -->
  <rect x="0" y="0" width="600.0" height="600.0" fill="#faf8f4" stroke="#aaaaaa" stroke-width="0.3"/>

<g id="crossbar_1">
  <path id="crossbar_1_outer" d="M 2.0000,2.0000 L 302.0000,2.0000 L 302.0000,22.0000 L 2.0000,22.0000 Z" fill="none" stroke="#ff0000" stroke-width="0.3"/>
  <text x="152.00" y="12.00" font-size="4.0" font-family="monospace" text-anchor="middle" fill="#000000">CROSSBAR 1</text>
</g>

<g id="crossbar_2">
  <path id="crossbar_2_outer" d="M 2.0000,24.0000 L 302.0000,24.0000 L 302.0000,44.0000 L 2.0000,44.0000 Z" fill="none" stroke="#ff0000" stroke-width="0.3"/>
  <text x="152.00" y="34.00" font-size="4.0" font-family="monospace" text-anchor="middle" fill="#000000">CROSSBAR 2</text>
</g>

<g id="top_rail">
  <path id="top_rail_outer" d="M 2.0000,46.0000 L 346.0000,46.0000 L 346.0000,53.2833 L 340.0000,53.2833 L 340.0000,60.7167 L 346.0000,60.7167 L 346.0000,68.0000 L 325.5000,68.0000 A 0.5000,0.5000 0 0,0 325.0000,68.5000 L 325.0000,72.5000 A 0.5000,0.5000 0 0,1 324.5000,73.0000 L 323.5000,73.0000 A 0.5000,0.5000 0 0,1 323.0000,72.5000 L 323.0000,68.5000 A 0.5000,0.5000 0 0,0 322.5000,68.0000 L 320.5000,68.0000 A 0.5000,0.5000 0 0,0 320.0000,68.5000 L 320.0000,72.5000 A 0.5000,0.5000 0 0,1 319.5000,73.0000 L 318.5000,73.0000 A 0.5000,0.5000 0 0,1 318.0000,72.5000 L 318.0000,68.5000 A 0.5000,0.5000 0 0,0 317.5000,68.0000 L 315.5000,68.0000 A 0.5000,0.5000 0 0,0 315.0000,68.5000 L 315.0000,72.5000 A 0.5000,0.5000 0 0,1 314.5000,73.0000 L 313.5000,73.0000 A 0.5000,0.5000 0 0,1 313.0000,72.5000 L 313.0000,68.5000 A 0.5000,0.5000 0 0,0 312.5000,68.0000 L 310.5000,68.0000 A 0.5000,0.5000 0 0,0 310.0000,68.5000 L 310.0000,72.5000 A 0.5000,0.5000 0 0,1 309.5000,73.0000 L 308.5000,73.0000 A 0.5000,0.5000 0 0,1 308.0000,72.5000 L 308.0000,68.5000 A 0.5000,0.5000 0 0,0 307.5000,68.0000 L 305.5000,68.0000 A 0.5000,0.5000 0 0,0 305.0000,68.5000 L 305.0000,72.5000 A 0.5000,0.5000 0 0,1 304.5000,73.0000 L 303.5000,73.0000 A 0.5000,0.5000 0 0,1 303.0000,72.5000 L 303.0000,68.5000 A 0.5000,0.5000 0 0,0 302.5000,68.0000 L 300.5000,68.0000 A 0.5000,0.5000 0 0,0 300.0000,68.5000 L 300.0000,72.5000 A 0.5000,0.5000 0 0,1 299.5000,73.0000 L 298.5000,73.0000 A 0.5000,0.5000 0 0,1 298.0000,72.5000 L 298.0000,68.5000 A 0.5000,0.5000 0 0,0 297.5000,68.0000 L 295.5000,68.0000 A 0.5000,0.5000 0 0,0 295.0000,68.5000 L 295.0000,72.5000 A 0.5000,0.5000 0 0,1 294.5000,73.0000 L 293.5000,73.0000 A 0.5000,0.5000 0 0,1 293.0000,72.5000 L 293.0000,68.5000 A 0.5000,0.5000 0 0,0 292.5000,68.0000 L 290.5000,68.0000 A 0.5000,0.5000 0 0,0 290.0000,68.5000 L 290.0000,72.5000 A 0.5000,0.5000 0 0,1 289.5000,73.0000 L 288.5000,73.0000 A 0.5000,0.5000 0 0,1 288.0000,72.5000 L 288.0000,68.5000 A 0.5000,0.5000 0 0,0 287.5000,68.0000 L 285.5000,68.0000 A 0.5000,0.5000 0 0,0 285.0000,68.5000 L 285.0000,72.5000 A 0.5000,0.5000 0 0,1 284.5000,73.0000 L 283.5000,73.0000 A 0.5000,0.5000 0 0,1 283.0000,72.5000 L 283.0000,68.5000 A 0.5000,0.5000 0 0,0 282.5000,68.0000 L 280.5000,68.0000 A 0.5000,0.5000 0 0,0 280.0000,68.5000 L 280.0000,72.5000 A 0.5000,0.5000 0 0,1 279.5000,73.0000 L 278.5000,73.0000 A 0.5000,0.5000 0 0,1 278.0000,72.5000 L 278.0000,68.5000 A 0.5000,0.5000 0 0,0 277.5000,68.0000 L 275.5000,68.0000 A 0.5000,0.5000 0 0,0 275.0000,68.5000 L 275.0000,72.5000 A 0.5000,0.5000 0 0,1 274.5000,73.0000 L 273.5000,73.0000 A 0.5000,0.5000 0 0,1 273.0000,72.5000 L 273.0000,68.5000 A 0.5000,0.5000 0 0,0 272.5000,68.0000 L 270.5000,68.0000 A 0.5000,0.5000 0 0,0 270.0000,68.5000 L 270.0000,72.5000 A 0.5000,0.5000 0 0,1 269.5000,73.0000 L 268.5000,73.0000 A 0.5000,0.5000 0 0,1 268.0000,72.5000 L 268.0000,68.5000 A 0.5000,0.5000 0 0,0 267.5000,68.0000 L 265.5000,68.0000 A 0.5000,0.5000 0 0,0 265.0000,68.5000 L 265.0000,72.5000 A 0.5000,0.5000 0 0,1 264.5000,73.0000 L 263.5000,73.0000 A 0.5000,0.5000 0 0,1 263.0000,72.5000 L 263.0000,68.5000 A 0.5000,0.5000 0 0,0 262.5000,68.0000 L 260.5000,68.0000 A 0.5000,0.5000 0 0,0 260.0000,68.5000 L 260.0000,72.5000 A 0.5000,0.5000 0 0,1 259.5000,73.0000 L 258.5000,73.0000 A 0.5000,0.5000 0 0,1 258.0000,72.5000 L 258.0000,68.5000 A 0.5000,0.5000 0 0,0 257.5000,68.0000 L 255.5000,68.0000 A 0.5000,0.5000 0 0,0 255.0000,68.5000 L 255.0000,72.5000 A 0.5000,0.5000 0 0,1 254.5000,73.0000 L 253.5000,73.0000 A 0.5000,0.5000 0 0,1 253.0000,72.5000 L 253.0000,68.5000 A 0.5000,0.5000 0 0,0 252.5000,68.0000 L 250.5000,68.0000 A 0.5000,0.5000 0 0,0 250.0000,68.5000 L 250.0000,72.5000 A 0.5000,0.5000 0 0,1 249.5000,73.0000 L 248.5000,73.0000 A 0.5000,0.5000 0 0,1 248.0000,72.5000 L 248.0000,68.5000 A 0.5000,0.5000 0 0,0 247.5000,68.0000 L 245.5000,68.0000 A 0.5000,0.5000 0 0,0 245.0000,68.5000 L 245.0000,72.5000 A 0.5000,0.5000 0 0,1 244.5000,73.0000 L 243.5000,73.0000 A 0.5000,0.5000 0 0,1 243.0000,72.5000 L 243.0000,68.5000 A 0.5000,0.5000 0 0,0 242.5000,68.0000 L 240.5000,68.0000 A 0.5000,0.5000 0 0,0 240.0000,68.5000 L 240.0000,72.5000 A 0.5000,0.5000 0 0,1 239.5000,73.0000 L 238.5000,73.0000 A 0.5000,0.5000 0 0,1 238.0000,72.5000 L 238.0000,68.5000 A 0.5000,0.5000 0 0,0 237.5000,68.0000 L 235.5000,68.0000 A 0.5000,0.5000 0 0,0 235.0000,68.5000 L 235.0000,72.5000 A 0.5000,0.5000 0 0,1 234.5000,73.0000 L 233.5000,73.0000 A 0.5000,0.5000 0 0,1 233.0000,72.5000 L 233.0000,68.5000 A 0.5000,0.5000 0 0,0 232.5000,68.0000 L 230.5000,68.0000 A 0.5000,0.5000 0 0,0 230.0000,68.5000 L 230.0000,72.5000 A 0.5000,0.5000 0 0,1 229.5000,73.0000 L 228.5000,73.0000 A 0.5000,0.5000 0 0,1 228.0000,72.5000 L 228.0000,68.5000 A 0.5000,0.5000 0 0,0 227.5000,68.0000 L 225.5000,68.0000 A 0.5000,0.5000 0 0,0 225.0000,68.5000 L 225.0000,72.5000 A 0.5000,0.5000 0 0,1 224.5000,73.0000 L 223.5000,73.0000 A 0.5000,0.5000 0 0,1 223.0000,72.5000 L 223.0000,68.5000 A 0.5000,0.5000 0 0,0 222.5000,68.0000 L 220.5000,68.0000 A 0.5000,0.5000 0 0,0 220.0000,68.5000 L 220.0000,72.5000 A 0.5000,0.5000 0 0,1 219.5000,73.0000 L 218.5000,73.0000 A 0.5000,0.5000 0 0,1 218.0000,72.5000 L 218.0000,68.5000 A 0.5000,0.5000 0 0,0 217.5000,68.0000 L 215.5000,68.0000 A 0.5000,0.5000 0 0,0 215.0000,68.5000 L 215.0000,72.5000 A 0.5000,0.5000 0 0,1 214.5000,73.0000 L 213.5000,73.0000 A 0.5000,0.5000 0 0,1 213.0000,72.5000 L 213.0000,68.5000 A 0.5000,0.5000 0 0,0 212.5000,68.0000 L 210.5000,68.0000 A 0.5000,0.5000 0 0,0 210.0000,68.5000 L 210.0000,72.5000 A 0.5000,0.5000 0 0,1 209.5000,73.0000 L 208.5000,73.0000 A 0.5000,0.5000 0 0,1 208.0000,72.5000 L 208.0000,68.5000 A 0.5000,0.5000 0 0,0 207.5000,68.0000 L 205.5000,68.0000 A 0.5000,0.5000 0 0,0 205.0000,68.5000 L 205.0000,72.5000 A 0.5000,0.5000 0 0,1 204.5000,73.0000 L 203.5000,73.0000 A 0.5000,0.5000 0 0,1 203.0000,72.5000 L 203.0000,68.5000 A 0.5000,0.5000 0 0,0 202.5000,68.0000 L 200.5000,68.0000 A 0.5000,0.5000 0 0,0 200.0000,68.5000 L 200.0000,72.5000 A 0.5000,0.5000 0 0,1 199.5000,73.0000 L 198.5000,73.0000 A 0.5000,0.5000 0 0,1 198.0000,72.5000 L 198.0000,68.5000 A 0.5000,0.5000 0 0,0 197.5000,68.0000 L 195.5000,68.0000 A 0.5000,0.5000 0 0,0 195.0000,68.5000 L 195.0000,72.5000 A 0.5000,0.5000 0 0,1 194.5000,73.0000 L 193.5000,73.0000 A 0.5000,0.5000 0 0,1 193.0000,72.5000 L 193.0000,68.5000 A 0.5000,0.5000 0 0,0 192.5000,68.0000 L 190.5000,68.0000 A 0.5000,0.5000 0 0,0 190.0000,68.5000 L 190.0000,72.5000 A 0.5000,0.5000 0 0,1 189.5000,73.0000 L 188.5000,73.0000 A 0.5000,0.5000 0 0,1 188.0000,72.5000 L 188.0000,68.5000 A 0.5000,0.5000 0 0,0 187.5000,68.0000 L 185.5000,68.0000 A 0.5000,0.5000 0 0,0 185.0000,68.5000 L 185.0000,72.5000 A 0.5000,0.5000 0 0,1 184.5000,73.0000 L 183.5000,73.0000 A 0.5000,0.5000 0 0,1 183.0000,72.5000 L 183.0000,68.5000 A 0.5000,0.5000 0 0,0 182.5000,68.0000 L 180.5000,68.0000 A 0.5000,0.5000 0 0,0 180.0000,68.5000 L 180.0000,72.5000 A 0.5000,0.5000 0 0,1 179.5000,73.0000 L 178.5000,73.0000 A 0.5000,0.5000 0 0,1 178.0000,72.5000 L 178.0000,68.5000 A 0.5000,0.5000 0 0,0 177.5000,68.0000 L 175.5000,68.0000 A 0.5000,0.5000 0 0,0 175.0000,68.5000 L 175.0000,72.5000 A 0.5000,0.5000 0 0,1 174.5000,73.0000 L 173.5000,73.0000 A 0.5000,0.5000 0 0,1 173.0000,72.5000 L 173.0000,68.5000 A 0.5000,0.5000 0 0,0 172.5000,68.0000 L 170.5000,68.0000 A 0.5000,0.5000 0 0,0 170.0000,68.5000 L 170.0000,72.5000 A 0.5000,0.5000 0 0,1 169.5000,73.0000 L 168.5000,73.0000 A 0.5000,0.5000 0 0,1 168.0000,72.5000 L 168.0000,68.5000 A 0.5000,0.5000 0 0,0 167.5000,68.0000 L 165.5000,68.0000 A 0.5000,0.5000 0 0,0 165.0000,68.5000 L 165.0000,72.5000 A 0.5000,0.5000 0 0,1 164.5000,73.0000 L 163.5000,73.0000 A 0.5000,0.5000 0 0,1 163.0000,72.5000 L 163.0000,68.5000 A 0.5000,0.5000 0 0,0 162.5000,68.0000 L 160.5000,68.0000 A 0.5000,0.5000 0 0,0 160.0000,68.5000 L 160.0000,72.5000 A 0.5000,0.5000 0 0,1 159.5000,73.0000 L 158.5000,73.0000 A 0.5000,0.5000 0 0,1 158.0000,72.5000 L 158.0000,68.5000 A 0.5000,0.5000 0 0,0 157.5000,68.0000 L 155.5000,68.0000 A 0.5000,0.5000 0 0,0 155.0000,68.5000 L 155.0000,72.5000 A 0.5000,0.5000 0 0,1 154.5000,73.0000 L 153.5000,73.0000 A 0.5000,0.5000 0 0,1 153.0000,72.5000 L 153.0000,68.5000 A 0.5000,0.5000 0 0,0 152.5000,68.0000 L 150.5000,68.0000 A 0.5000,0.5000 0 0,0 150.0000,68.5000 L 150.0000,72.5000 A 0.5000,0.5000 0 0,1 149.5000,73.0000 L 148.5000,73.0000 A 0.5000,0.5000 0 0,1 148.0000,72.5000 L 148.0000,68.5000 A 0.5000,0.5000 0 0,0 147.5000,68.0000 L 145.5000,68.0000 A 0.5000,0.5000 0 0,0 145.0000,68.5000 L 145.0000,72.5000 A 0.5000,0.5000 0 0,1 144.5000,73.0000 L 143.5000,73.0000 A 0.5000,0.5000 0 0,1 143.0000,72.5000 L 143.0000,68.5000 A 0.5000,0.5000 0 0,0 142.5000,68.0000 L 140.5000,68.0000 A 0.5000,0.5000 0 0,0 140.0000,68.5000 L 140.0000,72.5000 A 0.5000,0.5000 0 0,1 139.5000,73.0000 L 138.5000,73.0000 A 0.5000,0.5000 0 0,1 138.0000,72.5000 L 138.0000,68.5000 A 0.5000,0.5000 0 0,0 137.5000,68.0000 L 135.5000,68.0000 A 0.5000,0.5000 0 0,0 135.0000,68.5000 L 135.0000,72.5000 A 0.5000,0.5000 0 0,1 134.5000,73.0000 L 133.5000,73.0000 A 0.5000,0.5000 0 0,1 133.0000,72.5000 L 133.0000,68.5000 A 0.5000,0.5000 0 0,0 132.5000,68.0000 L 130.5000,68.0000 A 0.5000,0.5000 0 0,0 130.0000,68.5000 L 130.0000,72.5000 A 0.5000,0.5000 0 0,1 129.5000,73.0000 L 128.5000,73.0000 A 0.5000,0.5000 0 0,1 128.0000,72.5000 L 128.0000,68.5000 A 0.5000,0.5000 0 0,0 127.5000,68.0000 L 125.5000,68.0000 A 0.5000,0.5000 0 0,0 125.0000,68.5000 L 125.0000,72.5000 A 0.5000,0.5000 0 0,1 124.5000,73.0000 L 123.5000,73.0000 A 0.5000,0.5000 0 0,1 123.0000,72.5000 L 123.0000,68.5000 A 0.5000,0.5000 0 0,0 122.5000,68.0000 L 120.5000,68.0000 A 0.5000,0.5000 0 0,0 120.0000,68.5000 L 120.0000,72.5000 A 0.5000,0.5000 0 0,1 119.5000,73.0000 L 118.5000,73.0000 A 0.5000,0.5000 0 0,1 118.0000,72.5000 L 118.0000,68.5000 A 0.5000,0.5000 0 0,0 117.5000,68.0000 L 115.5000,68.0000 A 0.5000,0.5000 0 0,0 115.0000,68.5000 L 115.0000,72.5000 A 0.5000,0.5000 0 0,1 114.5000,73.0000 L 113.5000,73.0000 A 0.5000,0.5000 0 0,1 113.0000,72.5000 L 113.0000,68.5000 A 0.5000,0.5000 0 0,0 112.5000,68.0000 L 110.5000,68.0000 A 0.5000,0.5000 0 0,0 110.0000,68.5000 L 110.0000,72.5000 A 0.5000,0.5000 0 0,1 109.5000,73.0000 L 108.5000,73.0000 A 0.5000,0.5000 0 0,1 108.0000,72.5000 L 108.0000,68.5000 A 0.5000,0.5000 0 0,0 107.5000,68.0000 L 105.5000,68.0000 A 0.5000,0.5000 0 0,0 105.0000,68.5000 L 105.0000,72.5000 A 0.5000,0.5000 0 0,1 104.5000,73.0000 L 103.5000,73.0000 A 0.5000,0.5000 0 0,1 103.0000,72.5000 L 103.0000,68.5000 A 0.5000,0.5000 0 0,0 102.5000,68.0000 L 100.5000,68.0000 A 0.5000,0.5000 0 0,0 100.0000,68.5000 L 100.0000,72.5000 A 0.5000,0.5000 0 0,1 99.5000,73.0000 L 98.5000,73.0000 A 0.5000,0.5000 0 0,1 98.0000,72.5000 L 98.0000,68.5000 A 0.5000,0.5000 0 0,0 97.5000,68.0000 L 95.5000,68.0000 A 0.5000,0.5000 0 0,0 95.0000,68.5000 L 95.0000,72.5000 A 0.5000,0.5000 0 0,1 94.5000,73.0000 L 93.5000,73.0000 A 0.5000,0.5000 0 0,1 93.0000,72.5000 L 93.0000,68.5000 A 0.5000,0.5000 0 0,0 92.5000,68.0000 L 90.5000,68.0000 A 0.5000,0.5000 0 0,0 90.0000,68.5000 L 90.0000,72.5000 A 0.5000,0.5000 0 0,1 89.5000,73.0000 L 88.5000,73.0000 A 0.5000,0.5000 0 0,1 88.0000,72.5000 L 88.0000,68.5000 A 0.5000,0.5000 0 0,0 87.5000,68.0000 L 85.5000,68.0000 A 0.5000,0.5000 0 0,0 85.0000,68.5000 L 85.0000,72.5000 A 0.5000,0.5000 0 0,1 84.5000,73.0000 L 83.5000,73.0000 A 0.5000,0.5000 0 0,1 83.0000,72.5000 L 83.0000,68.5000 A 0.5000,0.5000 0 0,0 82.5000,68.0000 L 80.5000,68.0000 A 0.5000,0.5000 0 0,0 80.0000,68.5000 L 80.0000,72.5000 A 0.5000,0.5000 0 0,1 79.5000,73.0000 L 78.5000,73.0000 A 0.5000,0.5000 0 0,1 78.0000,72.5000 L 78.0000,68.5000 A 0.5000,0.5000 0 0,0 77.5000,68.0000 L 75.5000,68.0000 A 0.5000,0.5000 0 0,0 75.0000,68.5000 L 75.0000,72.5000 A 0.5000,0.5000 0 0,1 74.5000,73.0000 L 73.5000,73.0000 A 0.5000,0.5000 0 0,1 73.0000,72.5000 L 73.0000,68.5000 A 0.5000,0.5000 0 0,0 72.5000,68.0000 L 70.5000,68.0000 A 0.5000,0.5000 0 0,0 70.0000,68.5000 L 70.0000,72.5000 A 0.5000,0.5000 0 0,1 69.5000,73.0000 L 68.5000,73.0000 A 0.5000,0.5000 0 0,1 68.0000,72.5000 L 68.0000,68.5000 A 0.5000,0.5000 0 0,0 67.5000,68.0000 L 65.5000,68.0000 A 0.5000,0.5000 0 0,0 65.0000,68.5000 L 65.0000,72.5000 A 0.5000,0.5000 0 0,1 64.5000,73.0000 L 63.5000,73.0000 A 0.5000,0.5000 0 0,1 63.0000,72.5000 L 63.0000,68.5000 A 0.5000,0.5000 0 0,0 62.5000,68.0000 L 60.5000,68.0000 A 0.5000,0.5000 0 0,0 60.0000,68.5000 L 60.0000,72.5000 A 0.5000,0.5000 0 0,1 59.5000,73.0000 L 58.5000,73.0000 A 0.5000,0.5000 0 0,1 58.0000,72.5000 L 58.0000,68.5000 A 0.5000,0.5000 0 0,0 57.5000,68.0000 L 55.5000,68.0000 A 0.5000,0.5000 0 0,0 55.0000,68.5000 L 55.0000,72.5000 A 0.5000,0.5000 0 0,1 54.5000,73.0000 L 53.5000,73.0000 A 0.5000,0.5000 0 0,1 53.0000,72.5000 L 53.0000,68.5000 A 0.5000,0.5000 0 0,0 52.5000,68.0000 L 50.5000,68.0000 A 0.5000,0.5000 0 0,0 50.0000,68.5000 L 50.0000,72.5000 A 0.5000,0.5000 0 0,1 49.5000,73.0000 L 48.5000,73.0000 A 0.5000,0.5000 0 0,1 48.0000,72.5000 L 48.0000,68.5000 A 0.5000,0.5000 0 0,0 47.5000,68.0000 L 45.5000,68.0000 A 0.5000,0.5000 0 0,0 45.0000,68.5000 L 45.0000,72.5000 A 0.5000,0.5000 0 0,1 44.5000,73.0000 L 43.5000,73.0000 A 0.5000,0.5000 0 0,1 43.0000,72.5000 L 43.0000,68.5000 A 0.5000,0.5000 0 0,0 42.5000,68.0000 L 40.5000,68.0000 A 0.5000,0.5000 0 0,0 40.0000,68.5000 L 40.0000,72.5000 A 0.5000,0.5000 0 0,1 39.5000,73.0000 L 38.5000,73.0000 A 0.5000,0.5000 0 0,1 38.0000,72.5000 L 38.0000,68.5000 A 0.5000,0.5000 0 0,0 37.5000,68.0000 L 35.5000,68.0000 A 0.5000,0.5000 0 0,0 35.0000,68.5000 L 35.0000,72.5000 A 0.5000,0.5000 0 0,1 34.5000,73.0000 L 33.5000,73.0000 A 0.5000,0.5000 0 0,1 33.0000,72.5000 L 33.0000,68.5000 A 0.5000,0.5000 0 0,0 32.5000,68.0000 L 30.5000,68.0000 A 0.5000,0.5000 0 0,0 30.0000,68.5000 L 30.0000,72.5000 A 0.5000,0.5000 0 0,1 29.5000,73.0000 L 28.5000,73.0000 A 0.5000,0.5000 0 0,1 28.0000,72.5000 L 28.0000,68.5000 A 0.5000,0.5000 0 0,0 27.5000,68.0000 L 25.5000,68.0000 A 0.5000,0.5000 0 0,0 25.0000,68.5000 L 25.0000,72.5000 A 0.5000,0.5000 0 0,1 24.5000,73.0000 L 23.5000,73.0000 A 0.5000,0.5000 0 0,1 23.0000,72.5000 L 23.0000,68.5000 A 0.5000,0.5000 0 0,0 22.5000,68.0000 L 2.0000,68.0000 L 2.0000,60.7167 L 8.0000,60.7167 L 8.0000,53.2833 L 2.0000,53.2833 Z" fill="none" stroke="#ff0000" stroke-width="0.3"/>
  <path id="top_rail_hole0" d="M 42.0000,57.0000 A 4.0000,4.0000 0 1,0 34.0000,57.0000 A 4.0000,4.0000 0 1,0 42.0000,57.0000 Z" fill="none" stroke="#ff0000" stroke-width="0.3"/>
  <path id="top_rail_hole1" d="M 314.0000,57.0000 A 4.0000,4.0000 0 1,0 306.0000,57.0000 A 4.0000,4.0000 0 1,0 314.0000,57.0000 Z" fill="none" stroke="#ff0000" stroke-width="0.3"/>
  <text x="174.00" y="59.50" font-size="4.0" font-family="monospace" text-anchor="middle" fill="#000000">TOP RAIL</text>
</g>

<g id="bottom_rail">
  <path id="bottom_rail_outer" d="M 2.0000,75.0000 L 346.0000,75.0000 L 346.0000,82.2833 L 340.0000,82.2833 L 340.0000,89.7167 L 346.0000,89.7167 L 346.0000,97.0000 L 325.5000,97.0000 A 0.5000,0.5000 0 0,0 325.0000,97.5000 L 325.0000,101.5000 A 0.5000,0.5000 0 0,1 324.5000,102.0000 L 323.5000,102.0000 A 0.5000,0.5000 0 0,1 323.0000,101.5000 L 323.0000,97.5000 A 0.5000,0.5000 0 0,0 322.5000,97.0000 L 320.5000,97.0000 A 0.5000,0.5000 0 0,0 320.0000,97.5000 L 320.0000,101.5000 A 0.5000,0.5000 0 0,1 319.5000,102.0000 L 318.5000,102.0000 A 0.5000,0.5000 0 0,1 318.0000,101.5000 L 318.0000,97.5000 A 0.5000,0.5000 0 0,0 317.5000,97.0000 L 315.5000,97.0000 A 0.5000,0.5000 0 0,0 315.0000,97.5000 L 315.0000,101.5000 A 0.5000,0.5000 0 0,1 314.5000,102.0000 L 313.5000,102.0000 A 0.5000,0.5000 0 0,1 313.0000,101.5000 L 313.0000,97.5000 A 0.5000,0.5000 0 0,0 312.5000,97.0000 L 310.5000,97.0000 A 0.5000,0.5000 0 0,0 310.0000,97.5000 L 310.0000,101.5000 A 0.5000,0.5000 0 0,1 309.5000,102.0000 L 308.5000,102.0000 A 0.5000,0.5000 0 0,1 308.0000,101.5000 L 308.0000,97.5000 A 0.5000,0.5000 0 0,0 307.5000,97.0000 L 305.5000,97.0000 A 0.5000,0.5000 0 0,0 305.0000,97.5000 L 305.0000,101.5000 A 0.5000,0.5000 0 0,1 304.5000,102.0000 L 303.5000,102.0000 A 0.5000,0.5000 0 0,1 303.0000,101.5000 L 303.0000,97.5000 A 0.5000,0.5000 0 0,0 302.5000,97.0000 L 300.5000,97.0000 A 0.5000,0.5000 0 0,0 300.0000,97.5000 L 300.0000,101.5000 A 0.5000,0.5000 0 0,1 299.5000,102.0000 L 298.5000,102.0000 A 0.5000,0.5000 0 0,1 298.0000,101.5000 L 298.0000,97.5000 A 0.5000,0.5000 0 0,0 297.5000,97.0000 L 295.5000,97.0000 A 0.5000,0.5000 0 0,0 295.0000,97.5000 L 295.0000,101.5000 A 0.5000,0.5000 0 0,1 294.5000,102.0000 L 293.5000,102.0000 A 0.5000,0.5000 0 0,1 293.0000,101.5000 L 293.0000,97.5000 A 0.5000,0.5000 0 0,0 292.5000,97.0000 L 290.5000,97.0000 A 0.5000,0.5000 0 0,0 290.0000,97.5000 L 290.0000,101.5000 A 0.5000,0.5000 0 0,1 289.5000,102.0000 L 288.5000,102.0000 A 0.5000,0.5000 0 0,1 288.0000,101.5000 L 288.0000,97.5000 A 0.5000,0.5000 0 0,0 287.5000,97.0000 L 285.5000,97.0000 A 0.5000,0.5000 0 0,0 285.0000,97.5000 L 285.0000,101.5000 A 0.5000,0.5000 0 0,1 284.5000,102.0000 L 283.5000,102.0000 A 0.5000,0.5000 0 0,1 283.0000,101.5000 L 283.0000,97.5000 A 0.5000,0.5000 0 0,0 282.5000,97.0000 L 280.5000,97.0000 A 0.5000,0.5000 0 0,0 280.0000,97.5000 L 280.0000,101.5000 A 0.5000,0.5000 0 0,1 279.5000,102.0000 L 278.5000,102.0000 A 0.5000,0.5000 0 0,1 278.0000,101.5000 L 278.0000,97.5000 A 0.5000,0.5000 0 0,0 277.5000,97.0000 L 275.5000,97.0000 A 0.5000,0.5000 0 0,0 275.0000,97.5000 L 275.0000,101.5000 A 0.5000,0.5000 0 0,1 274.5000,102.0000 L 273.5000,102.0000 A 0.5000,0.5000 0 0,1 273.0000,101.5000 L 273.0000,97.5000 A 0.5000,0.5000 0 0,0 272.5000,97.0000 L 270.5000,97.0000 A 0.5000,0.5000 0 0,0 270.0000,97.5000 L 270.0000,101.5000 A 0.5000,0.5000 0 0,1 269.5000,102.0000 L 268.5000,102.0000 A 0.5000,0.5000 0 0,1 268.0000,101.5000 L 268.0000,97.5000 A 0.5000,0.5000 0 0,0 267.5000,97.0000 L 265.5000,97.0000 A 0.5000,0.5000 0 0,0 265.0000,97.5000 L 265.0000,101.5000 A 0.5000,0.5000 0 0,1 264.5000,102.0000 L 263.5000,102.0000 A 0.5000,0.5000 0 0,1 263.0000,101.5000 L 263.0000,97.5000 A 0.5000,0.5000 0 0,0 262.5000,97.0000 L 260.5000,97.0000 A 0.5000,0.5000 0 0,0 260.0000,97.5000 L 260.0000,101.5000 A 0.5000,0.5000 0 0,1 259.5000,102.0000 L 258.5000,102.0000 A 0.5000,0.5000 0 0,1 258.0000,101.5000 L 258.0000,97.5000 A 0.5000,0.5000 0 0,0 257.5000,97.0000 L 255.5000,97.0000 A 0.5000,0.5000 0 0,0 255.0000,97.5000 L 255.0000,101.5000 A 0.5000,0.5000 0 0,1 254.5000,102.0000 L 253.5000,102.0000 A 0.5000,0.5000 0 0,1 253.0000,101.5000 L 253.0000,97.5000 A 0.5000,0.5000 0 0,0 252.5000,97.0000 L 250.5000,97.0000 A 0.5000,0.5000 0 0,0 250.0000,97.5000 L 250.0000,101.5000 A 0.5000,0.5000 0 0,1 249.5000,102.0000 L 248.5000,102.0000 A 0.5000,0.5000 0 0,1 248.0000,101.5000 L 248.0000,97.5000 A 0.5000,0.5000 0 0,0 247.5000,97.0000 L 245.5000,97.0000 A 0.5000,0.5000 0 0,0 245.0000,97.5000 L 245.0000,101.5000 A 0.5000,0.5000 0 0,1 244.5000,102.0000 L 243.5000,102.0000 A 0.5000,0.5000 0 0,1 243.0000,101.5000 L 243.0000,97.5000 A 0.5000,0.5000 0 0,0 242.5000,97.0000 L 240.5000,97.0000 A 0.5000,0.5000 0 0,0 240.0000,97.5000 L 240.0000,101.5000 A 0.5000,0.5000 0 0,1 239.5000,102.0000 L 238.5000,102.0000 A 0.5000,0.5000 0 0,1 238.0000,101.5000 L 238.0000,97.5000 A 0.5000,0.5000 0 0,0 237.5000,97.0000 L 235.5000,97.0000 A 0.5000,0.5000 0 0,0 235.0000,97.5000 L 235.0000,101.5000 A 0.5000,0.5000 0 0,1 234.5000,102.0000 L 233.5000,102.0000 A 0.5000,0.5000 0 0,1 233.0000,101.5000 L 233.0000,97.5000 A 0.5000,0.5000 0 0,0 232.5000,97.0000 L 230.5000,97.0000 A 0.5000,0.5000 0 0,0 230.0000,97.5000 L 230.0000,101.5000 A 0.5000,0.5000 0 0,1 229.5000,102.0000 L 228.5000,102.0000 A 0.5000,0.5000 0 0,1 228.0000,101.5000 L 228.0000,97.5000 A 0.5000,0.5000 0 0,0 227.5000,97.0000 L 225.5000,97.0000 A 0.5000,0.5000 0 0,0 225.0000,97.5000 L 225.0000,101.5000 A 0.5000,0.5000 0 0,1 224.5000,102.0000 L 223.5000,102.0000 A 0.5000,0.5000 0 0,1 223.0000,101.5000 L 223.0000,97.5000 A 0.5000,0.5000 0 0,0 222.5000,97.0000 L 220.5000,97.0000 A 0.5000,0.5000 0 0,0 220.0000,97.5000 L 220.0000,101.5000 A 0.5000,0.5000 0 0,1 219.5000,102.0000 L 218.5000,102.0000 A 0.5000,0.5000 0 0,1 218.0000,101.5000 L 218.0000,97.5000 A 0.5000,0.5000 0 0,0 217.5000,97.0000 L 215.5000,97.0000 A 0.5000,0.5000 0 0,0 215.0000,97.5000 L 215.0000,101.5000 A 0.5000,0.5000 0 0,1 214.5000,102.0000 L 213.5000,102.0000 A 0.5000,0.5000 0 0,1 213.0000,101.5000 L 213.0000,97.5000 A 0.5000,0.5000 0 0,0 212.5000,97.0000 L 210.5000,97.0000 A 0.5000,0.5000 0 0,0 210.0000,97.5000 L 210.0000,101.5000 A 0.5000,0.5000 0 0,1 209.5000,102.0000 L 208.5000,102.0000 A 0.5000,0.5000 0 0,1 208.0000,101.5000 L 208.0000,97.5000 A 0.5000,0.5000 0 0,0 207.5000,97.0000 L 205.5000,97.0000 A 0.5000,0.5000 0 0,0 205.0000,97.5000 L 205.0000,101.5000 A 0.5000,0.5000 0 0,1 204.5000,102.0000 L 203.5000,102.0000 A 0.5000,0.5000 0 0,1 203.0000,101.5000 L 203.0000,97.5000 A 0.5000,0.5000 0 0,0 202.5000,97.0000 L 200.5000,97.0000 A 0.5000,0.5000 0 0,0 200.0000,97.5000 L 200.0000,101.5000 A 0.5000,0.5000 0 0,1 199.5000,102.0000 L 198.5000,102.0000 A 0.5000,0.5000 0 0,1 198.0000,101.5000 L 198.0000,97.5000 A 0.5000,0.5000 0 0,0 197.5000,97.0000 L 195.5000,97.0000 A 0.5000,0.5000 0 0,0 195.0000,97.5000 L 195.0000,101.5000 A 0.5000,0.5000 0 0,1 194.5000,102.0000 L 193.5000,102.0000 A 0.5000,0.5000 0 0,1 193.0000,101.5000 L 193.0000,97.5000 A 0.5000,0.5000 0 0,0 192.5000,97.0000 L 190.5000,97.0000 A 0.5000,0.5000 0 0,0 190.0000,97.5000 L 190.0000,101.5000 A 0.5000,0.5000 0 0,1 189.5000,102.0000 L 188.5000,102.0000 A 0.5000,0.5000 0 0,1 188.0000,101.5000 L 188.0000,97.5000 A 0.5000,0.5000 0 0,0 187.5000,97.0000 L 185.5000,97.0000 A 0.5000,0.5000 0 0,0 185.0000,97.5000 L 185.0000,101.5000 A 0.5000,0.5000 0 0,1 184.5000,102.0000 L 183.5000,102.0000 A 0.5000,0.5000 0 0,1 183.0000,101.5000 L 183.0000,97.5000 A 0.5000,0.5000 0 0,0 182.5000,97.0000 L 180.5000,97.0000 A 0.5000,0.5000 0 0,0 180.0000,97.5000 L 180.0000,101.5000 A 0.5000,0.5000 0 0,1 179.5000,102.0000 L 178.5000,102.0000 A 0.5000,0.5000 0 0,1 178.0000,101.5000 L 178.0000,97.5000 A 0.5000,0.5000 0 0,0 177.5000,97.0000 L 175.5000,97.0000 A 0.5000,0.5000 0 0,0 175.0000,97.5000 L 175.0000,101.5000 A 0.5000,0.5000 0 0,1 174.5000,102.0000 L 173.5000,102.0000 A 0.5000,0.5000 0 0,1 173.0000,101.5000 L 173.0000,97.5000 A 0.5000,0.5000 0 0,0 172.5000,97.0000 L 170.5000,97.0000 A 0.5000,0.5000 0 0,0 170.0000,97.5000 L 170.0000,101.5000 A 0.5000,0.5000 0 0,1 169.5000,102.0000 L 168.5000,102.0000 A 0.5000,0.5000 0 0,1 168.0000,101.5000 L 168.0000,97.5000 A 0.5000,0.5000 0 0,0 167.5000,97.0000 L 165.5000,97.0000 A 0.5000,0.5000 0 0,0 165.0000,97.5000 L 165.0000,101.5000 A 0.5000,0.5000 0 0,1 164.5000,102.0000 L 163.5000,102.0000 A 0.5000,0.5000 0 0,1 163.0000,101.5000 L 163.0000,97.5000 A 0.5000,0.5000 0 0,0 162.5000,97.0000 L 160.5000,97.0000 A 0.5000,0.5000 0 0,0 160.0000,97.5000 L 160.0000,101.5000 A 0.5000,0.5000 0 0,1 159.5000,102.0000 L 158.5000,102.0000 A 0.5000,0.5000 0 0,1 158.0000,101.5000 L 158.0000,97.5000 A 0.5000,0.5000 0 0,0 157.5000,97.0000 L 155.5000,97.0000 A 0.5000,0.5000 0 0,0 155.0000,97.5000 L 155.0000,101.5000 A 0.5000,0.5000 0 0,1 154.5000,102.0000 L 153.5000,102.0000 A 0.5000,0.5000 0 0,1 153.0000,101.5000 L 153.0000,97.5000 A 0.5000,0.5000 0 0,0 152.5000,97.0000 L 150.5000,97.0000 A 0.5000,0.5000 0 0,0 150.0000,97.5000 L 150.0000,101.5000 A 0.5000,0.5000 0 0,1 149.5000,102.0000 L 148.5000,102.0000 A 0.5000,0.5000 0 0,1 148.0000,101.5000 L 148.0000,97.5000 A 0.5000,0.5000 0 0,0 147.5000,97.0000 L 145.5000,97.0000 A 0.5000,0.5000 0 0,0 145.0000,97.5000 L 145.0000,101.5000 A 0.5000,0.5000 0 0,1 144.5000,102.0000 L 143.5000,102.0000 A 0.5000,0.5000 0 0,1 143.0000,101.5000 L 143.0000,97.5000 A 0.5000,0.5000 0 0,0 142.5000,97.0000 L 140.5000,97.0000 A 0.5000,0.5000 0 0,0 140.0000,97.5000 L 140.0000,101.5000 A 0.5000,0.5000 0 0,1 139.5000,102.0000 L 138.5000,102.0000 A 0.5000,0.5000 0 0,1 138.0000,101.5000 L 138.0000,97.5000 A 0.5000,0.5000 0 0,0 137.5000,97.0000 L 135.5000,97.0000 A 0.5000,0.5000 0 0,0 135.0000,97.5000 L 135.0000,101.5000 A 0.5000,0.5000 0 0,1 134.5000,102.0000 L 133.5000,102.0000 A 0.5000,0.5000 0 0,1 133.0000,101.5000 L 133.0000,97.5000 A 0.5000,0.5000 0 0,0 132.5000,97.0000 L 130.5000,97.0000 A 0.5000,0.5000 0 0,0 130.0000,97.5000 L 130.0000,101.5000 A 0.5000,0.5000 0 0,1 129.5000,102.0000 L 128.5000,102.0000 A 0.5000,0.5000 0 0,1 128.0000,101.5000 L 128.0000,97.5000 A 0.5000,0.5000 0 0,0 127.5000,97.0000 L 125.5000,97.0000 A 0.5000,0.5000 0 0,0 125.0000,97.5000 L 125.0000,101.5000 A 0.5000,0.5000 0 0,1 124.5000,102.0000 L 123.5000,102.0000 A 0.5000,0.5000 0 0,1 123.0000,101.5000 L 123.0000,97.5000 A 0.5000,0.5000 0 0,0 122.5000,97.0000 L 120.5000,97.0000 A 0.5000,0.5000 0 0,0 120.0000,97.5000 L 120.0000,101.5000 A 0.5000,0.5000 0 0,1 119.5000,102.0000 L 118.5000,102.0000 A 0.5000,0.5000 0 0,1 118.0000,101.5000 L 118.0000,97.5000 A 0.5000,0.5000 0 0,0 117.5000,97.0000 L 115.5000,97.0000 A 0.5000,0.5000 0 0,0 115.0000,97.5000 L 115.0000,101.5000 A 0.5000,0.5000 0 0,1 114.5000,102.0000 L 113.5000,102.0000 A 0.5000,0.5000 0 0,1 113.0000,101.5000 L 113.0000,97.5000 A 0.5000,0.5000 0 0,0 112.5000,97.0000 L 110.5000,97.0000 A 0.5000,0.5000 0 0,0 110.0000,97.5000 L 110.0000,101.5000 A 0.5000,0.5000 0 0,1 109.5000,102.0000 L 108.5000,102.0000 A 0.5000,0.5000 0 0,1 108.0000,101.5000 L 108.0000,97.5000 A 0.5000,0.5000 0 0,0 107.5000,97.0000 L 105.5000,97.0000 A 0.5000,0.5000 0 0,0 105.0000,97.5000 L 105.0000,101.5000 A 0.5000,0.5000 0 0,1 104.5000,102.0000 L 103.5000,102.0000 A 0.5000,0.5000 0 0,1 103.0000,101.5000 L 103.0000,97.5000 A 0.5000,0.5000 0 0,0 102.5000,97.0000 L 100.5000,97.0000 A 0.5000,0.5000 0 0,0 100.0000,97.5000 L 100.0000,101.5000 A 0.5000,0.5000 0 0,1 99.5000,102.0000 L 98.5000,102.0000 A 0.5000,0.5000 0 0,1 98.0000,101.5000 L 98.0000,97.5000 A 0.5000,0.5000 0 0,0 97.5000,97.0000 L 95.5000,97.0000 A 0.5000,0.5000 0 0,0 95.0000,97.5000 L 95.0000,101.5000 A 0.5000,0.5000 0 0,1 94.5000,102.0000 L 93.5000,102.0000 A 0.5000,0.5000 0 0,1 93.0000,101.5000 L 93.0000,97.5000 A 0.5000,0.5000 0 0,0 92.5000,97.0000 L 90.5000,97.0000 A 0.5000,0.5000 0 0,0 90.0000,97.5000 L 90.0000,101.5000 A 0.5000,0.5000 0 0,1 89.5000,102.0000 L 88.5000,102.0000 A 0.5000,0.5000 0 0,1 88.0000,101.5000 L 88.0000,97.5000 A 0.5000,0.5000 0 0,0 87.5000,97.0000 L 85.5000,97.0000 A 0.5000,0.5000 0 0,0 85.0000,97.5000 L 85.0000,101.5000 A 0.5000,0.5000 0 0,1 84.5000,102.0000 L 83.5000,102.0000 A 0.5000,0.5000 0 0,1 83.0000,101.5000 L 83.0000,97.5000 A 0.5000,0.5000 0 0,0 82.5000,97.0000 L 80.5000,97.0000 A 0.5000,0.5000 0 0,0 80.0000,97.5000 L 80.0000,101.5000 A 0.5000,0.5000 0 0,1 79.5000,102.0000 L 78.5000,102.0000 A 0.5000,0.5000 0 0,1 78.0000,101.5000 L 78.0000,97.5000 A 0.5000,0.5000 0 0,0 77.5000,97.0000 L 75.5000,97.0000 A 0.5000,0.5000 0 0,0 75.0000,97.5000 L 75.0000,101.5000 A 0.5000,0.5000 0 0,1 74.5000,102.0000 L 73.5000,102.0000 A 0.5000,0.5000 0 0,1 73.0000,101.5000 L 73.0000,97.5000 A 0.5000,0.5000 0 0,0 72.5000,97.0000 L 70.5000,97.0000 A 0.5000,0.5000 0 0,0 70.0000,97.5000 L 70.0000,101.5000 A 0.5000,0.5000 0 0,1 69.5000,102.0000 L 68.5000,102.0000 A 0.5000,0.5000 0 0,1 68.0000,101.5000 L 68.0000,97.5000 A 0.5000,0.5000 0 0,0 67.5000,97.0000 L 65.5000,97.0000 A 0.5000,0.5000 0 0,0 65.0000,97.5000 L 65.0000,101.5000 A 0.5000,0.5000 0 0,1 64.5000,102.0000 L 63.5000,102.0000 A 0.5000,0.5000 0 0,1 63.0000,101.5000 L 63.0000,97.5000 A 0.5000,0.5000 0 0,0 62.5000,97.0000 L 60.5000,97.0000 A 0.5000,0.5000 0 0,0 60.0000,97.5000 L 60.0000,101.5000 A 0.5000,0.5000 0 0,1 59.5000,102.0000 L 58.5000,102.0000 A 0.5000,0.5000 0 0,1 58.0000,101.5000 L 58.0000,97.5000 A 0.5000,0.5000 0 0,0 57.5000,97.0000 L 55.5000,97.0000 A 0.5000,0.5000 0 0,0 55.0000,97.5000 L 55.0000,101.5000 A 0.5000,0.5000 0 0,1 54.5000,102.0000 L 53.5000,102.0000 A 0.5000,0.5000 0 0,1 53.0000,101.5000 L 53.0000,97.5000 A 0.5000,0.5000 0 0,0 52.5000,97.0000 L 50.5000,97.0000 A 0.5000,0.5000 0 0,0 50.0000,97.5000 L 50.0000,101.5000 A 0.5000,0.5000 0 0,1 49.5000,102.0000 L 48.5000,102.0000 A 0.5000,0.5000 0 0,1 48.0000,101.5000 L 48.0000,97.5000 A 0.5000,0.5000 0 0,0 47.5000,97.0000 L 45.5000,97.0000 A 0.5000,0.5000 0 0,0 45.0000,97.5000 L 45.0000,101.5000 A 0.5000,0.5000 0 0,1 44.5000,102.0000 L 43.5000,102.0000 A 0.5000,0.5000 0 0,1 43.0000,101.5000 L 43.0000,97.5000 A 0.5000,0.5000 0 0,0 42.5000,97.0000 L 40.5000,97.0000 A 0.5000,0.5000 0 0,0 40.0000,97.5000 L 40.0000,101.5000 A 0.5000,0.5000 0 0,1 39.5000,102.0000 L 38.5000,102.0000 A 0.5000,0.5000 0 0,1 38.0000,101.5000 L 38.0000,97.5000 A 0.5000,0.5000 0 0,0 37.5000,97.0000 L 35.5000,97.0000 A 0.5000,0.5000 0 0,0 35.0000,97.5000 L 35.0000,101.5000 A 0.5000,0.5000 0 0,1 34.5000,102.0000 L 33.5000,102.0000 A 0.5000,0.5000 0 0,1 33.0000,101.5000 L 33.0000,97.5000 A 0.5000,0.5000 0 0,0 32.5000,97.0000 L 30.5000,97.0000 A 0.5000,0.5000 0 0,0 30.0000,97.5000 L 30.0000,101.5000 A 0.5000,0.5000 0 0,1 29.5000,102.0000 L 28.5000,102.0000 A 0.5000,0.5000 0 0,1 28.0000,101.5000 L 28.0000,97.5000 A 0.5000,0.5000 0 0,0 27.5000,97.0000 L 25.5000,97.0000 A 0.5000,0.5000 0 0,0 25.0000,97.5000 L 25.0000,101.5000 A 0.5000,0.5000 0 0,1 24.5000,102.0000 L 23.5000,102.0000 A 0.5000,0.5000 0 0,1 23.0000,101.5000 L 23.0000,97.5000 A 0.5000,0.5000 0 0,0 22.5000,97.0000 L 2.0000,97.0000 L 2.0000,89.7167 L 8.0000,89.7167 L 8.0000,82.2833 L 2.0000,82.2833 Z" fill="none" stroke="#ff0000" stroke-width="0.3"/>
  <text x="174.00" y="88.50" font-size="4.0" font-family="monospace" text-anchor="middle" fill="#000000">BOTTOM RAIL</text>
</g>

<g id="stile_L">
  <path id="stile_L_outer" d="M 2.0000,110.0000 L 9.3333,110.0000 L 9.3333,104.0000 L 16.6667,104.0000 L 16.6667,110.0000 L 24.0000,110.0000 L 24.0000,554.0000 L 16.6667,554.0000 L 16.6667,560.0000 L 9.3333,560.0000 L 9.3333,554.0000 L 2.0000,554.0000 Z" fill="none" stroke="#ff0000" stroke-width="0.3"/>
  <path id="stile_L_hole0" d="M 19.0000,255.4500 L 24.0000,255.4500 L 24.0000,275.5500 L 19.0000,275.5500 Z" fill="none" stroke="#ff0000" stroke-width="0.3"/>
  <path id="stile_L_hole1" d="M 19.0000,388.4500 L 24.0000,388.4500 L 24.0000,408.5500 L 19.0000,408.5500 Z" fill="none" stroke="#ff0000" stroke-width="0.3"/>
  <text x="13.00" y="332.00" font-size="4.0" font-family="monospace" text-anchor="middle" fill="#000000">STILE L</text>
</g>

<g id="stile_R">
  <path id="stile_R_outer" d="M 48.0000,110.0000 L 40.6667,110.0000 L 40.6667,104.0000 L 33.3333,104.0000 L 33.3333,110.0000 L 26.0000,110.0000 L 26.0000,554.0000 L 33.3333,554.0000 L 33.3333,560.0000 L 40.6667,560.0000 L 40.6667,554.0000 L 48.0000,554.0000 Z" fill="none" stroke="#ff0000" stroke-width="0.3"/>
  <path id="stile_R_hole0" d="M 26.0000,255.4500 L 31.0000,255.4500 L 31.0000,275.5500 L 26.0000,275.5500 Z" fill="none" stroke="#ff0000" stroke-width="0.3"/>
  <path id="stile_R_hole1" d="M 26.0000,388.4500 L 31.0000,388.4500 L 31.0000,408.5500 L 26.0000,408.5500 Z" fill="none" stroke="#ff0000" stroke-width="0.3"/>
  <text x="37.00" y="332.00" font-size="4.0" font-family="monospace" text-anchor="middle" fill="#000000">STILE R</text>
</g>

<g id="heddle_bar">
  <path id="heddle_bar_outer" d="M 52.0000,104.0000 L 372.0000,104.0000 A 2.0000,2.0000 0 0,1 374.0000,106.0000 L 374.0000,122.0000 A 2.0000,2.0000 0 0,1 372.0000,124.0000 L 52.0000,124.0000 A 2.0000,2.0000 0 0,1 50.0000,122.0000 L 50.0000,106.0000 A 2.0000,2.0000 0 0,1 52.0000,104.0000 Z" fill="none" stroke="#ff0000" stroke-width="0.3"/>
  <path id="heddle_bar_hole0" d="M 63.5000,112.5000 A 1.5000,1.5000 0 1,0 60.5000,112.5000 L 60.5000,115.5000 A 1.5000,1.5000 0 1,0 63.5000,115.5000 Z" fill="none" stroke="#ff0000" stroke-width="0.3"/>
  <path id="heddle_bar_hole1" d="M 68.5000,109.5000 A 1.5000,1.5000 0 1,0 65.5000,109.5000 L 65.5000,118.5000 A 1.5000,1.5000 0 1,0 68.5000,118.5000 Z" fill="none" stroke="#ff0000" stroke-width="0.3"/>
  <path id="heddle_bar_hole2" d="M 73.5000,112.5000 A 1.5000,1.5000 0 1,0 70.5000,112.5000 L 70.5000,115.5000 A 1.5000,1.5000 0 1,0 73.5000,115.5000 Z" fill="none" stroke="#ff0000" stroke-width="0.3"/>
  <path id="heddle_bar_hole3" d="M 78.5000,109.5000 A 1.5000,1.5000 0 1,0 75.5000,109.5000 L 75.5000,118.5000 A 1.5000,1.5000 0 1,0 78.5000,118.5000 Z" fill="none" stroke="#ff0000" stroke-width="0.3"/>
  <path id="heddle_bar_hole4" d="M 83.5000,112.5000 A 1.5000,1.5000 0 1,0 80.5000,112.5000 L 80.5000,115.5000 A 1.5000,1.5000 0 1,0 83.5000,115.5000 Z" fill="none" stroke="#ff0000" stroke-width="0.3"/>
  <path id="heddle_bar_hole5" d="M 88.5000,109.5000 A 1.5000,1.5000 0 1,0 85.5000,109.5000 L 85.5000,118.5000 A 1.5000,1.5000 0 1,0 88.5000,118.5000 Z" fill="none" stroke="#ff0000" stroke-width="0.3"/>
  <path id="heddle_bar_hole6" d="M 93.5000,112.5000 A 1.5000,1.5000 0 1,0 90.5000,112.5000 L 90.5000,115.5000 A 1.5000,1.5000 0 1,0 93.5000,115.5000 Z" fill="none" stroke="#ff0000" stroke-width="0.3"/>
  <path id="heddle_bar_hole7" d="M 98.5000,109.5000 A 1.5000,1.5000 0 1,0 95.5000,109.5000 L 95.5000,118.5000 A 1.5000,1.5000 0 1,0 98.5000,118.5000 Z" fill="none" stroke="#ff0000" stroke-width="0.3"/>
  <path id="heddle_bar_hole8" d="M 103.5000,112.5000 A 1.5000,1.5000 0 1,0 100.5000,112.5000 L 100.5000,115.5000 A 1.5000,1.5000 0 1,0 103.5000,115.5000 Z" fill="none" stroke="#ff0000" stroke-width="0.3"/>
  <path id="heddle_bar_hole9" d="M 108.5000,109.5000 A 1.5000,1.5000 0 1,0 105.5000,109.5000 L 105.5000,118.5000 A 1.5000,1.5000 0 1,0 108.5000,118.5000 Z" fill="none" stroke="#ff0000" stroke-width="0.3"/>
  <path id="heddle_bar_hole10" d="M 113.5000,112.5000 A 1.5000,1.5000 0 1,0 110.5000,112.5000 L 110.5000,115.5000 A 1.5000,1.5000 0 1,0 113.5000,115.5000 Z" fill="none" stroke="#ff0000" stroke-width="0.3"/>
  <path id="heddle_bar_hole11" d="M 118.5000,109.5000 A 1.5000,1.5000 0 1,0 115.5000,109.5000 L 115.5000,118.5000 A 1.5000,1.5000 0 1,0 118.5000,118.5000 Z" fill="none" stroke="#ff0000" stroke-width="0.3"/>
  <path id="heddle_bar_hole12" d="M 123.5000,112.5000 A 1.5000,1.5000 0 1,0 120.5000,112.5000 L 120.5000,115.5000 A 1.5000,1.5000 0 1,0 123.5000,115.5000 Z" fill="none" stroke="#ff0000" stroke-width="0.3"/>
  <path id="heddle_bar_hole13" d="M 128.5000,109.5000 A 1.5000,1.5000 0 1,0 125.5000,109.5000 L 125.5000,118.5000 A 1.5000,1.5000 0 1,0 128.5000,118.5000 Z" fill="none" stroke="#ff0000" stroke-width="0.3"/>
  <path id="heddle_bar_hole14" d="M 133.5000,112.5000 A 1.5000,1.5000 0 1,0 130.5000,112.5000 L 130.5000,115.5000 A 1.5000,1.5000 0 1,0 133.5000,115.5000 Z" fill="none" stroke="#ff0000" stroke-width="0.3"/>
  <path id="heddle_bar_hole15" d="M 138.5000,109.5000 A 1.5000,1.5000 0 1,0 135.5000,109.5000 L 135.5000,118.5000 A 1.5000,1.5000 0 1,0 138.5000,118.5000 Z" fill="none" stroke="#ff0000" stroke-width="0.3"/>
  <path id="heddle_bar_hole16" d="M 143.5000,112.5000 A 1.5000,1.5000 0 1,0 140.5000,112.5000 L 140.5000,115.5000 A 1.5000,1.5000 0 1,0 143.5000,115.5000 Z" fill="none" stroke="#ff0000" stroke-width="0.3"/>
  <path id="heddle_bar_hole17" d="M 148.5000,109.5000 A 1.5000,1.5000 0 1,0 145.5000,109.5000 L 145.5000,118.5000 A 1.5000,1.5000 0 1,0 148.5000,118.5000 Z" fill="none" stroke="#ff0000" stroke-width="0.3"/>
  <path id="heddle_bar_hole18" d="M 153.5000,112.5000 A 1.5000,1.5000 0 1,0 150.5000,112.5000 L 150.5000,115.5000 A 1.5000,1.5000 0 1,0 153.5000,115.5000 Z" fill="none" stroke="#ff0000" stroke-width="0.3"/>
  <path id="heddle_bar_hole19" d="M 158.5000,109.5000 A 1.5000,1.5000 0 1,0 155.5000,109.5000 L 155.5000,118.5000 A 1.5000,1.5000 0 1,0 158.5000,118.5000 Z" fill="none" stroke="#ff0000" stroke-width="0.3"/>
  <path id="heddle_bar_hole20" d="M 163.5000,112.5000 A 1.5000,1.5000 0 1,0 160.5000,112.5000 L 160.5000,115.5000 A 1.5000,1.5000 0 1,0 163.5000,115.5000 Z" fill="none" stroke="#ff0000" stroke-width="0.3"/>
  <path id="heddle_bar_hole21" d="M 168.5000,109.5000 A 1.5000,1.5000 0 1,0 165.5000,109.5000 L 165.5000,118.5000 A 1.5000,1.5000 0 1,0 168.5000,118.5000 Z" fill="none" stroke="#ff0000" stroke-width="0.3"/>
  <path id="heddle_bar_hole22" d="M 173.5000,112.5000 A 1.5000,1.5000 0 1,0 170.5000,112.5000 L 170.5000,115.5000 A 1.5000,1.5000 0 1,0 173.5000,115.5000 Z" fill="none" stroke="#ff0000" stroke-width="0.3"/>
  <path id="heddle_bar_hole23" d="M 178.5000,109.5000 A 1.5000,1.5000 0 1,0 175.5000,109.5000 L 175.5000,118.5000 A 1.5000,1.5000 0 1,0 178.5000,118.5000 Z" fill="none" stroke="#ff0000" stroke-width="0.3"/>
  <path id="heddle_bar_hole24" d="M 183.5000,112.5000 A 1.5000,1.5000 0 1,0 180.5000,112.5000 L 180.5000,115.5000 A 1.5000,1.5000 0 1,0 183.5000,115.5000 Z" fill="none" stroke="#ff0000" stroke-width="0.3"/>
  <path id="heddle_bar_hole25" d="M 188.5000,109.5000 A 1.5000,1.5000 0 1,0 185.5000,109.5000 L 185.5000,118.5000 A 1.5000,1.5000 0 1,0 188.5000,118.5000 Z" fill="none" stroke="#ff0000" stroke-width="0.3"/>
  <path id="heddle_bar_hole26" d="M 193.5000,112.5000 A 1.5000,1.5000 0 1,0 190.5000,112.5000 L 190.5000,115.5000 A 1.5000,1.5000 0 1,0 193.5000,115.5000 Z" fill="none" stroke="#ff0000" stroke-width="0.3"/>
  <path id="heddle_bar_hole27" d="M 198.5000,109.5000 A 1.5000,1.5000 0 1,0 195.5000,109.5000 L 195.5000,118.5000 A 1.5000,1.5000 0 1,0 198.5000,118.5000 Z" fill="none" stroke="#ff0000" stroke-width="0.3"/>
  <path id="heddle_bar_hole28" d="M 203.5000,112.5000 A 1.5000,1.5000 0 1,0 200.5000,112.5000 L 200.5000,115.5000 A 1.5000,1.5000 0 1,0 203.5000,115.5000 Z" fill="none" stroke="#ff0000" stroke-width="0.3"/>
  <path id="heddle_bar_hole29" d="M 208.5000,109.5000 A 1.5000,1.5000 0 1,0 205.5000,109.5000 L 205.5000,118.5000 A 1.5000,1.5000 0 1,0 208.5000,118.5000 Z" fill="none" stroke="#ff0000" stroke-width="0.3"/>
  <path id="heddle_bar_hole30" d="M 213.5000,112.5000 A 1.5000,1.5000 0 1,0 210.5000,112.5000 L 210.5000,115.5000 A 1.5000,1.5000 0 1,0 213.5000,115.5000 Z" fill="none" stroke="#ff0000" stroke-width="0.3"/>
  <path id="heddle_bar_hole31" d="M 218.5000,109.5000 A 1.5000,1.5000 0 1,0 215.5000,109.5000 L 215.5000,118.5000 A 1.5000,1.5000 0 1,0 218.5000,118.5000 Z" fill="none" stroke="#ff0000" stroke-width="0.3"/>
  <path id="heddle_bar_hole32" d="M 223.5000,112.5000 A 1.5000,1.5000 0 1,0 220.5000,112.5000 L 220.5000,115.5000 A 1.5000,1.5000 0 1,0 223.5000,115.5000 Z" fill="none" stroke="#ff0000" stroke-width="0.3"/>
  <path id="heddle_bar_hole33" d="M 228.5000,109.5000 A 1.5000,1.5000 0 1,0 225.5000,109.5000 L 225.5000,118.5000 A 1.5000,1.5000 0 1,0 228.5000,118.5000 Z" fill="none" stroke="#ff0000" stroke-width="0.3"/>
  <path id="heddle_bar_hole34" d="M 233.5000,112.5000 A 1.5000,1.5000 0 1,0 230.5000,112.5000 L 230.5000,115.5000 A 1.5000,1.5000 0 1,0 233.5000,115.5000 Z" fill="none" stroke="#ff0000" stroke-width="0.3"/>
  <path id="heddle_bar_hole35" d="M 238.5000,109.5000 A 1.5000,1.5000 0 1,0 235.5000,109.5000 L 235.5000,118.5000 A 1.5000,1.5000 0 1,0 238.5000,118.5000 Z" fill="none" stroke="#ff0000" stroke-width="0.3"/>
  <path id="heddle_bar_hole36" d="M 243.5000,112.5000 A 1.5000,1.5000 0 1,0 240.5000,112.5000 L 240.5000,115.5000 A 1.5000,1.5000 0 1,0 243.5000,115.5000 Z" fill="none" stroke="#ff0000" stroke-width="0.3"/>
  <path id="heddle_bar_hole37" d="M 248.5000,109.5000 A 1.5000,1.5000 0 1,0 245.5000,109.5000 L 245.5000,118.5000 A 1.5000,1.5000 0 1,0 248.5000,118.5000 Z" fill="none" stroke="#ff0000" stroke-width="0.3"/>
  <path id="heddle_bar_hole38" d="M 253.5000,112.5000 A 1.5000,1.5000 0 1,0 250.5000,112.5000 L 250.5000,115.5000 A 1.5000,1.5000 0 1,0 253.5000,115.5000 Z" fill="none" stroke="#ff0000" stroke-width="0.3"/>
  <path id="heddle_bar_hole39" d="M 258.5000,109.5000 A 1.5000,1.5000 0 1,0 255.5000,109.5000 L 255.5000,118.5000 A 1.5000,1.5000 0 1,0 258.5000,118.5000 Z" fill="none" stroke="#ff0000" stroke-width="0.3"/>
  <path id="heddle_bar_hole40" d="M 263.5000,112.5000 A 1.5000,1.5000 0 1,0 260.5000,112.5000 L 260.5000,115.5000 A 1.5000,1.5000 0 1,0 263.5000,115.5000 Z" fill="none" stroke="#ff0000" stroke-width="0.3"/>
  <path id="heddle_bar_hole41" d="M 268.5000,109.5000 A 1.5000,1.5000 0 1,0 265.5000,109.5000 L 265.5000,118.5000 A 1.5000,1.5000 0 1,0 268.5000,118.5000 Z" fill="none" stroke="#ff0000" stroke-width="0.3"/>
  <path id="heddle_bar_hole42" d="M 273.5000,112.5000 A 1.5000,1.5000 0 1,0 270.5000,112.5000 L 270.5000,115.5000 A 1.5000,1.5000 0 1,0 273.5000,115.5000 Z" fill="none" stroke="#ff0000" stroke-width="0.3"/>
  <path id="heddle_bar_hole43" d="M 278.5000,109.5000 A 1.5000,1.5000 0 1,0 275.5000,109.5000 L 275.5000,118.5000 A 1.5000,1.5000 0 1,0 278.5000,118.5000 Z" fill="none" stroke="#ff0000" stroke-width="0.3"/>
  <path id="heddle_bar_hole44" d="M 283.5000,112.5000 A 1.5000,1.5000 0 1,0 280.5000,112.5000 L 280.5000,115.5000 A 1.5000,1.5000 0 1,0 283.5000,115.5000 Z" fill="none" stroke="#ff0000" stroke-width="0.3"/>
  <path id="heddle_bar_hole45" d="M 288.5000,109.5000 A 1.5000,1.5000 0 1,0 285.5000,109.5000 L 285.5000,118.5000 A 1.5000,1.5000 0 1,0 288.5000,118.5000 Z" fill="none" stroke="#ff0000" stroke-width="0.3"/>
  <path id="heddle_bar_hole46" d="M 293.5000,112.5000 A 1.5000,1.5000 0 1,0 290.5000,112.5000 L 290.5000,115.5000 A 1.5000,1.5000 0 1,0 293.5000,115.5000 Z" fill="none" stroke="#ff0000" stroke-width="0.3"/>
  <path id="heddle_bar_hole47" d="M 298.5000,109.5000 A 1.5000,1.5000 0 1,0 295.5000,109.5000 L 295.5000,118.5000 A 1.5000,1.5000 0 1,0 298.5000,118.5000 Z" fill="none" stroke="#ff0000" stroke-width="0.3"/>
  <path id="heddle_bar_hole48" d="M 303.5000,112.5000 A 1.5000,1.5000 0 1,0 300.5000,112.5000 L 300.5000,115.5000 A 1.5000,1.5000 0 1,0 303.5000,115.5000 Z" fill="none" stroke="#ff0000" stroke-width="0.3"/>
  <path id="heddle_bar_hole49" d="M 308.5000,109.5000 A 1.5000,1.5000 0 1,0 305.5000,109.5000 L 305.5000,118.5000 A 1.5000,1.5000 0 1,0 308.5000,118.5000 Z" fill="none" stroke="#ff0000" stroke-width="0.3"/>
  <path id="heddle_bar_hole50" d="M 313.5000,112.5000 A 1.5000,1.5000 0 1,0 310.5000,112.5000 L 310.5000,115.5000 A 1.5000,1.5000 0 1,0 313.5000,115.5000 Z" fill="none" stroke="#ff0000" stroke-width="0.3"/>
  <path id="heddle_bar_hole51" d="M 318.5000,109.5000 A 1.5000,1.5000 0 1,0 315.5000,109.5000 L 315.5000,118.5000 A 1.5000,1.5000 0 1,0 318.5000,118.5000 Z" fill="none" stroke="#ff0000" stroke-width="0.3"/>
  <path id="heddle_bar_hole52" d="M 323.5000,112.5000 A 1.5000,1.5000 0 1,0 320.5000,112.5000 L 320.5000,115.5000 A 1.5000,1.5000 0 1,0 323.5000,115.5000 Z" fill="none" stroke="#ff0000" stroke-width="0.3"/>
  <path id="heddle_bar_hole53" d="M 328.5000,109.5000 A 1.5000,1.5000 0 1,0 325.5000,109.5000 L 325.5000,118.5000 A 1.5000,1.5000 0 1,0 328.5000,118.5000 Z" fill="none" stroke="#ff0000" stroke-width="0.3"/>
  <path id="heddle_bar_hole54" d="M 333.5000,112.5000 A 1.5000,1.5000 0 1,0 330.5000,112.5000 L 330.5000,115.5000 A 1.5000,1.5000 0 1,0 333.5000,115.5000 Z" fill="none" stroke="#ff0000" stroke-width="0.3"/>
  <path id="heddle_bar_hole55" d="M 338.5000,109.5000 A 1.5000,1.5000 0 1,0 335.5000,109.5000 L 335.5000,118.5000 A 1.5000,1.5000 0 1,0 338.5000,118.5000 Z" fill="none" stroke="#ff0000" stroke-width="0.3"/>
  <path id="heddle_bar_hole56" d="M 343.5000,112.5000 A 1.5000,1.5000 0 1,0 340.5000,112.5000 L 340.5000,115.5000 A 1.5000,1.5000 0 1,0 343.5000,115.5000 Z" fill="none" stroke="#ff0000" stroke-width="0.3"/>
  <path id="heddle_bar_hole57" d="M 348.5000,109.5000 A 1.5000,1.5000 0 1,0 345.5000,109.5000 L 345.5000,118.5000 A 1.5000,1.5000 0 1,0 348.5000,118.5000 Z" fill="none" stroke="#ff0000" stroke-width="0.3"/>
  <path id="heddle_bar_hole58" d="M 353.5000,112.5000 A 1.5000,1.5000 0 1,0 350.5000,112.5000 L 350.5000,115.5000 A 1.5000,1.5000 0 1,0 353.5000,115.5000 Z" fill="none" stroke="#ff0000" stroke-width="0.3"/>
  <path id="heddle_bar_hole59" d="M 358.5000,109.5000 A 1.5000,1.5000 0 1,0 355.5000,109.5000 L 355.5000,118.5000 A 1.5000,1.5000 0 1,0 358.5000,118.5000 Z" fill="none" stroke="#ff0000" stroke-width="0.3"/>
  <path id="heddle_bar_hole60" d="M 363.5000,112.5000 A 1.5000,1.5000 0 1,0 360.5000,112.5000 L 360.5000,115.5000 A 1.5000,1.5000 0 1,0 363.5000,115.5000 Z" fill="none" stroke="#ff0000" stroke-width="0.3"/>
  <text x="212.00" y="109.00" font-size="4.0" font-family="monospace" text-anchor="middle" fill="#000000">HEDDLE BAR</text>
  <text x="62.00" y="119.50" font-size="2.0" font-family="monospace" text-anchor="middle" fill="#000000">H</text>
  <text x="62.00" y="122.50" font-size="2.0" font-family="monospace" text-anchor="middle" fill="#000000">S</text>
  <text x="67.00" y="121.50" font-size="2.0" font-family="monospace" text-anchor="middle" fill="#000000">S</text>
  <text x="72.00" y="119.50" font-size="2.0" font-family="monospace" text-anchor="middle" fill="#000000">H</text>
  <text x="72.00" y="122.50" font-size="2.0" font-family="monospace" text-anchor="middle" fill="#000000">S</text>
  <text x="77.00" y="121.50" font-size="2.0" font-family="monospace" text-anchor="middle" fill="#000000">S</text>
  <text x="82.00" y="119.50" font-size="2.0" font-family="monospace" text-anchor="middle" fill="#000000">H</text>
  <text x="82.00" y="122.50" font-size="2.0" font-family="monospace" text-anchor="middle" fill="#000000">S</text>
  <text x="87.00" y="121.50" font-size="2.0" font-family="monospace" text-anchor="middle" fill="#000000">S</text>
  <text x="92.00" y="119.50" font-size="2.0" font-family="monospace" text-anchor="middle" fill="#000000">H</text>
  <text x="92.00" y="122.50" font-size="2.0" font-family="monospace" text-anchor="middle" fill="#000000">S</text>
  <text x="97.00" y="121.50" font-size="2.0" font-family="monospace" text-anchor="middle" fill="#000000">S</text>
  <text x="102.00" y="119.50" font-size="2.0" font-family="monospace" text-anchor="middle" fill="#000000">H</text>
  <text x="102.00" y="122.50" font-size="2.0" font-family="monospace" text-anchor="middle" fill="#000000">S</text>
  <text x="107.00" y="121.50" font-size="2.0" font-family="monospace" text-anchor="middle" fill="#000000">S</text>
  <text x="112.00" y="119.50" font-size="2.0" font-family="monospace" text-anchor="middle" fill="#000000">H</text>
  <text x="112.00" y="122.50" font-size="2.0" font-family="monospace" text-anchor="middle" fill="#000000">S</text>
  <text x="117.00" y="121.50" font-size="2.0" font-family="monospace" text-anchor="middle" fill="#000000">S</text>
  <text x="122.00" y="119.50" font-size="2.0" font-family="monospace" text-anchor="middle" fill="#000000">H</text>
  <text x="122.00" y="122.50" font-size="2.0" font-family="monospace" text-anchor="middle" fill="#000000">S</text>
  <text x="127.00" y="121.50" font-size="2.0" font-family="monospace" text-anchor="middle" fill="#000000">S</text>
  <text x="132.00" y="119.50" font-size="2.0" font-family="monospace" text-anchor="middle" fill="#000000">H</text>
  <text x="132.00" y="122.50" font-size="2.0" font-family="monospace" text-anchor="middle" fill="#000000">S</text>
  <text x="137.00" y="121.50" font-size="2.0" font-family="monospace" text-anchor="middle" fill="#000000">S</text>
  <text x="142.00" y="119.50" font-size="2.0" font-family="monospace" text-anchor="middle" fill="#000000">H</text>
  <text x="142.00" y="122.50" font-size="2.0" font-family="monospace" text-anchor="middle" fill="#000000">S</text>
  <text x="147.00" y="121.50" font-size="2.0" font-family="monospace" text-anchor="middle" fill="#000000">S</text>
  <text x="152.00" y="119.50" font-size="2.0" font-family="monospace" text-anchor="middle" fill="#000000">H</text>
  <text x="152.00" y="122.50" font-size="2.0" font-family="monospace" text-anchor="middle" fill="#000000">S</text>
  <text x="157.00" y="121.50" font-size="2.0" font-family="monospace" text-anchor="middle" fill="#000000">S</text>
  <text x="162.00" y="119.50" font-size="2.0" font-family="monospace" text-anchor="middle" fill="#000000">H</text>
  <text x="162.00" y="122.50" font-size="2.0" font-family="monospace" text-anchor="middle" fill="#000000">S</text>
  <text x="167.00" y="121.50" font-size="2.0" font-family="monospace" text-anchor="middle" fill="#000000">S</text>
  <text x="172.00" y="119.50" font-size="2.0" font-family="monospace" text-anchor="middle" fill="#000000">H</text>
  <text x="172.00" y="122.50" font-size="2.0" font-family="monospace" text-anchor="middle" fill="#000000">S</text>
  <text x="177.00" y="121.50" font-size="2.0" font-family="monospace" text-anchor="middle" fill="#000000">S</text>
  <text x="182.00" y="119.50" font-size="2.0" font-family="monospace" text-anchor="middle" fill="#000000">H</text>
  <text x="182.00" y="122.50" font-size="2.0" font-family="monospace" text-anchor="middle" fill="#000000">S</text>
  <text x="187.00" y="121.50" font-size="2.0" font-family="monospace" text-anchor="middle" fill="#000000">S</text>
  <text x="192.00" y="119.50" font-size="2.0" font-family="monospace" text-anchor="middle" fill="#000000">H</text>
  <text x="192.00" y="122.50" font-size="2.0" font-family="monospace" text-anchor="middle" fill="#000000">S</text>
  <text x="197.00" y="121.50" font-size="2.0" font-family="monospace" text-anchor="middle" fill="#000000">S</text>
  <text x="202.00" y="119.50" font-size="2.0" font-family="monospace" text-anchor="middle" fill="#000000">H</text>
  <text x="202.00" y="122.50" font-size="2.0" font-family="monospace" text-anchor="middle" fill="#000000">S</text>
  <text x="207.00" y="121.50" font-size="2.0" font-family="monospace" text-anchor="middle" fill="#000000">S</text>
  <text x="212.00" y="119.50" font-size="2.0" font-family="monospace" text-anchor="middle" fill="#000000">H</text>
  <text x="212.00" y="122.50" font-size="2.0" font-family="monospace" text-anchor="middle" fill="#000000">S</text>
  <text x="217.00" y="121.50" font-size="2.0" font-family="monospace" text-anchor="middle" fill="#000000">S</text>
  <text x="222.00" y="119.50" font-size="2.0" font-family="monospace" text-anchor="middle" fill="#000000">H</text>
  <text x="222.00" y="122.50" font-size="2.0" font-family="monospace" text-anchor="middle" fill="#000000">S</text>
  <text x="227.00" y="121.50" font-size="2.0" font-family="monospace" text-anchor="middle" fill="#000000">S</text>
  <text x="232.00" y="119.50" font-size="2.0" font-family="monospace" text-anchor="middle" fill="#000000">H</text>
  <text x="232.00" y="122.50" font-size="2.0" font-family="monospace" text-anchor="middle" fill="#000000">S</text>
  <text x="237.00" y="121.50" font-size="2.0" font-family="monospace" text-anchor="middle" fill="#000000">S</text>
  <text x="242.00" y="119.50" font-size="2.0" font-family="monospace" text-anchor="middle" fill="#000000">H</text>
  <text x="242.00" y="122.50" font-size="2.0" font-family="monospace" text-anchor="middle" fill="#000000">S</text>
  <text x="247.00" y="121.50" font-size="2.0" font-family="monospace" text-anchor="middle" fill="#000000">S</text>
  <text x="252.00" y="119.50" font-size="2.0" font-family="monospace" text-anchor="middle" fill="#000000">H</text>
  <text x="252.00" y="122.50" font-size="2.0" font-family="monospace" text-anchor="middle" fill="#000000">S</text>
  <text x="257.00" y="121.50" font-size="2.0" font-family="monospace" text-anchor="middle" fill="#000000">S</text>
  <text x="262.00" y="119.50" font-size="2.0" font-family="monospace" text-anchor="middle" fill="#000000">H</text>
  <text x="262.00" y="122.50" font-size="2.0" font-family="monospace" text-anchor="middle" fill="#000000">S</text>
  <text x="267.00" y="121.50" font-size="2.0" font-family="monospace" text-anchor="middle" fill="#000000">S</text>
  <text x="272.00" y="119.50" font-size="2.0" font-family="monospace" text-anchor="middle" fill="#000000">H</text>
  <text x="272.00" y="122.50" font-size="2.0" font-family="monospace" text-anchor="middle" fill="#000000">S</text>
  <text x="277.00" y="121.50" font-size="2.0" font-family="monospace" text-anchor="middle" fill="#000000">S</text>
  <text x="282.00" y="119.50" font-size="2.0" font-family="monospace" text-anchor="middle" fill="#000000">H</text>
  <text x="282.00" y="122.50" font-size="2.0" font-family="monospace" text-anchor="middle" fill="#000000">S</text>
  <text x="287.00" y="121.50" font-size="2.0" font-family="monospace" text-anchor="middle" fill="#000000">S</text>
  <text x="292.00" y="119.50" font-size="2.0" font-family="monospace" text-anchor="middle" fill="#000000">H</text>
  <text x="292.00" y="122.50" font-size="2.0" font-family="monospace" text-anchor="middle" fill="#000000">S</text>
  <text x="297.00" y="121.50" font-size="2.0" font-family="monospace" text-anchor="middle" fill="#000000">S</text>
  <text x="302.00" y="119.50" font-size="2.0" font-family="monospace" text-anchor="middle" fill="#000000">H</text>
  <text x="302.00" y="122.50" font-size="2.0" font-family="monospace" text-anchor="middle" fill="#000000">S</text>
  <text x="307.00" y="121.50" font-size="2.0" font-family="monospace" text-anchor="middle" fill="#000000">S</text>
  <text x="312.00" y="119.50" font-size="2.0" font-family="monospace" text-anchor="middle" fill="#000000">H</text>
  <text x="312.00" y="122.50" font-size="2.0" font-family="monospace" text-anchor="middle" fill="#000000">S</text>
  <text x="317.00" y="121.50" font-size="2.0" font-family="monospace" text-anchor="middle" fill="#000000">S</text>
  <text x="322.00" y="119.50" font-size="2.0" font-family="monospace" text-anchor="middle" fill="#000000">H</text>
  <text x="322.00" y="122.50" font-size="2.0" font-family="monospace" text-anchor="middle" fill="#000000">S</text>
  <text x="327.00" y="121.50" font-size="2.0" font-family="monospace" text-anchor="middle" fill="#000000">S</text>
  <text x="332.00" y="119.50" font-size="2.0" font-family="monospace" text-anchor="middle" fill="#000000">H</text>
  <text x="332.00" y="122.50" font-size="2.0" font-family="monospace" text-anchor="middle" fill="#000000">S</text>
  <text x="337.00" y="121.50" font-size="2.0" font-family="monospace" text-anchor="middle" fill="#000000">S</text>
  <text x="342.00" y="119.50" font-size="2.0" font-family="monospace" text-anchor="middle" fill="#000000">H</text>
  <text x="342.00" y="122.50" font-size="2.0" font-family="monospace" text-anchor="middle" fill="#000000">S</text>
  <text x="347.00" y="121.50" font-size="2.0" font-family="monospace" text-anchor="middle" fill="#000000">S</text>
  <text x="352.00" y="119.50" font-size="2.0" font-family="monospace" text-anchor="middle" fill="#000000">H</text>
  <text x="352.00" y="122.50" font-size="2.0" font-family="monospace" text-anchor="middle" fill="#000000">S</text>
  <text x="357.00" y="121.50" font-size="2.0" font-family="monospace" text-anchor="middle" fill="#000000">S</text>
  <text x="362.00" y="119.50" font-size="2.0" font-family="monospace" text-anchor="middle" fill="#000000">H</text>
  <text x="362.00" y="122.50" font-size="2.0" font-family="monospace" text-anchor="middle" fill="#000000">S</text>
</g>

<g id="shuttle_1">
  <path id="shuttle_1_outer" d="M 72.0000,126.0000 L 208.0000,126.0000 L 229.5257,133.1752 A 0.5000,0.5000 0 0,1 229.6464,133.6869 L 223.6869,139.6464 A 0.5000,0.5000 0 0,0 223.6869,140.3536 L 229.6464,146.3131 A 0.5000,0.5000 0 0,1 229.5257,146.8248 L 208.0000,154.0000 L 72.0000,154.0000 L 50.4743,146.8248 A 0.5000,0.5000 0 0,1 50.3536,146.3131 L 56.3131,140.3536 A 0.5000,0.5000 0 0,0 56.3131,139.6464 L 50.3536,133.6869 A 0.5000,0.5000 0 0,1 50.4743,133.1752 L 72.0000,126.0000 Z" fill="none" stroke="#ff0000" stroke-width="0.3"/>
  <path id="shuttle_1_hole0" d="M 203.0000,140.0000 A 63.0000,6.0000 0 1,0 77.0000,140.0000 A 63.0000,6.0000 0 1,0 203.0000,140.0000 Z" fill="none" stroke="#ff0000" stroke-width="0.3"/>
  <text x="140.00" y="132.00" font-size="4.0" font-family="monospace" text-anchor="middle" fill="#000000">SHUTTLE 1</text>
</g>

<g id="shuttle_2">
  <path id="shuttle_2_outer" d="M 72.0000,156.0000 L 208.0000,156.0000 L 229.5257,163.1752 A 0.5000,0.5000 0 0,1 229.6464,163.6869 L 223.6869,169.6464 A 0.5000,0.5000 0 0,0 223.6869,170.3536 L 229.6464,176.3131 A 0.5000,0.5000 0 0,1 229.5257,176.8248 L 208.0000,184.0000 L 72.0000,184.0000 L 50.4743,176.8248 A 0.5000,0.5000 0 0,1 50.3536,176.3131 L 56.3131,170.3536 A 0.5000,0.5000 0 0,0 56.3131,169.6464 L 50.3536,163.6869 A 0.5000,0.5000 0 0,1 50.4743,163.1752 L 72.0000,156.0000 Z" fill="none" stroke="#ff0000" stroke-width="0.3"/>
  <path id="shuttle_2_hole0" d="M 203.0000,170.0000 A 63.0000,6.0000 0 1,0 77.0000,170.0000 A 63.0000,6.0000 0 1,0 203.0000,170.0000 Z" fill="none" stroke="#ff0000" stroke-width="0.3"/>
  <text x="140.00" y="162.00" font-size="4.0" font-family="monospace" text-anchor="middle" fill="#000000">SHUTTLE 2</text>
</g>

<g id="beater">
  <path id="beater_outer" d="M 50.5000,186.0000 L 359.5000,186.0000 A 0.5000,0.5000 0 0,1 360.0000,186.5000 L 360.0000,207.5000 A 0.5000,0.5000 0 0,1 359.5000,208.0000 L 354.0000,208.0000 A 0.5000,0.5000 0 0,0 353.5000,208.5000 L 353.5000,227.5000 A 0.5000,0.5000 0 0,1 353.0000,228.0000 L 352.0000,228.0000 A 0.5000,0.5000 0 0,1 351.5000,227.5000 L 351.5000,208.5000 A 0.5000,0.5000 0 0,0 351.0000,208.0000 L 349.0000,208.0000 A 0.5000,0.5000 0 0,0 348.5000,208.5000 L 348.5000,227.5000 A 0.5000,0.5000 0 0,1 348.0000,228.0000 L 347.0000,228.0000 A 0.5000,0.5000 0 0,1 346.5000,227.5000 L 346.5000,208.5000 A 0.5000,0.5000 0 0,0 346.0000,208.0000 L 344.0000,208.0000 A 0.5000,0.5000 0 0,0 343.5000,208.5000 L 343.5000,227.5000 A 0.5000,0.5000 0 0,1 343.0000,228.0000 L 342.0000,228.0000 A 0.5000,0.5000 0 0,1 341.5000,227.5000 L 341.5000,208.5000 A 0.5000,0.5000 0 0,0 341.0000,208.0000 L 339.0000,208.0000 A 0.5000,0.5000 0 0,0 338.5000,208.5000 L 338.5000,227.5000 A 0.5000,0.5000 0 0,1 338.0000,228.0000 L 337.0000,228.0000 A 0.5000,0.5000 0 0,1 336.5000,227.5000 L 336.5000,208.5000 A 0.5000,0.5000 0 0,0 336.0000,208.0000 L 334.0000,208.0000 A 0.5000,0.5000 0 0,0 333.5000,208.5000 L 333.5000,227.5000 A 0.5000,0.5000 0 0,1 333.0000,228.0000 L 332.0000,228.0000 A 0.5000,0.5000 0 0,1 331.5000,227.5000 L 331.5000,208.5000 A 0.5000,0.5000 0 0,0 331.0000,208.0000 L 329.0000,208.0000 A 0.5000,0.5000 0 0,0 328.5000,208.5000 L 328.5000,227.5000 A 0.5000,0.5000 0 0,1 328.0000,228.0000 L 327.0000,228.0000 A 0.5000,0.5000 0 0,1 326.5000,227.5000 L 326.5000,208.5000 A 0.5000,0.5000 0 0,0 326.0000,208.0000 L 324.0000,208.0000 A 0.5000,0.5000 0 0,0 323.5000,208.5000 L 323.5000,227.5000 A 0.5000,0.5000 0 0,1 323.0000,228.0000 L 322.0000,228.0000 A 0.5000,0.5000 0 0,1 321.5000,227.5000 L 321.5000,208.5000 A 0.5000,0.5000 0 0,0 321.0000,208.0000 L 319.0000,208.0000 A 0.5000,0.5000 0 0,0 318.5000,208.5000 L 318.5000,227.5000 A 0.5000,0.5000 0 0,1 318.0000,228.0000 L 317.0000,228.0000 A 0.5000,0.5000 0 0,1 316.5000,227.5000 L 316.5000,208.5000 A 0.5000,0.5000 0 0,0 316.0000,208.0000 L 314.0000,208.0000 A 0.5000,0.5000 0 0,0 313.5000,208.5000 L 313.5000,227.5000 A 0.5000,0.5000 0 0,1 313.0000,228.0000 L 312.0000,228.0000 A 0.5000,0.5000 0 0,1 311.5000,227.5000 L 311.5000,208.5000 A 0.5000,0.5000 0 0,0 311.0000,208.0000 L 309.0000,208.0000 A 0.5000,0.5000 0 0,0 308.5000,208.5000 L 308.5000,227.5000 A 0.5000,0.5000 0 0,1 308.0000,228.0000 L 307.0000,228.0000 A 0.5000,0.5000 0 0,1 306.5000,227.5000 L 306.5000,208.5000 A 0.5000,0.5000 0 0,0 306.0000,208.0000 L 304.0000,208.0000 A 0.5000,0.5000 0 0,0 303.5000,208.5000 L 303.5000,227.5000 A 0.5000,0.5000 0 0,1 303.0000,228.0000 L 302.0000,228.0000 A 0.5000,0.5000 0 0,1 301.5000,227.5000 L 301.5000,208.5000 A 0.5000,0.5000 0 0,0 301.0000,208.0000 L 299.0000,208.0000 A 0.5000,0.5000 0 0,0 298.5000,208.5000 L 298.5000,227.5000 A 0.5000,0.5000 0 0,1 298.0000,228.0000 L 297.0000,228.0000 A 0.5000,0.5000 0 0,1 296.5000,227.5000 L 296.5000,208.5000 A 0.5000,0.5000 0 0,0 296.0000,208.0000 L 294.0000,208.0000 A 0.5000,0.5000 0 0,0 293.5000,208.5000 L 293.5000,227.5000 A 0.5000,0.5000 0 0,1 293.0000,228.0000 L 292.0000,228.0000 A 0.5000,0.5000 0 0,1 291.5000,227.5000 L 291.5000,208.5000 A 0.5000,0.5000 0 0,0 291.0000,208.0000 L 289.0000,208.0000 A 0.5000,0.5000 0 0,0 288.5000,208.5000 L 288.5000,227.5000 A 0.5000,0.5000 0 0,1 288.0000,228.0000 L 287.0000,228.0000 A 0.5000,0.5000 0 0,1 286.5000,227.5000 L 286.5000,208.5000 A 0.5000,0.5000 0 0,0 286.0000,208.0000 L 284.0000,208.0000 A 0.5000,0.5000 0 0,0 283.5000,208.5000 L 283.5000,227.5000 A 0.5000,0.5000 0 0,1 283.0000,228.0000 L 282.0000,228.0000 A 0.5000,0.5000 0 0,1 281.5000,227.5000 L 281.5000,208.5000 A 0.5000,0.5000 0 0,0 281.0000,208.0000 L 279.0000,208.0000 A 0.5000,0.5000 0 0,0 278.5000,208.5000 L 278.5000,227.5000 A 0.5000,0.5000 0 0,1 278.0000,228.0000 L 277.0000,228.0000 A 0.5000,0.5000 0 0,1 276.5000,227.5000 L 276.5000,208.5000 A 0.5000,0.5000 0 0,0 276.0000,208.0000 L 274.0000,208.0000 A 0.5000,0.5000 0 0,0 273.5000,208.5000 L 273.5000,227.5000 A 0.5000,0.5000 0 0,1 273.0000,228.0000 L 272.0000,228.0000 A 0.5000,0.5000 0 0,1 271.5000,227.5000 L 271.5000,208.5000 A 0.5000,0.5000 0 0,0 271.0000,208.0000 L 269.0000,208.0000 A 0.5000,0.5000 0 0,0 268.5000,208.5000 L 268.5000,227.5000 A 0.5000,0.5000 0 0,1 268.0000,228.0000 L 267.0000,228.0000 A 0.5000,0.5000 0 0,1 266.5000,227.5000 L 266.5000,208.5000 A 0.5000,0.5000 0 0,0 266.0000,208.0000 L 264.0000,208.0000 A 0.5000,0.5000 0 0,0 263.5000,208.5000 L 263.5000,227.5000 A 0.5000,0.5000 0 0,1 263.0000,228.0000 L 262.0000,228.0000 A 0.5000,0.5000 0 0,1 261.5000,227.5000 L 261.5000,208.5000 A 0.5000,0.5000 0 0,0 261.0000,208.0000 L 259.0000,208.0000 A 0.5000,0.5000 0 0,0 258.5000,208.5000 L 258.5000,227.5000 A 0.5000,0.5000 0 0,1 258.0000,228.0000 L 257.0000,228.0000 A 0.5000,0.5000 0 0,1 256.5000,227.5000 L 256.5000,208.5000 A 0.5000,0.5000 0 0,0 256.0000,208.0000 L 254.0000,208.0000 A 0.5000,0.5000 0 0,0 253.5000,208.5000 L 253.5000,227.5000 A 0.5000,0.5000 0 0,1 253.0000,228.0000 L 252.0000,228.0000 A 0.5000,0.5000 0 0,1 251.5000,227.5000 L 251.5000,208.5000 A 0.5000,0.5000 0 0,0 251.0000,208.0000 L 249.0000,208.0000 A 0.5000,0.5000 0 0,0 248.5000,208.5000 L 248.5000,227.5000 A 0.5000,0.5000 0 0,1 248.0000,228.0000 L 247.0000,228.0000 A 0.5000,0.5000 0 0,1 246.5000,227.5000 L 246.5000,208.5000 A 0.5000,0.5000 0 0,0 246.0000,208.0000 L 244.0000,208.0000 A 0.5000,0.5000 0 0,0 243.5000,208.5000 L 243.5000,227.5000 A 0.5000,0.5000 0 0,1 243.0000,228.0000 L 242.0000,228.0000 A 0.5000,0.5000 0 0,1 241.5000,227.5000 L 241.5000,208.5000 A 0.5000,0.5000 0 0,0 241.0000,208.0000 L 239.0000,208.0000 A 0.5000,0.5000 0 0,0 238.5000,208.5000 L 238.5000,227.5000 A 0.5000,0.5000 0 0,1 238.0000,228.0000 L 237.0000,228.0000 A 0.5000,0.5000 0 0,1 236.5000,227.5000 L 236.5000,208.5000 A 0.5000,0.5000 0 0,0 236.0000,208.0000 L 234.0000,208.0000 A 0.5000,0.5000 0 0,0 233.5000,208.5000 L 233.5000,227.5000 A 0.5000,0.5000 0 0,1 233.0000,228.0000 L 232.0000,228.0000 A 0.5000,0.5000 0 0,1 231.5000,227.5000 L 231.5000,208.5000 A 0.5000,0.5000 0 0,0 231.0000,208.0000 L 229.0000,208.0000 A 0.5000,0.5000 0 0,0 228.5000,208.5000 L 228.5000,227.5000 A 0.5000,0.5000 0 0,1 228.0000,228.0000 L 227.0000,228.0000 A 0.5000,0.5000 0 0,1 226.5000,227.5000 L 226.5000,208.5000 A 0.5000,0.5000 0 0,0 226.0000,208.0000 L 224.0000,208.0000 A 0.5000,0.5000 0 0,0 223.5000,208.5000 L 223.5000,227.5000 A 0.5000,0.5000 0 0,1 223.0000,228.0000 L 222.0000,228.0000 A 0.5000,0.5000 0 0,1 221.5000,227.5000 L 221.5000,208.5000 A 0.5000,0.5000 0 0,0 221.0000,208.0000 L 219.0000,208.0000 A 0.5000,0.5000 0 0,0 218.5000,208.5000 L 218.5000,227.5000 A 0.5000,0.5000 0 0,1 218.0000,228.0000 L 217.0000,228.0000 A 0.5000,0.5000 0 0,1 216.5000,227.5000 L 216.5000,208.5000 A 0.5000,0.5000 0 0,0 216.0000,208.0000 L 214.0000,208.0000 A 0.5000,0.5000 0 0,0 213.5000,208.5000 L 213.5000,227.5000 A 0.5000,0.5000 0 0,1 213.0000,228.0000 L 212.0000,228.0000 A 0.5000,0.5000 0 0,1 211.5000,227.5000 L 211.5000,208.5000 A 0.5000,0.5000 0 0,0 211.0000,208.0000 L 209.0000,208.0000 A 0.5000,0.5000 0 0,0 208.5000,208.5000 L 208.5000,227.5000 A 0.5000,0.5000 0 0,1 208.0000,228.0000 L 207.0000,228.0000 A 0.5000,0.5000 0 0,1 206.5000,227.5000 L 206.5000,208.5000 A 0.5000,0.5000 0 0,0 206.0000,208.0000 L 204.0000,208.0000 A 0.5000,0.5000 0 0,0 203.5000,208.5000 L 203.5000,227.5000 A 0.5000,0.5000 0 0,1 203.0000,228.0000 L 202.0000,228.0000 A 0.5000,0.5000 0 0,1 201.5000,227.5000 L 201.5000,208.5000 A 0.5000,0.5000 0 0,0 201.0000,208.0000 L 199.0000,208.0000 A 0.5000,0.5000 0 0,0 198.5000,208.5000 L 198.5000,227.5000 A 0.5000,0.5000 0 0,1 198.0000,228.0000 L 197.0000,228.0000 A 0.5000,0.5000 0 0,1 196.5000,227.5000 L 196.5000,208.5000 A 0.5000,0.5000 0 0,0 196.0000,208.0000 L 194.0000,208.0000 A 0.5000,0.5000 0 0,0 193.5000,208.5000 L 193.5000,227.5000 A 0.5000,0.5000 0 0,1 193.0000,228.0000 L 192.0000,228.0000 A 0.5000,0.5000 0 0,1 191.5000,227.5000 L 191.5000,208.5000 A 0.5000,0.5000 0 0,0 191.0000,208.0000 L 189.0000,208.0000 A 0.5000,0.5000 0 0,0 188.5000,208.5000 L 188.5000,227.5000 A 0.5000,0.5000 0 0,1 188.0000,228.0000 L 187.0000,228.0000 A 0.5000,0.5000 0 0,1 186.5000,227.5000 L 186.5000,208.5000 A 0.5000,0.5000 0 0,0 186.0000,208.0000 L 184.0000,208.0000 A 0.5000,0.5000 0 0,0 183.5000,208.5000 L 183.5000,227.5000 A 0.5000,0.5000 0 0,1 183.0000,228.0000 L 182.0000,228.0000 A 0.5000,0.5000 0 0,1 181.5000,227.5000 L 181.5000,208.5000 A 0.5000,0.5000 0 0,0 181.0000,208.0000 L 179.0000,208.0000 A 0.5000,0.5000 0 0,0 178.5000,208.5000 L 178.5000,227.5000 A 0.5000,0.5000 0 0,1 178.0000,228.0000 L 177.0000,228.0000 A 0.5000,0.5000 0 0,1 176.5000,227.5000 L 176.5000,208.5000 A 0.5000,0.5000 0 0,0 176.0000,208.0000 L 174.0000,208.0000 A 0.5000,0.5000 0 0,0 173.5000,208.5000 L 173.5000,227.5000 A 0.5000,0.5000 0 0,1 173.0000,228.0000 L 172.0000,228.0000 A 0.5000,0.5000 0 0,1 171.5000,227.5000 L 171.5000,208.5000 A 0.5000,0.5000 0 0,0 171.0000,208.0000 L 169.0000,208.0000 A 0.5000,0.5000 0 0,0 168.5000,208.5000 L 168.5000,227.5000 A 0.5000,0.5000 0 0,1 168.0000,228.0000 L 167.0000,228.0000 A 0.5000,0.5000 0 0,1 166.5000,227.5000 L 166.5000,208.5000 A 0.5000,0.5000 0 0,0 166.0000,208.0000 L 164.0000,208.0000 A 0.5000,0.5000 0 0,0 163.5000,208.5000 L 163.5000,227.5000 A 0.5000,0.5000 0 0,1 163.0000,228.0000 L 162.0000,228.0000 A 0.5000,0.5000 0 0,1 161.5000,227.5000 L 161.5000,208.5000 A 0.5000,0.5000 0 0,0 161.0000,208.0000 L 159.0000,208.0000 A 0.5000,0.5000 0 0,0 158.5000,208.5000 L 158.5000,227.5000 A 0.5000,0.5000 0 0,1 158.0000,228.0000 L 157.0000,228.0000 A 0.5000,0.5000 0 0,1 156.5000,227.5000 L 156.5000,208.5000 A 0.5000,0.5000 0 0,0 156.0000,208.0000 L 154.0000,208.0000 A 0.5000,0.5000 0 0,0 153.5000,208.5000 L 153.5000,227.5000 A 0.5000,0.5000 0 0,1 153.0000,228.0000 L 152.0000,228.0000 A 0.5000,0.5000 0 0,1 151.5000,227.5000 L 151.5000,208.5000 A 0.5000,0.5000 0 0,0 151.0000,208.0000 L 149.0000,208.0000 A 0.5000,0.5000 0 0,0 148.5000,208.5000 L 148.5000,227.5000 A 0.5000,0.5000 0 0,1 148.0000,228.0000 L 147.0000,228.0000 A 0.5000,0.5000 0 0,1 146.5000,227.5000 L 146.5000,208.5000 A 0.5000,0.5000 0 0,0 146.0000,208.0000 L 144.0000,208.0000 A 0.5000,0.5000 0 0,0 143.5000,208.5000 L 143.5000,227.5000 A 0.5000,0.5000 0 0,1 143.0000,228.0000 L 142.0000,228.0000 A 0.5000,0.5000 0 0,1 141.5000,227.5000 L 141.5000,208.5000 A 0.5000,0.5000 0 0,0 141.0000,208.0000 L 139.0000,208.0000 A 0.5000,0.5000 0 0,0 138.5000,208.5000 L 138.5000,227.5000 A 0.5000,0.5000 0 0,1 138.0000,228.0000 L 137.0000,228.0000 A 0.5000,0.5000 0 0,1 136.5000,227.5000 L 136.5000,208.5000 A 0.5000,0.5000 0 0,0 136.0000,208.0000 L 134.0000,208.0000 A 0.5000,0.5000 0 0,0 133.5000,208.5000 L 133.5000,227.5000 A 0.5000,0.5000 0 0,1 133.0000,228.0000 L 132.0000,228.0000 A 0.5000,0.5000 0 0,1 131.5000,227.5000 L 131.5000,208.5000 A 0.5000,0.5000 0 0,0 131.0000,208.0000 L 129.0000,208.0000 A 0.5000,0.5000 0 0,0 128.5000,208.5000 L 128.5000,227.5000 A 0.5000,0.5000 0 0,1 128.0000,228.0000 L 127.0000,228.0000 A 0.5000,0.5000 0 0,1 126.5000,227.5000 L 126.5000,208.5000 A 0.5000,0.5000 0 0,0 126.0000,208.0000 L 124.0000,208.0000 A 0.5000,0.5000 0 0,0 123.5000,208.5000 L 123.5000,227.5000 A 0.5000,0.5000 0 0,1 123.0000,228.0000 L 122.0000,228.0000 A 0.5000,0.5000 0 0,1 121.5000,227.5000 L 121.5000,208.5000 A 0.5000,0.5000 0 0,0 121.0000,208.0000 L 119.0000,208.0000 A 0.5000,0.5000 0 0,0 118.5000,208.5000 L 118.5000,227.5000 A 0.5000,0.5000 0 0,1 118.0000,228.0000 L 117.0000,228.0000 A 0.5000,0.5000 0 0,1 116.5000,227.5000 L 116.5000,208.5000 A 0.5000,0.5000 0 0,0 116.0000,208.0000 L 114.0000,208.0000 A 0.5000,0.5000 0 0,0 113.5000,208.5000 L 113.5000,227.5000 A 0.5000,0.5000 0 0,1 113.0000,228.0000 L 112.0000,228.0000 A 0.5000,0.5000 0 0,1 111.5000,227.5000 L 111.5000,208.5000 A 0.5000,0.5000 0 0,0 111.0000,208.0000 L 109.0000,208.0000 A 0.5000,0.5000 0 0,0 108.5000,208.5000 L 108.5000,227.5000 A 0.5000,0.5000 0 0,1 108.0000,228.0000 L 107.0000,228.0000 A 0.5000,0.5000 0 0,1 106.5000,227.5000 L 106.5000,208.5000 A 0.5000,0.5000 0 0,0 106.0000,208.0000 L 104.0000,208.0000 A 0.5000,0.5000 0 0,0 103.5000,208.5000 L 103.5000,227.5000 A 0.5000,0.5000 0 0,1 103.0000,228.0000 L 102.0000,228.0000 A 0.5000,0.5000 0 0,1 101.5000,227.5000 L 101.5000,208.5000 A 0.5000,0.5000 0 0,0 101.0000,208.0000 L 99.0000,208.0000 A 0.5000,0.5000 0 0,0 98.5000,208.5000 L 98.5000,227.5000 A 0.5000,0.5000 0 0,1 98.0000,228.0000 L 97.0000,228.0000 A 0.5000,0.5000 0 0,1 96.5000,227.5000 L 96.5000,208.5000 A 0.5000,0.5000 0 0,0 96.0000,208.0000 L 94.0000,208.0000 A 0.5000,0.5000 0 0,0 93.5000,208.5000 L 93.5000,227.5000 A 0.5000,0.5000 0 0,1 93.0000,228.0000 L 92.0000,228.0000 A 0.5000,0.5000 0 0,1 91.5000,227.5000 L 91.5000,208.5000 A 0.5000,0.5000 0 0,0 91.0000,208.0000 L 89.0000,208.0000 A 0.5000,0.5000 0 0,0 88.5000,208.5000 L 88.5000,227.5000 A 0.5000,0.5000 0 0,1 88.0000,228.0000 L 87.0000,228.0000 A 0.5000,0.5000 0 0,1 86.5000,227.5000 L 86.5000,208.5000 A 0.5000,0.5000 0 0,0 86.0000,208.0000 L 84.0000,208.0000 A 0.5000,0.5000 0 0,0 83.5000,208.5000 L 83.5000,227.5000 A 0.5000,0.5000 0 0,1 83.0000,228.0000 L 82.0000,228.0000 A 0.5000,0.5000 0 0,1 81.5000,227.5000 L 81.5000,208.5000 A 0.5000,0.5000 0 0,0 81.0000,208.0000 L 79.0000,208.0000 A 0.5000,0.5000 0 0,0 78.5000,208.5000 L 78.5000,227.5000 A 0.5000,0.5000 0 0,1 78.0000,228.0000 L 77.0000,228.0000 A 0.5000,0.5000 0 0,1 76.5000,227.5000 L 76.5000,208.5000 A 0.5000,0.5000 0 0,0 76.0000,208.0000 L 74.0000,208.0000 A 0.5000,0.5000 0 0,0 73.5000,208.5000 L 73.5000,227.5000 A 0.5000,0.5000 0 0,1 73.0000,228.0000 L 72.0000,228.0000 A 0.5000,0.5000 0 0,1 71.5000,227.5000 L 71.5000,208.5000 A 0.5000,0.5000 0 0,0 71.0000,208.0000 L 69.0000,208.0000 A 0.5000,0.5000 0 0,0 68.5000,208.5000 L 68.5000,227.5000 A 0.5000,0.5000 0 0,1 68.0000,228.0000 L 67.0000,228.0000 A 0.5000,0.5000 0 0,1 66.5000,227.5000 L 66.5000,208.5000 A 0.5000,0.5000 0 0,0 66.0000,208.0000 L 64.0000,208.0000 A 0.5000,0.5000 0 0,0 63.5000,208.5000 L 63.5000,227.5000 A 0.5000,0.5000 0 0,1 63.0000,228.0000 L 62.0000,228.0000 A 0.5000,0.5000 0 0,1 61.5000,227.5000 L 61.5000,208.5000 A 0.5000,0.5000 0 0,0 61.0000,208.0000 L 59.0000,208.0000 A 0.5000,0.5000 0 0,0 58.5000,208.5000 L 58.5000,227.5000 A 0.5000,0.5000 0 0,1 58.0000,228.0000 L 57.0000,228.0000 A 0.5000,0.5000 0 0,1 56.5000,227.5000 L 56.5000,208.5000 A 0.5000,0.5000 0 0,0 56.0000,208.0000 L 50.5000,208.0000 A 0.5000,0.5000 0 0,1 50.0000,207.5000 L 50.0000,186.5000 A 0.5000,0.5000 0 0,1 50.5000,186.0000 Z" fill="none" stroke="#ff0000" stroke-width="0.3"/>
  <path id="beater_hole0" d="M 135.5000,197.0000 A 8.0000,3.5000 0 1,0 119.5000,197.0000 A 8.0000,3.5000 0 1,0 135.5000,197.0000 Z" fill="none" stroke="#ff0000" stroke-width="0.3"/>
  <path id="beater_hole1" d="M 213.0000,197.0000 A 8.0000,3.5000 0 1,0 197.0000,197.0000 A 8.0000,3.5000 0 1,0 213.0000,197.0000 Z" fill="none" stroke="#ff0000" stroke-width="0.3"/>
  <path id="beater_hole2" d="M 290.5000,197.0000 A 8.0000,3.5000 0 1,0 274.5000,197.0000 A 8.0000,3.5000 0 1,0 290.5000,197.0000 Z" fill="none" stroke="#ff0000" stroke-width="0.3"/>
  <text x="205.00" y="207.00" font-size="4.0" font-family="monospace" text-anchor="middle" fill="#000000">BEATER</text>
</g>

</svg>