<?xml version="1.0" encoding="UTF-8"?>
<svg xmlns="http://www.w3.org/2000/svg"
     viewBox="0 0 600.0 600.0"
     width="600.0mm" height="600.0mm">
  <!-- FRAME LOOM v6 | 6mm BIRCH PLY 600x600mm | RED=CUT preview 0.1mm — change to 0.01mm for laser -->
  <rect x="0" y="0" width="600.0" height="600.0" fill="#faf8f4" stroke="#aaaaaa" stroke-width="0.3"/>

<g id="crossbar_1">
  <path id="crossbar_1_outer" d="M 2.0000,2.0000 L 302.0000,2.0000 L 302.0000,22.0000 L 2.0000,22.0000 Z" fill="none" stroke="#ff0000" stroke-width="0.1"/>
  <text x="152.00" y="12.00" font-size="4.0" font-family="monospace" text-anchor="middle" fill="#000000">CROSSBAR 1</text>
</g>

<g id="crossbar_2">
  <path id="crossbar_2_outer" d="M 2.0000,24.0000 L 302.0000,24.0000 L 302.0000,44.0000 L 2.0000,44.0000 Z" fill="none" stroke="#ff0000" stroke-width="0.1"/>
  <text x="152.00" y="34.00" font-size="4.0" font-family="monospace" text-anchor="middle" fill="#000000">CROSSBAR 2</text>
</g>

<g id="top_rail">
  <path id="top_rail_outer" d="M 2.0000,46.0000 L 346.0000,46.0000 L 346.0000,53.2833 L 340.0000,53.2833 L 340.0000,60.7167 L 346.0000,60.7167 L 346.0000,68.0000 L 326.0000,68.0000 L 326.0000,73.0000 L 322.0000,73.0000 L 322.0000,68.0000 L 316.0000,68.0000 L 316.0000,73.0000 L 312.0000,73.0000 L 312.0000,68.0000 L 306.0000,68.0000 L 306.0000,73.0000 L 302.0000,73.0000 L 302.0000,68.0000 L 296.0000,68.0000 L 296.0000,73.0000 L 292.0000,73.0000 L 292.0000,68.0000 L 286.0000,68.0000 L 286.0000,73.0000 L 282.0000,73.0000 L 282.0000,68.0000 L 276.0000,68.0000 L 276.0000,73.0000 L 272.0000,73.0000 L 272.0000,68.0000 L 266.0000,68.0000 L 266.0000,73.0000 L 262.0000,73.0000 L 262.0000,68.0000 L 256.0000,68.0000 L 256.0000,73.0000 L 252.0000,73.0000 L 252.0000,68.0000 L 246.0000,68.0000 L 246.0000,73.0000 L 242.0000,73.0000 L 242.0000,68.0000 L 236.0000,68.0000 L 236.0000,73.0000 L 232.0000,73.0000 L 232.0000,68.0000 L 226.0000,68.0000 L 226.0000,73.0000 L 222.0000,73.0000 L 222.0000,68.0000 L 216.0000,68.0000 L 216.0000,73.0000 L 212.0000,73.0000 L 212.0000,68.0000 L 206.0000,68.0000 L 206.0000,73.0000 L 202.0000,73.0000 L 202.0000,68.0000 L 196.0000,68.0000 L 196.0000,73.0000 L 192.0000,73.0000 L 192.0000,68.0000 L 186.0000,68.0000 L 186.0000,73.0000 L 182.0000,73.0000 L 182.0000,68.0000 L 176.0000,68.0000 L 176.0000,73.0000 L 172.0000,73.0000 L 172.0000,68.0000 L 166.0000,68.0000 L 166.0000,73.0000 L 162.0000,73.0000 L 162.0000,68.0000 L 156.0000,68.0000 L 156.0000,73.0000 L 152.0000,73.0000 L 152.0000,68.0000 L 146.0000,68.0000 L 146.0000,73.0000 L 142.0000,73.0000 L 142.0000,68.0000 L 136.0000,68.0000 L 136.0000,73.0000 L 132.0000,73.0000 L 132.0000,68.0000 L 126.0000,68.0000 L 126.0000,73.0000 L 122.0000,73.0000 L 122.0000,68.0000 L 116.0000,68.0000 L 116.0000,73.0000 L 112.0000,73.0000 L 112.0000,68.0000 L 106.0000,68.0000 L 106.0000,73.0000 L 102.0000,73.0000 L 102.0000,68.0000 L 96.0000,68.0000 L 96.0000,73.0000 L 92.0000,73.0000 L 92.0000,68.0000 L 86.0000,68.0000 L 86.0000,73.0000 L 82.0000,73.0000 L 82.0000,68.0000 L 76.0000,68.0000 L 76.0000,73.0000 L 72.0000,73.0000 L 72.0000,68.0000 L 66.0000,68.0000 L 66.0000,73.0000 L 62.0000,73.0000 L 62.0000,68.0000 L 56.0000,68.0000 L 56.0000,73.0000 L 52.0000,73.0000 L 52.0000,68.0000 L 46.0000,68.0000 L 46.0000,73.0000 L 42.0000,73.0000 L 42.0000,68.0000 L 36.0000,68.0000 L 36.0000,73.0000 L 32.0000,73.0000 L 32.0000,68.0000 L 26.0000,68.0000 L 26.0000,73.0000 L 22.0000,73.0000 L 22.0000,68.0000 L 2.0000,68.0000 L 2.0000,60.7167 L 8.0000,60.7167 L 8.0000,53.2833 L 2.0000,53.2833 Z" fill="none" stroke="#ff0000" stroke-width="0.1"/>
  <path id="top_rail_hole0" d="M 42.0000,57.0000 A 4.0000,4.0000 0 1,0 34.0000,57.0000 A 4.0000,4.0000 0 1,0 42.0000,57.0000 Z" fill="none" stroke="#ff0000" stroke-width="0.1"/>
  <path id="top_rail_hole1" d="M 314.0000,57.0000 A 4.0000,4.0000 0 1,0 306.0000,57.0000 A 4.0000,4.0000 0 1,0 314.0000,57.0000 Z" fill="none" stroke="#ff0000" stroke-width="0.1"/>
  <text x="174.00" y="59.50" font-size="4.0" font-family="monospace" text-anchor="middle" fill="#000000">TOP RAIL</text>
</g>

<g id="bottom_rail">
  <path id="bottom_rail_outer" d="M 2.0000,75.0000 L 346.0000,75.0000 L 346.0000,82.2833 L 340.0000,82.2833 L 340.0000,89.7167 L 346.0000,89.7167 L 346.0000,97.0000 L 326.0000,97.0000 L 326.0000,102.0000 L 322.0000,102.0000 L 322.0000,97.0000 L 316.0000,97.0000 L 316.0000,102.0000 L 312.0000,102.0000 L 312.0000,97.0000 L 306.0000,97.0000 L 306.0000,102.0000 L 302.0000,102.0000 L 302.0000,97.0000 L 296.0000,97.0000 L 296.0000,102.0000 L 292.0000,102.0000 L 292.0000,97.0000 L 286.0000,97.0000 L 286.0000,102.0000 L 282.0000,102.0000 L 282.0000,97.0000 L 276.0000,97.0000 L 276.0000,102.0000 L 272.0000,102.0000 L 272.0000,97.0000 L 266.0000,97.0000 L 266.0000,102.0000 L 262.0000,102.0000 L 262.0000,97.0000 L 256.0000,97.0000 L 256.0000,102.0000 L 252.0000,102.0000 L 252.0000,97.0000 L 246.0000,97.0000 L 246.0000,102.0000 L 242.0000,102.0000 L 242.0000,97.0000 L 236.0000,97.0000 L 236.0000,102.0000 L 232.0000,102.0000 L 232.0000,97.0000 L 226.0000,97.0000 L 226.0000,102.0000 L 222.0000,102.0000 L 222.0000,97.0000 L 216.0000,97.0000 L 216.0000,102.0000 L 212.0000,102.0000 L 212.0000,97.0000 L 206.0000,97.0000 L 206.0000,102.0000 L 202.0000,102.0000 L 202.0000,97.0000 L 196.0000,97.0000 L 196.0000,102.0000 L 192.0000,102.0000 L 192.0000,97.0000 L 186.0000,97.0000 L 186.0000,102.0000 L 182.0000,102.0000 L 182.0000,97.0000 L 176.0000,97.0000 L 176.0000,102.0000 L 172.0000,102.0000 L 172.0000,97.0000 L 166.0000,97.0000 L 166.0000,102.0000 L 162.0000,102.0000 L 162.0000,97.0000 L 156.0000,97.0000 L 156.0000,102.0000 L 152.0000,102.0000 L 152.0000,97.0000 L 146.0000,97.0000 L 146.0000,102.0000 L 142.0000,102.0000 L 142.0000,97.0000 L 136.0000,97.0000 L 136.0000,102.0000 L 132.0000,102.0000 L 132.0000,97.0000 L 126.0000,97.0000 L 126.0000,102.0000 L 122.0000,102.0000 L 122.0000,97.0000 L 116.0000,97.0000 L 116.0000,102.0000 L 112.0000,102.0000 L 112.0000,97.0000 L 106.0000,97.0000 L 106.0000,102.0000 L 102.0000,102.0000 L 102.0000,97.0000 L 96.0000,97.0000 L 96.0000,102.0000 L 92.0000,102.0000 L 92.0000,97.0000 L 86.0000,97.0000 L 86.0000,102.0000 L 82.0000,102.0000 L 82.0000,97.0000 L 76.0000,97.0000 L 76.0000,102.0000 L 72.0000,102.0000 L 72.0000,97.0000 L 66.0000,97.0000 L 66.0000,102.0000 L 62.0000,102.0000 L 62.0000,97.0000 L 56.0000,97.0000 L 56.0000,102.0000 L 52.0000,102.0000 L 52.0000,97.0000 L 46.0000,97.0000 L 46.0000,102.0000 L 42.0000,102.0000 L 42.0000,97.0000 L 36.0000,97.0000 L 36.0000,102.0000 L 32.0000,102.0000 L 32.0000,97.0000 L 26.0000,97.0000 L 26.0000,102.0000 L 22.0000,102.0000 L 22.0000,97.0000 L 2.0000,97.0000 L 2.0000,89.7167 L 8.0000,89.7167 L 8.0000,82.2833 L 2.0000,82.2833 Z" fill="none" stroke="#ff0000" stroke-width="0.1"/>
  <text x="174.00" y="88.50" font-size="4.0" font-family="monospace" text-anchor="middle" fill="#000000">BOTTOM RAIL</text>
</g>

<g id="stile_L">
  <path id="stile_L_outer" d="M 2.0000,110.0000 L 9.3333,110.0000 L 9.3333,104.0000 L 16.6667,104.0000 L 16.6667,110.0000 L 24.0000,110.0000 L 24.0000,554.0000 L 16.6667,554.0000 L 16.6667,560.0000 L 9.3333,560.0000 L 9.3333,554.0000 L 2.0000,554.0000 Z" fill="none" stroke="#ff0000" stroke-width="0.1"/>
  <path id="stile_L_hole0" d="M 19.0000,255.4500 L 24.0000,255.4500 L 24.0000,275.5500 L 19.0000,275.5500 Z" fill="none" stroke="#ff0000" stroke-width="0.1"/>
  <path id="stile_L_hole1" d="M 19.0000,388.4500 L 24.0000,388.4500 L 24.0000,408.5500 L 19.0000,408.5500 Z" fill="none" stroke="#ff0000" stroke-width="0.1"/>
  <text x="13.00" y="332.00" font-size="4.0" font-family="monospace" text-anchor="middle" fill="#000000">STILE L</text>
</g>

<g id="stile_R">
  <path id="stile_R_outer" d="M 48.0000,110.0000 L 40.6667,110.0000 L 40.6667,104.0000 L 33.3333,104.0000 L 33.3333,110.0000 L 26.0000,110.0000 L 26.0000,554.0000 L 33.3333,554.0000 L 33.3333,560.0000 L 40.6667,560.0000 L 40.6667,554.0000 L 48.0000,554.0000 Z" fill="none" stroke="#ff0000" stroke-width="0.1"/>
  <path id="stile_R_hole0" d="M 26.0000,255.4500 L 31.0000,255.4500 L 31.0000,275.5500 L 26.0000,275.5500 Z" fill="none" stroke="#ff0000" stroke-width="0.1"/>
  <path id="stile_R_hole1" d="M 26.0000,388.4500 L 31.0000,388.4500 L 31.0000,408.5500 L 26.0000,408.5500 Z" fill="none" stroke="#ff0000" stroke-width="0.1"/>
  <text x="37.00" y="332.00" font-size="4.0" font-family="monospace" text-anchor="middle" fill="#000000">STILE R</text>
</g>

<g id="heddle_bar">
  <path id="heddle_bar_outer" d="M 50.0000,104.0000 L 374.0000,104.0000 L 374.0000,124.0000 L 50.0000,124.0000 Z" fill="none" stroke="#ff0000" stroke-width="0.1"/>
  <path id="heddle_bar_hole0" d="M 65.5000,114.0000 A 3.5000,3.5000 0 1,0 58.5000,114.0000 A 3.5000,3.5000 0 1,0 65.5000,114.0000 Z" fill="none" stroke="#ff0000" stroke-width="0.1"/>
  <path id="heddle_bar_hole1" d="M 75.5000,114.0000 A 3.5000,3.5000 0 1,0 68.5000,114.0000 A 3.5000,3.5000 0 1,0 75.5000,114.0000 Z" fill="none" stroke="#ff0000" stroke-width="0.1"/>
  <path id="heddle_bar_hole2" d="M 85.5000,114.0000 A 3.5000,3.5000 0 1,0 78.5000,114.0000 A 3.5000,3.5000 0 1,0 85.5000,114.0000 Z" fill="none" stroke="#ff0000" stroke-width="0.1"/>
  <path id="heddle_bar_hole3" d="M 95.5000,114.0000 A 3.5000,3.5000 0 1,0 88.5000,114.0000 A 3.5000,3.5000 0 1,0 95.5000,114.0000 Z" fill="none" stroke="#ff0000" stroke-width="0.1"/>
  <path id="heddle_bar_hole4" d="M 105.5000,114.0000 A 3.5000,3.5000 0 1,0 98.5000,114.0000 A 3.5000,3.5000 0 1,0 105.5000,114.0000 Z" fill="none" stroke="#ff0000" stroke-width="0.1"/>
  <path id="heddle_bar_hole5" d="M 115.5000,114.0000 A 3.5000,3.5000 0 1,0 108.5000,114.0000 A 3.5000,3.5000 0 1,0 115.5000,114.0000 Z" fill="none" stroke="#ff0000" stroke-width="0.1"/>
  <path id="heddle_bar_hole6" d="M 125.5000,114.0000 A 3.5000,3.5000 0 1,0 118.5000,114.0000 A 3.5000,3.5000 0 1,0 125.5000,114.0000 Z" fill="none" stroke="#ff0000" stroke-width="0.1"/>
  <path id="heddle_bar_hole7" d="M 135.5000,114.0000 A 3.5000,3.5000 0 1,0 128.5000,114.0000 A 3.5000,3.5000 0 1,0 135.5000,114.0000 Z" fill="none" stroke="#ff0000" stroke-width="0.1"/>
  <path id="heddle_bar_hole8" d="M 145.5000,114.0000 A 3.5000,3.5000 0 1,0 138.5000,114.0000 A 3.5000,3.5000 0 1,0 145.5000,114.0000 Z" fill="none" stroke="#ff0000" stroke-width="0.1"/>
  <path id="heddle_bar_hole9" d="M 155.5000,114.0000 A 3.5000,3.5000 0 1,0 148.5000,114.0000 A 3.5000,3.5000 0 1,0 155.5000,114.0000 Z" fill="none" stroke="#ff0000" stroke-width="0.1"/>
  <path id="heddle_bar_hole10" d="M 165.5000,114.0000 A 3.5000,3.5000 0 1,0 158.5000,114.0000 A 3.5000,3.5000 0 1,0 165.5000,114.0000 Z" fill="none" stroke="#ff0000" stroke-width="0.1"/>
  <path id="heddle_bar_hole11" d="M 175.5000,114.0000 A 3.5000,3.5000 0 1,0 168.5000,114.0000 A 3.5000,3.5000 0 1,0 175.5000,114.0000 Z" fill="none" stroke="#ff0000" stroke-width="0.1"/>
  <path id="heddle_bar_hole12" d="M 185.5000,114.0000 A 3.5000,3.5000 0 1,0 178.5000,114.0000 A 3.5000,3.5000 0 1,0 185.5000,114.0000 Z" fill="none" stroke="#ff0000" stroke-width="0.1"/>
  <path id="heddle_bar_hole13" d="M 195.5000,114.0000 A 3.5000,3.5000 0 1,0 188.5000,114.0000 A 3.5000,3.5000 0 1,0 195.5000,114.0000 Z" fill="none" stroke="#ff0000" stroke-width="0.1"/>
  <path id="heddle_bar_hole14" d="M 205.5000,114.0000 A 3.5000,3.5000 0 1,0 198.5000,114.0000 A 3.5000,3.5000 0 1,0 205.5000,114.0000 Z" fill="none" stroke="#ff0000" stroke-width="0.1"/>
  <path id="heddle_bar_hole15" d="M 215.5000,114.0000 A 3.5000,3.5000 0 1,0 208.5000,114.0000 A 3.5000,3.5000 0 1,0 215.5000,114.0000 Z" fill="none" stroke="#ff0000" stroke-width="0.1"/>
  <path id="heddle_bar_hole16" d="M 225.5000,114.0000 A 3.5000,3.5000 0 1,0 218.5000,114.0000 A 3.5000,3.5000 0 1,0 225.5000,114.0000 Z" fill="none" stroke="#ff0000" stroke-width="0.1"/>
  <path id="heddle_bar_hole17" d="M 235.5000,114.0000 A 3.5000,3.5000 0 1,0 228.5000,114.0000 A 3.5000,3.5000 0 1,0 235.5000,114.0000 Z" fill="none" stroke="#ff0000" stroke-width="0.1"/>
  <path id="heddle_bar_hole18" d="M 245.5000,114.0000 A 3.5000,3.5000 0 1,0 238.5000,114.0000 A 3.5000,3.5000 0 1,0 245.5000,114.0000 Z" fill="none" stroke="#ff0000" stroke-width="0.1"/>
  <path id="heddle_bar_hole19" d="M 255.5000,114.0000 A 3.5000,3.5000 0 1,0 248.5000,114.0000 A 3.5000,3.5000 0 1,0 255.5000,114.0000 Z" fill="none" stroke="#ff0000" stroke-width="0.1"/>
  <path id="heddle_bar_hole20" d="M 265.5000,114.0000 A 3.5000,3.5000 0 1,0 258.5000,114.0000 A 3.5000,3.5000 0 1,0 265.5000,114.0000 Z" fill="none" stroke="#ff0000" stroke-width="0.1"/>
  <path id="heddle_bar_hole21" d="M 275.5000,114.0000 A 3.5000,3.5000 0 1,0 268.5000,114.0000 A 3.5000,3.5000 0 1,0 275.5000,114.0000 Z" fill="none" stroke="#ff0000" stroke-width="0.1"/>
  <path id="heddle_bar_hole22" d="M 285.5000,114.0000 A 3.5000,3.5000 0 1,0 278.5000,114.0000 A 3.5000,3.5000 0 1,0 285.5000,114.0000 Z" fill="none" stroke="#ff0000" stroke-width="0.1"/>
  <path id="heddle_bar_hole23" d="M 295.5000,114.0000 A 3.5000,3.5000 0 1,0 288.5000,114.0000 A 3.5000,3.5000 0 1,0 295.5000,114.0000 Z" fill="none" stroke="#ff0000" stroke-width="0.1"/>
  <path id="heddle_bar_hole24" d="M 305.5000,114.0000 A 3.5000,3.5000 0 1,0 298.5000,114.0000 A 3.5000,3.5000 0 1,0 305.5000,114.0000 Z" fill="none" stroke="#ff0000" stroke-width="0.1"/>
  <path id="heddle_bar_hole25" d="M 315.5000,114.0000 A 3.5000,3.5000 0 1,0 308.5000,114.0000 A 3.5000,3.5000 0 1,0 315.5000,114.0000 Z" fill="none" stroke="#ff0000" stroke-width="0.1"/>
  <path id="heddle_bar_hole26" d="M 325.5000,114.0000 A 3.5000,3.5000 0 1,0 318.5000,114.0000 A 3.5000,3.5000 0 1,0 325.5000,114.0000 Z" fill="none" stroke="#ff0000" stroke-width="0.1"/>
  <path id="heddle_bar_hole27" d="M 335.5000,114.0000 A 3.5000,3.5000 0 1,0 328.5000,114.0000 A 3.5000,3.5000 0 1,0 335.5000,114.0000 Z" fill="none" stroke="#ff0000" stroke-width="0.1"/>
  <path id="heddle_bar_hole28" d="M 345.5000,114.0000 A 3.5000,3.5000 0 1,0 338.5000,114.0000 A 3.5000,3.5000 0 1,0 345.5000,114.0000 Z" fill="none" stroke="#ff0000" stroke-width="0.1"/>
  <path id="heddle_bar_hole29" d="M 355.5000,114.0000 A 3.5000,3.5000 0 1,0 348.5000,114.0000 A 3.5000,3.5000 0 1,0 355.5000,114.0000 Z" fill="none" stroke="#ff0000" stroke-width="0.1"/>
  <path id="heddle_bar_hole30" d="M 365.5000,114.0000 A 3.5000,3.5000 0 1,0 358.5000,114.0000 A 3.5000,3.5000 0 1,0 365.5000,114.0000 Z" fill="none" stroke="#ff0000" stroke-width="0.1"/>
  <text x="212.00" y="114.00" font-size="4.0" font-family="monospace" text-anchor="middle" fill="#000000">HEDDLE BAR</text>
</g>

<g id="shuttle_1">
  <path id="shuttle_1_outer" d="M 72.0000,126.0000 L 208.0000,126.0000 L 230.0000,135.0000 L 225.0000,140.0000 L 230.0000,145.0000 L 208.0000,154.0000 L 72.0000,154.0000 L 50.0000,145.0000 L 55.0000,140.0000 L 50.0000,135.0000 Z" fill="none" stroke="#ff0000" stroke-width="0.1"/>
  <path id="shuttle_1_hole0" d="M 195.0000,140.0000 A 55.0000,6.0000 0 1,0 85.0000,140.0000 A 55.0000,6.0000 0 1,0 195.0000,140.0000 Z" fill="none" stroke="#ff0000" stroke-width="0.1"/>
  <text x="140.00" y="140.00" font-size="4.0" font-family="monospace" text-anchor="middle" fill="#000000">SHUTTLE 1</text>
</g>

<g id="shuttle_2">
  <path id="shuttle_2_outer" d="M 72.0000,156.0000 L 208.0000,156.0000 L 230.0000,165.0000 L 225.0000,170.0000 L 230.0000,175.0000 L 208.0000,184.0000 L 72.0000,184.0000 L 50.0000,175.0000 L 55.0000,170.0000 L 50.0000,165.0000 Z" fill="none" stroke="#ff0000" stroke-width="0.1"/>
  <path id="shuttle_2_hole0" d="M 195.0000,170.0000 A 55.0000,6.0000 0 1,0 85.0000,170.0000 A 55.0000,6.0000 0 1,0 195.0000,170.0000 Z" fill="none" stroke="#ff0000" stroke-width="0.1"/>
  <text x="140.00" y="170.00" font-size="4.0" font-family="monospace" text-anchor="middle" fill="#000000">SHUTTLE 2</text>
</g>

<g id="beater">
  <path id="beater_outer" d="M 50.0000,186.0000 L 360.0000,186.0000 L 360.0000,208.0000 L 357.0000,208.0000 L 357.0000,228.0000 L 353.0000,228.0000 L 353.0000,208.0000 L 347.0000,208.0000 L 347.0000,228.0000 L 343.0000,228.0000 L 343.0000,208.0000 L 337.0000,208.0000 L 337.0000,228.0000 L 333.0000,228.0000 L 333.0000,208.0000 L 327.0000,208.0000 L 327.0000,228.0000 L 323.0000,228.0000 L 323.0000,208.0000 L 317.0000,208.0000 L 317.0000,228.0000 L 313.0000,228.0000 L 313.0000,208.0000 L 307.0000,208.0000 L 307.0000,228.0000 L 303.0000,228.0000 L 303.0000,208.0000 L 297.0000,208.0000 L 297.0000,228.0000 L 293.0000,228.0000 L 293.0000,208.0000 L 287.0000,208.0000 L 287.0000,228.0000 L 283.0000,228.0000 L 283.0000,208.0000 L 277.0000,208.0000 L 277.0000,228.0000 L 273.0000,228.0000 L 273.0000,208.0000 L 267.0000,208.0000 L 267.0000,228.0000 L 263.0000,228.0000 L 263.0000,208.0000 L 257.0000,208.0000 L 257.0000,228.0000 L 253.0000,228.0000 L 253.0000,208.0000 L 247.0000,208.0000 L 247.0000,228.0000 L 243.0000,228.0000 L 243.0000,208.0000 L 237.0000,208.0000 L 237.0000,228.0000 L 233.0000,228.0000 L 233.0000,208.0000 L 227.0000,208.0000 L 227.0000,228.0000 L 223.0000,228.0000 L 223.0000,208.0000 L 217.0000,208.0000 L 217.0000,228.0000 L 213.0000,228.0000 L 213.0000,208.0000 L 207.0000,208.0000 L 207.0000,228.0000 L 203.0000,228.0000 L 203.0000,208.0000 L 197.0000,208.0000 L 197.0000,228.0000 L 193.0000,228.0000 L 193.0000,208.0000 L 187.0000,208.0000 L 187.0000,228.0000 L 183.0000,228.0000 L 183.0000,208.0000 L 177.0000,208.0000 L 177.0000,228.0000 L 173.0000,228.0000 L 173.0000,208.0000 L 167.0000,208.0000 L 167.0000,228.0000 L 163.0000,228.0000 L 163.0000,208.0000 L 157.0000,208.0000 L 157.0000,228.0000 L 153.0000,228.0000 L 153.0000,208.0000 L 147.0000,208.0000 L 147.0000,228.0000 L 143.0000,228.0000 L 143.0000,208.0000 L 137.0000,208.0000 L 137.0000,228.0000 L 133.0000,228.0000 L 133.0000,208.0000 L 127.0000,208.0000 L 127.0000,228.0000 L 123.0000,228.0000 L 123.0000,208.0000 L 117.0000,208.0000 L 117.0000,228.0000 L 113.0000,228.0000 L 113.0000,208.0000 L 107.0000,208.0000 L 107.0000,228.0000 L 103.0000,228.0000 L 103.0000,208.0000 L 97.0000,208.0000 L 97.0000,228.0000 L 93.0000,228.0000 L 93.0000,208.0000 L 87.0000,208.0000 L 87.0000,228.0000 L 83.0000,228.0000 L 83.0000,208.0000 L 77.0000,208.0000 L 77.0000,228.0000 L 73.0000,228.0000 L 73.0000,208.0000 L 67.0000,208.0000 L 67.0000,228.0000 L 63.0000,228.0000 L 63.0000,208.0000 L 57.0000,208.0000 L 57.0000,228.0000 L 53.0000,228.0000 L 53.0000,208.0000 L 50.0000,208.0000 Z" fill="none" stroke="#ff0000" stroke-width="0.1"/>
  <path id="beater_hole0" d="M 135.5000,197.0000 A 8.0000,3.5000 0 1,0 119.5000,197.0000 A 8.0000,3.5000 0 1,0 135.5000,197.0000 Z" fill="none" stroke="#ff0000" stroke-width="0.1"/>
  <path id="beater_hole1" d="M 213.0000,197.0000 A 8.0000,3.5000 0 1,0 197.0000,197.0000 A 8.0000,3.5000 0 1,0 213.0000,197.0000 Z" fill="none" stroke="#ff0000" stroke-width="0.1"/>
  <path id="beater_hole2" d="M 290.5000,197.0000 A 8.0000,3.5000 0 1,0 274.5000,197.0000 A 8.0000,3.5000 0 1,0 290.5000,197.0000 Z" fill="none" stroke="#ff0000" stroke-width="0.1"/>
  <text x="205.00" y="207.00" font-size="4.0" font-family="monospace" text-anchor="middle" fill="#000000">BEATER</text>
</g>

</svg>