<?xml version="1.0" encoding="UTF-8"?>
<svg xmlns="http://www.w3.org/2000/svg"
     viewBox="0 0 600.0 600.0"
     width="600.0mm" height="600.0mm">
  <!-- FRAME LOOM v6 | 6mm BIRCH PLY 600x600mm | RED=CUT preview 0.1mm — change to 0.01mm for laser -->
  <rect x="0" y="0" width="600.0" height="600.0" fill="#faf8f4" stroke="#aaaaaa" stroke-width="0.3"/>

<g id="crossbar_1">
  <path id="crossbar_1_outer" d="M 2.0000,2.0000 L 302.0000,2.0000 L 302.0000,22.0000 L 2.0000,22.0000 Z" fill="none" stroke="#ff0000" stroke-width="0.3"/>
  <text x="152.00" y="12.00" font-size="4.0" font-family="monospace" text-anchor="middle" fill="#000000">CROSSBAR 1</text>
</g>

<g id="crossbar_2">
  <path id="crossbar_2_outer" d="M 2.0000,24.0000 L 302.0000,24.0000 L 302.0000,44.0000 L 2.0000,44.0000 Z" fill="none" stroke="#ff0000" stroke-width="0.3"/>
  <text x="152.00" y="34.00" font-size="4.0" font-family="monospace" text-anchor="middle" fill="#000000">CROSSBAR 2</text>
</g>

<g id="top_rail">
  <path id="top_rail_outer" d="M 2.0000,46.0000 L 346.0000,46.0000 L 346.0000,53.2833 L 340.0000,53.2833 L 340.0000,60.7167 L 346.0000,60.7167 L 346.0000,68.0000 L 326.5000,68.0000 A 0.5000,0.5000 0 0,0 326.0000,68.5000 L 326.0000,72.5000 A 0.5000,0.5000 0 0,1 325.5000,73.0000 L 322.5000,73.0000 A 0.5000,0.5000 0 0,1 322.0000,72.5000 L 322.0000,68.5000 A 0.5000,0.5000 0 0,0 321.5000,68.0000 L 316.5000,68.0000 A 0.5000,0.5000 0 0,0 316.0000,68.5000 L 316.0000,72.5000 A 0.5000,0.5000 0 0,1 315.5000,73.0000 L 312.5000,73.0000 A 0.5000,0.5000 0 0,1 312.0000,72.5000 L 312.0000,68.5000 A 0.5000,0.5000 0 0,0 311.5000,68.0000 L 306.5000,68.0000 A 0.5000,0.5000 0 0,0 306.0000,68.5000 L 306.0000,72.5000 A 0.5000,0.5000 0 0,1 305.5000,73.0000 L 302.5000,73.0000 A 0.5000,0.5000 0 0,1 302.0000,72.5000 L 302.0000,68.5000 A 0.5000,0.5000 0 0,0 301.5000,68.0000 L 296.5000,68.0000 A 0.5000,0.5000 0 0,0 296.0000,68.5000 L 296.0000,72.5000 A 0.5000,0.5000 0 0,1 295.5000,73.0000 L 292.5000,73.0000 A 0.5000,0.5000 0 0,1 292.0000,72.5000 L 292.0000,68.5000 A 0.5000,0.5000 0 0,0 291.5000,68.0000 L 286.5000,68.0000 A 0.5000,0.5000 0 0,0 286.0000,68.5000 L 286.0000,72.5000 A 0.5000,0.5000 0 0,1 285.5000,73.0000 L 282.5000,73.0000 A 0.5000,0.5000 0 0,1 282.0000,72.5000 L 282.0000,68.5000 A 0.5000,0.5000 0 0,0 281.5000,68.0000 L 276.5000,68.0000 A 0.5000,0.5000 0 0,0 276.0000,68.5000 L 276.0000,72.5000 A 0.5000,0.5000 0 0,1 275.5000,73.0000 L 272.5000,73.0000 A 0.5000,0.5000 0 0,1 272.0000,72.5000 L 272.0000,68.5000 A 0.5000,0.5000 0 0,0 271.5000,68.0000 L 266.5000,68.0000 A 0.5000,0.5000 0 0,0 266.0000,68.5000 L 266.0000,72.5000 A 0.5000,0.5000 0 0,1 265.5000,73.0000 L 262.5000,73.0000 A 0.5000,0.5000 0 0,1 262.0000,72.5000 L 262.0000,68.5000 A 0.5000,0.5000 0 0,0 261.5000,68.0000 L 256.5000,68.0000 A 0.5000,0.5000 0 0,0 256.0000,68.5000 L 256.0000,72.5000 A 0.5000,0.5000 0 0,1 255.5000,73.0000 L 252.5000,73.0000 A 0.5000,0.5000 0 0,1 252.0000,72.5000 L 252.0000,68.5000 A 0.5000,0.5000 0 0,0 251.5000,68.0000 L 246.5000,68.0000 A 0.5000,0.5000 0 0,0 246.0000,68.5000 L 246.0000,72.5000 A 0.5000,0.5000 0 0,1 245.5000,73.0000 L 242.5000,73.0000 A 0.5000,0.5000 0 0,1 242.0000,72.5000 L 242.0000,68.5000 A 0.5000,0.5000 0 0,0 241.5000,68.0000 L 236.5000,68.0000 A 0.5000,0.5000 0 0,0 236.0000,68.5000 L 236.0000,72.5000 A 0.5000,0.5000 0 0,1 235.5000,73.0000 L 232.5000,73.0000 A 0.5000,0.5000 0 0,1 232.0000,72.5000 L 232.0000,68.5000 A 0.5000,0.5000 0 0,0 231.5000,68.0000 L 226.5000,68.0000 A 0.5000,0.5000 0 0,0 226.0000,68.5000 L 226.0000,72.5000 A 0.5000,0.5000 0 0,1 225.5000,73.0000 L 222.5000,73.0000 A 0.5000,0.5000 0 0,1 222.0000,72.5000 L 222.0000,68.5000 A 0.5000,0.5000 0 0,0 221.5000,68.0000 L 216.5000,68.0000 A 0.5000,0.5000 0 0,0 216.0000,68.5000 L 216.0000,72.5000 A 0.5000,0.5000 0 0,1 215.5000,73.0000 L 212.5000,73.0000 A 0.5000,0.5000 0 0,1 212.0000,72.5000 L 212.0000,68.5000 A 0.5000,0.5000 0 0,0 211.5000,68.0000 L 206.5000,68.0000 A 0.5000,0.5000 0 0,0 206.0000,68.5000 L 206.0000,72.5000 A 0.5000,0.5000 0 0,1 205.5000,73.0000 L 202.5000,73.0000 A 0.5000,0.5000 0 0,1 202.0000,72.5000 L 202.0000,68.5000 A 0.5000,0.5000 0 0,0 201.5000,68.0000 L 196.5000,68.0000 A 0.5000,0.5000 0 0,0 196.0000,68.5000 L 196.0000,72.5000 A 0.5000,0.5000 0 0,1 195.5000,73.0000 L 192.5000,73.0000 A 0.5000,0.5000 0 0,1 192.0000,72.5000 L 192.0000,68.5000 A 0.5000,0.5000 0 0,0 191.5000,68.0000 L 186.5000,68.0000 A 0.5000,0.5000 0 0,0 186.0000,68.5000 L 186.0000,72.5000 A 0.5000,0.5000 0 0,1 185.5000,73.0000 L 182.5000,73.0000 A 0.5000,0.5000 0 0,1 182.0000,72.5000 L 182.0000,68.5000 A 0.5000,0.5000 0 0,0 181.5000,68.0000 L 176.5000,68.0000 A 0.5000,0.5000 0 0,0 176.0000,68.5000 L 176.0000,72.5000 A 0.5000,0.5000 0 0,1 175.5000,73.0000 L 172.5000,73.0000 A 0.5000,0.5000 0 0,1 172.0000,72.5000 L 172.0000,68.5000 A 0.5000,0.5000 0 0,0 171.5000,68.0000 L 166.5000,68.0000 A 0.5000,0.5000 0 0,0 166.0000,68.5000 L 166.0000,72.5000 A 0.5000,0.5000 0 0,1 165.5000,73.0000 L 162.5000,73.0000 A 0.5000,0.5000 0 0,1 162.0000,72.5000 L 162.0000,68.5000 A 0.5000,0.5000 0 0,0 161.5000,68.0000 L 156.5000,68.0000 A 0.5000,0.5000 0 0,0 156.0000,68.5000 L 156.0000,72.5000 A 0.5000,0.5000 0 0,1 155.5000,73.0000 L 152.5000,73.0000 A 0.5000,0.5000 0 0,1 152.0000,72.5000 L 152.0000,68.5000 A 0.5000,0.5000 0 0,0 151.5000,68.0000 L 146.5000,68.0000 A 0.5000,0.5000 0 0,0 146.0000,68.5000 L 146.0000,72.5000 A 0.5000,0.5000 0 0,1 145.5000,73.0000 L 142.5000,73.0000 A 0.5000,0.5000 0 0,1 142.0000,72.5000 L 142.0000,68.5000 A 0.5000,0.5000 0 0,0 141.5000,68.0000 L 136.5000,68.0000 A 0.5000,0.5000 0 0,0 136.0000,68.5000 L 136.0000,72.5000 A 0.5000,0.5000 0 0,1 135.5000,73.0000 L 132.5000,73.0000 A 0.5000,0.5000 0 0,1 132.0000,72.5000 L 132.0000,68.5000 A 0.5000,0.5000 0 0,0 131.5000,68.0000 L 126.5000,68.0000 A 0.5000,0.5000 0 0,0 126.0000,68.5000 L 126.0000,72.5000 A 0.5000,0.5000 0 0,1 125.5000,73.0000 L 122.5000,73.0000 A 0.5000,0.5000 0 0,1 122.0000,72.5000 L 122.0000,68.5000 A 0.5000,0.5000 0 0,0 121.5000,68.0000 L 116.5000,68.0000 A 0.5000,0.5000 0 0,0 116.0000,68.5000 L 116.0000,72.5000 A 0.5000,0.5000 0 0,1 115.5000,73.0000 L 112.5000,73.0000 A 0.5000,0.5000 0 0,1 112.0000,72.5000 L 112.0000,68.5000 A 0.5000,0.5000 0 0,0 111.5000,68.0000 L 106.5000,68.0000 A 0.5000,0.5000 0 0,0 106.0000,68.5000 L 106.0000,72.5000 A 0.5000,0.5000 0 0,1 105.5000,73.0000 L 102.5000,73.0000 A 0.5000,0.5000 0 0,1 102.0000,72.5000 L 102.0000,68.5000 A 0.5000,0.5000 0 0,0 101.5000,68.0000 L 96.5000,68.0000 A 0.5000,0.5000 0 0,0 96.0000,68.5000 L 96.0000,72.5000 A 0.5000,0.5000 0 0,1 95.5000,73.0000 L 92.5000,73.0000 A 0.5000,0.5000 0 0,1 92.0000,72.5000 L 92.0000,68.5000 A 0.5000,0.5000 0 0,0 91.5000,68.0000 L 86.5000,68.0000 A 0.5000,0.5000 0 0,0 86.0000,68.5000 L 86.0000,72.5000 A 0.5000,0.5000 0 0,1 85.5000,73.0000 L 82.5000,73.0000 A 0.5000,0.5000 0 0,1 82.0000,72.5000 L 82.0000,68.5000 A 0.5000,0.5000 0 0,0 81.5000,68.0000 L 76.5000,68.0000 A 0.5000,0.5000 0 0,0 76.0000,68.5000 L 76.0000,72.5000 A 0.5000,0.5000 0 0,1 75.5000,73.0000 L 72.5000,73.0000 A 0.5000,0.5000 0 0,1 72.0000,72.5000 L 72.0000,68.5000 A 0.5000,0.5000 0 0,0 71.5000,68.0000 L 66.5000,68.0000 A 0.5000,0.5000 0 0,0 66.0000,68.5000 L 66.0000,72.5000 A 0.5000,0.5000 0 0,1 65.5000,73.0000 L 62.5000,73.0000 A 0.5000,0.5000 0 0,1 62.0000,72.5000 L 62.0000,68.5000 A 0.5000,0.5000 0 0,0 61.5000,68.0000 L 56.5000,68.0000 A 0.5000,0.5000 0 0,0 56.0000,68.5000 L 56.0000,72.5000 A 0.5000,0.5000 0 0,1 55.5000,73.0000 L 52.5000,73.0000 A 0.5000,0.5000 0 0,1 52.0000,72.5000 L 52.0000,68.5000 A 0.5000,0.5000 0 0,0 51.5000,68.0000 L 46.5000,68.0000 A 0.5000,0.5000 0 0,0 46.0000,68.5000 L 46.0000,72.5000 A 0.5000,0.5000 0 0,1 45.5000,73.0000 L 42.5000,73.0000 A 0.5000,0.5000 0 0,1 42.0000,72.5000 L 42.0000,68.5000 A 0.5000,0.5000 0 0,0 41.5000,68.0000 L 36.5000,68.0000 A 0.5000,0.5000 0 0,0 36.0000,68.5000 L 36.0000,72.5000 A 0.5000,0.5000 0 0,1 35.5000,73.0000 L 32.5000,73.0000 A 0.5000,0.5000 0 0,1 32.0000,72.5000 L 32.0000,68.5000 A 0.5000,0.5000 0 0,0 31.5000,68.0000 L 26.5000,68.0000 A 0.5000,0.5000 0 0,0 26.0000,68.5000 L 26.0000,72.5000 A 0.5000,0.5000 0 0,1 25.5000,73.0000 L 22.5000,73.0000 A 0.5000,0.5000 0 0,1 22.0000,72.5000 L 22.0000,68.5000 A 0.5000,0.5000 0 0,0 21.5000,68.0000 L 2.0000,68.0000 L 2.0000,60.7167 L 8.0000,60.7167 L 8.0000,53.2833 L 2.0000,53.2833 Z" fill="none" stroke="#ff0000" stroke-width="0.3"/>
  <path id="top_rail_hole0" d="M 42.0000,57.0000 A 4.0000,4.0000 0 1,0 34.0000,57.0000 A 4.0000,4.0000 0 1,0 42.0000,57.0000 Z" fill="none" stroke="#ff0000" stroke-width="0.3"/>
  <path id="top_rail_hole1" d="M 314.0000,57.0000 A 4.0000,4.0000 0 1,0 306.0000,57.0000 A 4.0000,4.0000 0 1,0 314.0000,57.0000 Z" fill="none" stroke="#ff0000" stroke-width="0.3"/>
  <text x="174.00" y="59.50" font-size="4.0" font-family="monospace" text-anchor="middle" fill="#000000">TOP RAIL</text>
</g>

<g id="bottom_rail">
  <path id="bottom_rail_outer" d="M 2.0000,75.0000 L 346.0000,75.0000 L 346.0000,82.2833 L 340.0000,82.2833 L 340.0000,89.7167 L 346.0000,89.7167 L 346.0000,97.0000 L 326.5000,97.0000 A 0.5000,0.5000 0 0,0 326.0000,97.5000 L 326.0000,101.5000 A 0.5000,0.5000 0 0,1 325.5000,102.0000 L 322.5000,102.0000 A 0.5000,0.5000 0 0,1 322.0000,101.5000 L 322.0000,97.5000 A 0.5000,0.5000 0 0,0 321.5000,97.0000 L 316.5000,97.0000 A 0.5000,0.5000 0 0,0 316.0000,97.5000 L 316.0000,101.5000 A 0.5000,0.5000 0 0,1 315.5000,102.0000 L 312.5000,102.0000 A 0.5000,0.5000 0 0,1 312.0000,101.5000 L 312.0000,97.5000 A 0.5000,0.5000 0 0,0 311.5000,97.0000 L 306.5000,97.0000 A 0.5000,0.5000 0 0,0 306.0000,97.5000 L 306.0000,101.5000 A 0.5000,0.5000 0 0,1 305.5000,102.0000 L 302.5000,102.0000 A 0.5000,0.5000 0 0,1 302.0000,101.5000 L 302.0000,97.5000 A 0.5000,0.5000 0 0,0 301.5000,97.0000 L 296.5000,97.0000 A 0.5000,0.5000 0 0,0 296.0000,97.5000 L 296.0000,101.5000 A 0.5000,0.5000 0 0,1 295.5000,102.0000 L 292.5000,102.0000 A 0.5000,0.5000 0 0,1 292.0000,101.5000 L 292.0000,97.5000 A 0.5000,0.5000 0 0,0 291.5000,97.0000 L 286.5000,97.0000 A 0.5000,0.5000 0 0,0 286.0000,97.5000 L 286.0000,101.5000 A 0.5000,0.5000 0 0,1 285.5000,102.0000 L 282.5000,102.0000 A 0.5000,0.5000 0 0,1 282.0000,101.5000 L 282.0000,97.5000 A 0.5000,0.5000 0 0,0 281.5000,97.0000 L 276.5000,97.0000 A 0.5000,0.5000 0 0,0 276.0000,97.5000 L 276.0000,101.5000 A 0.5000,0.5000 0 0,1 275.5000,102.0000 L 272.5000,102.0000 A 0.5000,0.5000 0 0,1 272.0000,101.5000 L 272.0000,97.5000 A 0.5000,0.5000 0 0,0 271.5000,97.0000 L 266.5000,97.0000 A 0.5000,0.5000 0 0,0 266.0000,97.5000 L 266.0000,101.5000 A 0.5000,0.5000 0 0,1 265.5000,102.0000 L 262.5000,102.0000 A 0.5000,0.5000 0 0,1 262.0000,101.5000 L 262.0000,97.5000 A 0.5000,0.5000 0 0,0 261.5000,97.0000 L 256.5000,97.0000 A 0.5000,0.5000 0 0,0 256.0000,97.5000 L 256.0000,101.5000 A 0.5000,0.5000 0 0,1 255.5000,102.0000 L 252.5000,102.0000 A 0.5000,0.5000 0 0,1 252.0000,101.5000 L 252.0000,97.5000 A 0.5000,0.5000 0 0,0 251.5000,97.0000 L 246.5000,97.0000 A 0.5000,0.5000 0 0,0 246.0000,97.5000 L 246.0000,101.5000 A 0.5000,0.5000 0 0,1 245.5000,102.0000 L 242.5000,102.0000 A 0.5000,0.5000 0 0,1 242.0000,101.5000 L 242.0000,97.5000 A 0.5000,0.5000 0 0,0 241.5000,97.0000 L 236.5000,97.0000 A 0.5000,0.5000 0 0,0 236.0000,97.5000 L 236.0000,101.5000 A 0.5000,0.5000 0 0,1 235.5000,102.0000 L 232.5000,102.0000 A 0.5000,0.5000 0 0,1 232.0000,101.5000 L 232.0000,97.5000 A 0.5000,0.5000 0 0,0 231.5000,97.0000 L 226.5000,97.0000 A 0.5000,0.5000 0 0,0 226.0000,97.5000 L 226.0000,101.5000 A 0.5000,0.5000 0 0,1 225.5000,102.0000 L 222.5000,102.0000 A 0.5000,0.5000 0 0,1 222.0000,101.5000 L 222.0000,97.5000 A 0.5000,0.5000 0 0,0 221.5000,97.0000 L 216.5000,97.0000 A 0.5000,0.5000 0 0,0 216.0000,97.5000 L 216.0000,101.5000 A 0.5000,0.5000 0 0,1 215.5000,102.0000 L 212.5000,102.0000 A 0.5000,0.5000 0 0,1 212.0000,101.5000 L 212.0000,97.5000 A 0.5000,0.5000 0 0,0 211.5000,97.0000 L 206.5000,97.0000 A 0.5000,0.5000 0 0,0 206.0000,97.5000 L 206.0000,101.5000 A 0.5000,0.5000 0 0,1 205.5000,102.0000 L 202.5000,102.0000 A 0.5000,0.5000 0 0,1 202.0000,101.5000 L 202.0000,97.5000 A 0.5000,0.5000 0 0,0 201.5000,97.0000 L 196.5000,97.0000 A 0.5000,0.5000 0 0,0 196.0000,97.5000 L 196.0000,101.5000 A 0.5000,0.5000 0 0,1 195.5000,102.0000 L 192.5000,102.0000 A 0.5000,0.5000 0 0,1 192.0000,101.5000 L 192.0000,97.5000 A 0.5000,0.5000 0 0,0 191.5000,97.0000 L 186.5000,97.0000 A 0.5000,0.5000 0 0,0 186.0000,97.5000 L 186.0000,101.5000 A 0.5000,0.5000 0 0,1 185.5000,102.0000 L 182.5000,102.0000 A 0.5000,0.5000 0 0,1 182.0000,101.5000 L 182.0000,97.5000 A 0.5000,0.5000 0 0,0 181.5000,97.0000 L 176.5000,97.0000 A 0.5000,0.5000 0 0,0 176.0000,97.5000 L 176.0000,101.5000 A 0.5000,0.5000 0 0,1 175.5000,102.0000 L 172.5000,102.0000 A 0.5000,0.5000 0 0,1 172.0000,101.5000 L 172.0000,97.5000 A 0.5000,0.5000 0 0,0 171.5000,97.0000 L 166.5000,97.0000 A 0.5000,0.5000 0 0,0 166.0000,97.5000 L 166.0000,101.5000 A 0.5000,0.5000 0 0,1 165.5000,102.0000 L 162.5000,102.0000 A 0.5000,0.5000 0 0,1 162.0000,101.5000 L 162.0000,97.5000 A 0.5000,0.5000 0 0,0 161.5000,97.0000 L 156.5000,97.0000 A 0.5000,0.5000 0 0,0 156.0000,97.5000 L 156.0000,101.5000 A 0.5000,0.5000 0 0,1 155.5000,102.0000 L 152.5000,102.0000 A 0.5000,0.5000 0 0,1 152.0000,101.5000 L 152.0000,97.5000 A 0.5000,0.5000 0 0,0 151.5000,97.0000 L 146.5000,97.0000 A 0.5000,0.5000 0 0,0 146.0000,97.5000 L 146.0000,101.5000 A 0.5000,0.5000 0 0,1 145.5000,102.0000 L 142.5000,102.0000 A 0.5000,0.5000 0 0,1 142.0000,101.5000 L 142.0000,97.5000 A 0.5000,0.5000 0 0,0 141.5000,97.0000 L 136.5000,97.0000 A 0.5000,0.5000 0 0,0 136.0000,97.5000 L 136.0000,101.5000 A 0.5000,0.5000 0 0,1 135.5000,102.0000 L 132.5000,102.0000 A 0.5000,0.5000 0 0,1 132.0000,101.5000 L 132.0000,97.5000 A 0.5000,0.5000 0 0,0 131.5000,97.0000 L 126.5000,97.0000 A 0.5000,0.5000 0 0,0 126.0000,97.5000 L 126.0000,101.5000 A 0.5000,0.5000 0 0,1 125.5000,102.0000 L 122.5000,102.0000 A 0.5000,0.5000 0 0,1 122.0000,101.5000 L 122.0000,97.5000 A 0.5000,0.5000 0 0,0 121.5000,97.0000 L 116.5000,97.0000 A 0.5000,0.5000 0 0,0 116.0000,97.5000 L 116.0000,101.5000 A 0.5000,0.5000 0 0,1 115.5000,102.0000 L 112.5000,102.0000 A 0.5000,0.5000 0 0,1 112.0000,101.5000 L 112.0000,97.5000 A 0.5000,0.5000 0 0,0 111.5000,97.0000 L 106.5000,97.0000 A 0.5000,0.5000 0 0,0 106.0000,97.5000 L 106.0000,101.5000 A 0.5000,0.5000 0 0,1 105.5000,102.0000 L 102.5000,102.0000 A 0.5000,0.5000 0 0,1 102.0000,101.5000 L 102.0000,97.5000 A 0.5000,0.5000 0 0,0 101.5000,97.0000 L 96.5000,97.0000 A 0.5000,0.5000 0 0,0 96.0000,97.5000 L 96.0000,101.5000 A 0.5000,0.5000 0 0,1 95.5000,102.0000 L 92.5000,102.0000 A 0.5000,0.5000 0 0,1 92.0000,101.5000 L 92.0000,97.5000 A 0.5000,0.5000 0 0,0 91.5000,97.0000 L 86.5000,97.0000 A 0.5000,0.5000 0 0,0 86.0000,97.5000 L 86.0000,101.5000 A 0.5000,0.5000 0 0,1 85.5000,102.0000 L 82.5000,102.0000 A 0.5000,0.5000 0 0,1 82.0000,101.5000 L 82.0000,97.5000 A 0.5000,0.5000 0 0,0 81.5000,97.0000 L 76.5000,97.0000 A 0.5000,0.5000 0 0,0 76.0000,97.5000 L 76.0000,101.5000 A 0.5000,0.5000 0 0,1 75.5000,102.0000 L 72.5000,102.0000 A 0.5000,0.5000 0 0,1 72.0000,101.5000 L 72.0000,97.5000 A 0.5000,0.5000 0 0,0 71.5000,97.0000 L 66.5000,97.0000 A 0.5000,0.5000 0 0,0 66.0000,97.5000 L 66.0000,101.5000 A 0.5000,0.5000 0 0,1 65.5000,102.0000 L 62.5000,102.0000 A 0.5000,0.5000 0 0,1 62.0000,101.5000 L 62.0000,97.5000 A 0.5000,0.5000 0 0,0 61.5000,97.0000 L 56.5000,97.0000 A 0.5000,0.5000 0 0,0 56.0000,97.5000 L 56.0000,101.5000 A 0.5000,0.5000 0 0,1 55.5000,102.0000 L 52.5000,102.0000 A 0.5000,0.5000 0 0,1 52.0000,101.5000 L 52.0000,97.5000 A 0.5000,0.5000 0 0,0 51.5000,97.0000 L 46.5000,97.0000 A 0.5000,0.5000 0 0,0 46.0000,97.5000 L 46.0000,101.5000 A 0.5000,0.5000 0 0,1 45.5000,102.0000 L 42.5000,102.0000 A 0.5000,0.5000 0 0,1 42.0000,101.5000 L 42.0000,97.5000 A 0.5000,0.5000 0 0,0 41.5000,97.0000 L 36.5000,97.0000 A 0.5000,0.5000 0 0,0 36.0000,97.5000 L 36.0000,101.5000 A 0.5000,0.5000 0 0,1 35.5000,102.0000 L 32.5000,102.0000 A 0.5000,0.5000 0 0,1 32.0000,101.5000 L 32.0000,97.5000 A 0.5000,0.5000 0 0,0 31.5000,97.0000 L 26.5000,97.0000 A 0.5000,0.5000 0 0,0 26.0000,97.5000 L 26.0000,101.5000 A 0.5000,0.5000 0 0,1 25.5000,102.0000 L 22.5000,102.0000 A 0.5000,0.5000 0 0,1 22.0000,101.5000 L 22.0000,97.5000 A 0.5000,0.5000 0 0,0 21.5000,97.0000 L 2.0000,97.0000 L 2.0000,89.7167 L 8.0000,89.7167 L 8.0000,82.2833 L 2.0000,82.2833 Z" fill="none" stroke="#ff0000" stroke-width="0.3"/>
  <text x="174.00" y="88.50" font-size="4.0" font-family="monospace" text-anchor="middle" fill="#000000">BOTTOM RAIL</text>
</g>

<g id="stile_L">
  <path id="stile_L_outer" d="M 2.0000,110.0000 L 9.3333,110.0000 L 9.3333,104.0000 L 16.6667,104.0000 L 16.6667,110.0000 L 24.0000,110.0000 L 24.0000,554.0000 L 16.6667,554.0000 L 16.6667,560.0000 L 9.3333,560.0000 L 9.3333,554.0000 L 2.0000,554.0000 Z" fill="none" stroke="#ff0000" stroke-width="0.3"/>
  <path id="stile_L_hole0" d="M 19.0000,255.4500 L 24.0000,255.4500 L 24.0000,275.5500 L 19.0000,275.5500 Z" fill="none" stroke="#ff0000" stroke-width="0.3"/>
  <path id="stile_L_hole1" d="M 19.0000,388.4500 L 24.0000,388.4500 L 24.0000,408.5500 L 19.0000,408.5500 Z" fill="none" stroke="#ff0000" stroke-width="0.3"/>
  <text x="13.00" y="332.00" font-size="4.0" font-family="monospace" text-anchor="middle" fill="#000000">STILE L</text>
</g>

<g id="stile_R">
  <path id="stile_R_outer" d="M 48.0000,110.0000 L 40.6667,110.0000 L 40.6667,104.0000 L 33.3333,104.0000 L 33.3333,110.0000 L 26.0000,110.0000 L 26.0000,554.0000 L 33.3333,554.0000 L 33.3333,560.0000 L 40.6667,560.0000 L 40.6667,554.0000 L 48.0000,554.0000 Z" fill="none" stroke="#ff0000" stroke-width="0.3"/>
  <path id="stile_R_hole0" d="M 26.0000,255.4500 L 31.0000,255.4500 L 31.0000,275.5500 L 26.0000,275.5500 Z" fill="none" stroke="#ff0000" stroke-width="0.3"/>
  <path id="stile_R_hole1" d="M 26.0000,388.4500 L 31.0000,388.4500 L 31.0000,408.5500 L 26.0000,408.5500 Z" fill="none" stroke="#ff0000" stroke-width="0.3"/>
  <text x="37.00" y="332.00" font-size="4.0" font-family="monospace" text-anchor="middle" fill="#000000">STILE R</text>
</g>

<g id="heddle_bar">
  <path id="heddle_bar_outer" d="M 52.0000,104.0000 L 372.0000,104.0000 A 2.0000,2.0000 0 0,1 374.0000,106.0000 L 374.0000,122.0000 A 2.0000,2.0000 0 0,1 372.0000,124.0000 L 52.0000,124.0000 A 2.0000,2.0000 0 0,1 50.0000,122.0000 L 50.0000,106.0000 A 2.0000,2.0000 0 0,1 52.0000,104.0000 Z" fill="none" stroke="#ff0000" stroke-width="0.3"/>
  <path id="heddle_bar_hole0" d="M 63.5000,108.0000 A 1.5000,1.5000 0 1,0 60.5000,108.0000 L 60.5000,111.0000 A 1.5000,1.5000 0 1,0 63.5000,111.0000 Z" fill="none" stroke="#ff0000" stroke-width="0.3"/>
  <path id="heddle_bar_hole1" d="M 73.5000,117.0000 A 1.5000,1.5000 0 1,0 70.5000,117.0000 L 70.5000,120.0000 A 1.5000,1.5000 0 1,0 73.5000,120.0000 Z" fill="none" stroke="#ff0000" stroke-width="0.3"/>
  <path id="heddle_bar_hole2" d="M 83.5000,108.0000 A 1.5000,1.5000 0 1,0 80.5000,108.0000 L 80.5000,111.0000 A 1.5000,1.5000 0 1,0 83.5000,111.0000 Z" fill="none" stroke="#ff0000" stroke-width="0.3"/>
  <path id="heddle_bar_hole3" d="M 93.5000,117.0000 A 1.5000,1.5000 0 1,0 90.5000,117.0000 L 90.5000,120.0000 A 1.5000,1.5000 0 1,0 93.5000,120.0000 Z" fill="none" stroke="#ff0000" stroke-width="0.3"/>
  <path id="heddle_bar_hole4" d="M 103.5000,108.0000 A 1.5000,1.5000 0 1,0 100.5000,108.0000 L 100.5000,111.0000 A 1.5000,1.5000 0 1,0 103.5000,111.0000 Z" fill="none" stroke="#ff0000" stroke-width="0.3"/>
  <path id="heddle_bar_hole5" d="M 113.5000,117.0000 A 1.5000,1.5000 0 1,0 110.5000,117.0000 L 110.5000,120.0000 A 1.5000,1.5000 0 1,0 113.5000,120.0000 Z" fill="none" stroke="#ff0000" stroke-width="0.3"/>
  <path id="heddle_bar_hole6" d="M 123.5000,108.0000 A 1.5000,1.5000 0 1,0 120.5000,108.0000 L 120.5000,111.0000 A 1.5000,1.5000 0 1,0 123.5000,111.0000 Z" fill="none" stroke="#ff0000" stroke-width="0.3"/>
  <path id="heddle_bar_hole7" d="M 133.5000,117.0000 A 1.5000,1.5000 0 1,0 130.5000,117.0000 L 130.5000,120.0000 A 1.5000,1.5000 0 1,0 133.5000,120.0000 Z" fill="none" stroke="#ff0000" stroke-width="0.3"/>
  <path id="heddle_bar_hole8" d="M 143.5000,108.0000 A 1.5000,1.5000 0 1,0 140.5000,108.0000 L 140.5000,111.0000 A 1.5000,1.5000 0 1,0 143.5000,111.0000 Z" fill="none" stroke="#ff0000" stroke-width="0.3"/>
  <path id="heddle_bar_hole9" d="M 153.5000,117.0000 A 1.5000,1.5000 0 1,0 150.5000,117.0000 L 150.5000,120.0000 A 1.5000,1.5000 0 1,0 153.5000,120.0000 Z" fill="none" stroke="#ff0000" stroke-width="0.3"/>
  <path id="heddle_bar_hole10" d="M 163.5000,108.0000 A 1.5000,1.5000 0 1,0 160.5000,108.0000 L 160.5000,111.0000 A 1.5000,1.5000 0 1,0 163.5000,111.0000 Z" fill="none" stroke="#ff0000" stroke-width="0.3"/>
  <path id="heddle_bar_hole11" d="M 173.5000,117.0000 A 1.5000,1.5000 0 1,0 170.5000,117.0000 L 170.5000,120.0000 A 1.5000,1.5000 0 1,0 173.5000,120.0000 Z" fill="none" stroke="#ff0000" stroke-width="0.3"/>
  <path id="heddle_bar_hole12" d="M 183.5000,108.0000 A 1.5000,1.5000 0 1,0 180.5000,108.0000 L 180.5000,111.0000 A 1.5000,1.5000 0 1,0 183.5000,111.0000 Z" fill="none" stroke="#ff0000" stroke-width="0.3"/>
  <path id="heddle_bar_hole13" d="M 193.5000,117.0000 A 1.5000,1.5000 0 1,0 190.5000,117.0000 L 190.5000,120.0000 A 1.5000,1.5000 0 1,0 193.5000,120.0000 Z" fill="none" stroke="#ff0000" stroke-width="0.3"/>
  <path id="heddle_bar_hole14" d="M 203.5000,108.0000 A 1.5000,1.5000 0 1,0 200.5000,108.0000 L 200.5000,111.0000 A 1.5000,1.5000 0 1,0 203.5000,111.0000 Z" fill="none" stroke="#ff0000" stroke-width="0.3"/>
  <path id="heddle_bar_hole15" d="M 213.5000,117.0000 A 1.5000,1.5000 0 1,0 210.5000,117.0000 L 210.5000,120.0000 A 1.5000,1.5000 0 1,0 213.5000,120.0000 Z" fill="none" stroke="#ff0000" stroke-width="0.3"/>
  <path id="heddle_bar_hole16" d="M 223.5000,108.0000 A 1.5000,1.5000 0 1,0 220.5000,108.0000 L 220.5000,111.0000 A 1.5000,1.5000 0 1,0 223.5000,111.0000 Z" fill="none" stroke="#ff0000" stroke-width="0.3"/>
  <path id="heddle_bar_hole17" d="M 233.5000,117.0000 A 1.5000,1.5000 0 1,0 230.5000,117.0000 L 230.5000,120.0000 A 1.5000,1.5000 0 1,0 233.5000,120.0000 Z" fill="none" stroke="#ff0000" stroke-width="0.3"/>
  <path id="heddle_bar_hole18" d="M 243.5000,108.0000 A 1.5000,1.5000 0 1,0 240.5000,108.0000 L 240.5000,111.0000 A 1.5000,1.5000 0 1,0 243.5000,111.0000 Z" fill="none" stroke="#ff0000" stroke-width="0.3"/>
  <path id="heddle_bar_hole19" d="M 253.5000,117.0000 A 1.5000,1.5000 0 1,0 250.5000,117.0000 L 250.5000,120.0000 A 1.5000,1.5000 0 1,0 253.5000,120.0000 Z" fill="none" stroke="#ff0000" stroke-width="0.3"/>
  <path id="heddle_bar_hole20" d="M 263.5000,108.0000 A 1.5000,1.5000 0 1,0 260.5000,108.0000 L 260.5000,111.0000 A 1.5000,1.5000 0 1,0 263.5000,111.0000 Z" fill="none" stroke="#ff0000" stroke-width="0.3"/>
  <path id="heddle_bar_hole21" d="M 273.5000,117.0000 A 1.5000,1.5000 0 1,0 270.5000,117.0000 L 270.5000,120.0000 A 1.5000,1.5000 0 1,0 273.5000,120.0000 Z" fill="none" stroke="#ff0000" stroke-width="0.3"/>
  <path id="heddle_bar_hole22" d="M 283.5000,108.0000 A 1.5000,1.5000 0 1,0 280.5000,108.0000 L 280.5000,111.0000 A 1.5000,1.5000 0 1,0 283.5000,111.0000 Z" fill="none" stroke="#ff0000" stroke-width="0.3"/>
  <path id="heddle_bar_hole23" d="M 293.5000,117.0000 A 1.5000,1.5000 0 1,0 290.5000,117.0000 L 290.5000,120.0000 A 1.5000,1.5000 0 1,0 293.5000,120.0000 Z" fill="none" stroke="#ff0000" stroke-width="0.3"/>
  <path id="heddle_bar_hole24" d="M 303.5000,108.0000 A 1.5000,1.5000 0 1,0 300.5000,108.0000 L 300.5000,111.0000 A 1.5000,1.5000 0 1,0 303.5000,111.0000 Z" fill="none" stroke="#ff0000" stroke-width="0.3"/>
  <path id="heddle_bar_hole25" d="M 313.5000,117.0000 A 1.5000,1.5000 0 1,0 310.5000,117.0000 L 310.5000,120.0000 A 1.5000,1.5000 0 1,0 313.5000,120.0000 Z" fill="none" stroke="#ff0000" stroke-width="0.3"/>
  <path id="heddle_bar_hole26" d="M 323.5000,108.0000 A 1.5000,1.5000 0 1,0 320.5000,108.0000 L 320.5000,111.0000 A 1.5000,1.5000 0 1,0 323.5000,111.0000 Z" fill="none" stroke="#ff0000" stroke-width="0.3"/>
  <path id="heddle_bar_hole27" d="M 333.5000,117.0000 A 1.5000,1.5000 0 1,0 330.5000,117.0000 L 330.5000,120.0000 A 1.5000,1.5000 0 1,0 333.5000,120.0000 Z" fill="none" stroke="#ff0000" stroke-width="0.3"/>
  <path id="heddle_bar_hole28" d="M 343.5000,108.0000 A 1.5000,1.5000 0 1,0 340.5000,108.0000 L 340.5000,111.0000 A 1.5000,1.5000 0 1,0 343.5000,111.0000 Z" fill="none" stroke="#ff0000" stroke-width="0.3"/>
  <path id="heddle_bar_hole29" d="M 353.5000,117.0000 A 1.5000,1.5000 0 1,0 350.5000,117.0000 L 350.5000,120.0000 A 1.5000,1.5000 0 1,0 353.5000,120.0000 Z" fill="none" stroke="#ff0000" stroke-width="0.3"/>
  <path id="heddle_bar_hole30" d="M 363.5000,108.0000 A 1.5000,1.5000 0 1,0 360.5000,108.0000 L 360.5000,111.0000 A 1.5000,1.5000 0 1,0 363.5000,111.0000 Z" fill="none" stroke="#ff0000" stroke-width="0.3"/>
  <text x="212.00" y="115.50" font-size="4.0" font-family="monospace" text-anchor="middle" fill="#000000">HEDDLE BAR</text>
</g>

<g id="shuttle_1">
  <path id="shuttle_1_outer" d="M 72.0000,126.0000 L 208.0000,126.0000 L 229.5257,133.1752 A 0.5000,0.5000 0 0,1 229.6464,133.6869 L 223.6869,139.6464 A 0.5000,0.5000 0 0,0 223.6869,140.3536 L 229.6464,146.3131 A 0.5000,0.5000 0 0,1 229.5257,146.8248 L 208.0000,154.0000 L 72.0000,154.0000 L 50.4743,146.8248 A 0.5000,0.5000 0 0,1 50.3536,146.3131 L 56.3131,140.3536 A 0.5000,0.5000 0 0,0 56.3131,139.6464 L 50.3536,133.6869 A 0.5000,0.5000 0 0,1 50.4743,133.1752 L 72.0000,126.0000 Z" fill="none" stroke="#ff0000" stroke-width="0.3"/>
  <path id="shuttle_1_hole0" d="M 203.0000,140.0000 A 63.0000,6.0000 0 1,0 77.0000,140.0000 A 63.0000,6.0000 0 1,0 203.0000,140.0000 Z" fill="none" stroke="#ff0000" stroke-width="0.3"/>
  <text x="140.00" y="132.00" font-size="4.0" font-family="monospace" text-anchor="middle" fill="#000000">SHUTTLE 1</text>
</g>

<g id="shuttle_2">
  <path id="shuttle_2_outer" d="M 72.0000,156.0000 L 208.0000,156.0000 L 229.5257,163.1752 A 0.5000,0.5000 0 0,1 229.6464,163.6869 L 223.6869,169.6464 A 0.5000,0.5000 0 0,0 223.6869,170.3536 L 229.6464,176.3131 A 0.5000,0.5000 0 0,1 229.5257,176.8248 L 208.0000,184.0000 L 72.0000,184.0000 L 50.4743,176.8248 A 0.5000,0.5000 0 0,1 50.3536,176.3131 L 56.3131,170.3536 A 0.5000,0.5000 0 0,0 56.3131,169.6464 L 50.3536,163.6869 A 0.5000,0.5000 0 0,1 50.4743,163.1752 L 72.0000,156.0000 Z" fill="none" stroke="#ff0000" stroke-width="0.3"/>
  <path id="shuttle_2_hole0" d="M 203.0000,170.0000 A 63.0000,6.0000 0 1,0 77.0000,170.0000 A 63.0000,6.0000 0 1,0 203.0000,170.0000 Z" fill="none" stroke="#ff0000" stroke-width="0.3"/>
  <text x="140.00" y="162.00" font-size="4.0" font-family="monospace" text-anchor="middle" fill="#000000">SHUTTLE 2</text>
</g>

<g id="beater">
  <path id="beater_outer" d="M 50.5000,186.0000 L 359.5000,186.0000 A 0.5000,0.5000 0 0,1 360.0000,186.5000 L 360.0000,207.5000 A 0.5000,0.5000 0 0,1 359.5000,208.0000 L 352.5000,208.0000 A 0.5000,0.5000 0 0,0 352.0000,208.5000 L 352.0000,227.5000 A 0.5000,0.5000 0 0,1 351.5000,228.0000 L 348.5000,228.0000 A 0.5000,0.5000 0 0,1 348.0000,227.5000 L 348.0000,208.5000 A 0.5000,0.5000 0 0,0 347.5000,208.0000 L 342.5000,208.0000 A 0.5000,0.5000 0 0,0 342.0000,208.5000 L 342.0000,227.5000 A 0.5000,0.5000 0 0,1 341.5000,228.0000 L 338.5000,228.0000 A 0.5000,0.5000 0 0,1 338.0000,227.5000 L 338.0000,208.5000 A 0.5000,0.5000 0 0,0 337.5000,208.0000 L 332.5000,208.0000 A 0.5000,0.5000 0 0,0 332.0000,208.5000 L 332.0000,227.5000 A 0.5000,0.5000 0 0,1 331.5000,228.0000 L 328.5000,228.0000 A 0.5000,0.5000 0 0,1 328.0000,227.5000 L 328.0000,208.5000 A 0.5000,0.5000 0 0,0 327.5000,208.0000 L 322.5000,208.0000 A 0.5000,0.5000 0 0,0 322.0000,208.5000 L 322.0000,227.5000 A 0.5000,0.5000 0 0,1 321.5000,228.0000 L 318.5000,228.0000 A 0.5000,0.5000 0 0,1 318.0000,227.5000 L 318.0000,208.5000 A 0.5000,0.5000 0 0,0 317.5000,208.0000 L 312.5000,208.0000 A 0.5000,0.5000 0 0,0 312.0000,208.5000 L 312.0000,227.5000 A 0.5000,0.5000 0 0,1 311.5000,228.0000 L 308.5000,228.0000 A 0.5000,0.5000 0 0,1 308.0000,227.5000 L 308.0000,208.5000 A 0.5000,0.5000 0 0,0 307.5000,208.0000 L 302.5000,208.0000 A 0.5000,0.5000 0 0,0 302.0000,208.5000 L 302.0000,227.5000 A 0.5000,0.5000 0 0,1 301.5000,228.0000 L 298.5000,228.0000 A 0.5000,0.5000 0 0,1 298.0000,227.5000 L 298.0000,208.5000 A 0.5000,0.5000 0 0,0 297.5000,208.0000 L 292.5000,208.0000 A 0.5000,0.5000 0 0,0 292.0000,208.5000 L 292.0000,227.5000 A 0.5000,0.5000 0 0,1 291.5000,228.0000 L 288.5000,228.0000 A 0.5000,0.5000 0 0,1 288.0000,227.5000 L 288.0000,208.5000 A 0.5000,0.5000 0 0,0 287.5000,208.0000 L 282.5000,208.0000 A 0.5000,0.5000 0 0,0 282.0000,208.5000 L 282.0000,227.5000 A 0.5000,0.5000 0 0,1 281.5000,228.0000 L 278.5000,228.0000 A 0.5000,0.5000 0 0,1 278.0000,227.5000 L 278.0000,208.5000 A 0.5000,0.5000 0 0,0 277.5000,208.0000 L 272.5000,208.0000 A 0.5000,0.5000 0 0,0 272.0000,208.5000 L 272.0000,227.5000 A 0.5000,0.5000 0 0,1 271.5000,228.0000 L 268.5000,228.0000 A 0.5000,0.5000 0 0,1 268.0000,227.5000 L 268.0000,208.5000 A 0.5000,0.5000 0 0,0 267.5000,208.0000 L 262.5000,208.0000 A 0.5000,0.5000 0 0,0 262.0000,208.5000 L 262.0000,227.5000 A 0.5000,0.5000 0 0,1 261.5000,228.0000 L 258.5000,228.0000 A 0.5000,0.5000 0 0,1 258.0000,227.5000 L 258.0000,208.5000 A 0.5000,0.5000 0 0,0 257.5000,208.0000 L 252.5000,208.0000 A 0.5000,0.5000 0 0,0 252.0000,208.5000 L 252.0000,227.5000 A 0.5000,0.5000 0 0,1 251.5000,228.0000 L 248.5000,228.0000 A 0.5000,0.5000 0 0,1 248.0000,227.5000 L 248.0000,208.5000 A 0.5000,0.5000 0 0,0 247.5000,208.0000 L 242.5000,208.0000 A 0.5000,0.5000 0 0,0 242.0000,208.5000 L 242.0000,227.5000 A 0.5000,0.5000 0 0,1 241.5000,228.0000 L 238.5000,228.0000 A 0.5000,0.5000 0 0,1 238.0000,227.5000 L 238.0000,208.5000 A 0.5000,0.5000 0 0,0 237.5000,208.0000 L 232.5000,208.0000 A 0.5000,0.5000 0 0,0 232.0000,208.5000 L 232.0000,227.5000 A 0.5000,0.5000 0 0,1 231.5000,228.0000 L 228.5000,228.0000 A 0.5000,0.5000 0 0,1 228.0000,227.5000 L 228.0000,208.5000 A 0.5000,0.5000 0 0,0 227.5000,208.0000 L 222.5000,208.0000 A 0.5000,0.5000 0 0,0 222.0000,208.5000 L 222.0000,227.5000 A 0.5000,0.5000 0 0,1 221.5000,228.0000 L 218.5000,228.0000 A 0.5000,0.5000 0 0,1 218.0000,227.5000 L 218.0000,208.5000 A 0.5000,0.5000 0 0,0 217.5000,208.0000 L 212.5000,208.0000 A 0.5000,0.5000 0 0,0 212.0000,208.5000 L 212.0000,227.5000 A 0.5000,0.5000 0 0,1 211.5000,228.0000 L 208.5000,228.0000 A 0.5000,0.5000 0 0,1 208.0000,227.5000 L 208.0000,208.5000 A 0.5000,0.5000 0 0,0 207.5000,208.0000 L 202.5000,208.0000 A 0.5000,0.5000 0 0,0 202.0000,208.5000 L 202.0000,227.5000 A 0.5000,0.5000 0 0,1 201.5000,228.0000 L 198.5000,228.0000 A 0.5000,0.5000 0 0,1 198.0000,227.5000 L 198.0000,208.5000 A 0.5000,0.5000 0 0,0 197.5000,208.0000 L 192.5000,208.0000 A 0.5000,0.5000 0 0,0 192.0000,208.5000 L 192.0000,227.5000 A 0.5000,0.5000 0 0,1 191.5000,228.0000 L 188.5000,228.0000 A 0.5000,0.5000 0 0,1 188.0000,227.5000 L 188.0000,208.5000 A 0.5000,0.5000 0 0,0 187.5000,208.0000 L 182.5000,208.0000 A 0.5000,0.5000 0 0,0 182.0000,208.5000 L 182.0000,227.5000 A 0.5000,0.5000 0 0,1 181.5000,228.0000 L 178.5000,228.0000 A 0.5000,0.5000 0 0,1 178.0000,227.5000 L 178.0000,208.5000 A 0.5000,0.5000 0 0,0 177.5000,208.0000 L 172.5000,208.0000 A 0.5000,0.5000 0 0,0 172.0000,208.5000 L 172.0000,227.5000 A 0.5000,0.5000 0 0,1 171.5000,228.0000 L 168.5000,228.0000 A 0.5000,0.5000 0 0,1 168.0000,227.5000 L 168.0000,208.5000 A 0.5000,0.5000 0 0,0 167.5000,208.0000 L 162.5000,208.0000 A 0.5000,0.5000 0 0,0 162.0000,208.5000 L 162.0000,227.5000 A 0.5000,0.5000 0 0,1 161.5000,228.0000 L 158.5000,228.0000 A 0.5000,0.5000 0 0,1 158.0000,227.5000 L 158.0000,208.5000 A 0.5000,0.5000 0 0,0 157.5000,208.0000 L 152.5000,208.0000 A 0.5000,0.5000 0 0,0 152.0000,208.5000 L 152.0000,227.5000 A 0.5000,0.5000 0 0,1 151.5000,228.0000 L 148.5000,228.0000 A 0.5000,0.5000 0 0,1 148.0000,227.5000 L 148.0000,208.5000 A 0.5000,0.5000 0 0,0 147.5000,208.0000 L 142.5000,208.0000 A 0.5000,0.5000 0 0,0 142.0000,208.5000 L 142.0000,227.5000 A 0.5000,0.5000 0 0,1 141.5000,228.0000 L 138.5000,228.0000 A 0.5000,0.5000 0 0,1 138.0000,227.5000 L 138.0000,208.5000 A 0.5000,0.5000 0 0,0 137.5000,208.0000 L 132.5000,208.0000 A 0.5000,0.5000 0 0,0 132.0000,208.5000 L 132.0000,227.5000 A 0.5000,0.5000 0 0,1 131.5000,228.0000 L 128.5000,228.0000 A 0.5000,0.5000 0 0,1 128.0000,227.5000 L 128.0000,208.5000 A 0.5000,0.5000 0 0,0 127.5000,208.0000 L 122.5000,208.0000 A 0.5000,0.5000 0 0,0 122.0000,208.5000 L 122.0000,227.5000 A 0.5000,0.5000 0 0,1 121.5000,228.0000 L 118.5000,228.0000 A 0.5000,0.5000 0 0,1 118.0000,227.5000 L 118.0000,208.5000 A 0.5000,0.5000 0 0,0 117.5000,208.0000 L 112.5000,208.0000 A 0.5000,0.5000 0 0,0 112.0000,208.5000 L 112.0000,227.5000 A 0.5000,0.5000 0 0,1 111.5000,228.0000 L 108.5000,228.0000 A 0.5000,0.5000 0 0,1 108.0000,227.5000 L 108.0000,208.5000 A 0.5000,0.5000 0 0,0 107.5000,208.0000 L 102.5000,208.0000 A 0.5000,0.5000 0 0,0 102.0000,208.5000 L 102.0000,227.5000 A 0.5000,0.5000 0 0,1 101.5000,228.0000 L 98.5000,228.0000 A 0.5000,0.5000 0 0,1 98.0000,227.5000 L 98.0000,208.5000 A 0.5000,0.5000 0 0,0 97.5000,208.0000 L 92.5000,208.0000 A 0.5000,0.5000 0 0,0 92.0000,208.5000 L 92.0000,227.5000 A 0.5000,0.5000 0 0,1 91.5000,228.0000 L 88.5000,228.0000 A 0.5000,0.5000 0 0,1 88.0000,227.5000 L 88.0000,208.5000 A 0.5000,0.5000 0 0,0 87.5000,208.0000 L 82.5000,208.0000 A 0.5000,0.5000 0 0,0 82.0000,208.5000 L 82.0000,227.5000 A 0.5000,0.5000 0 0,1 81.5000,228.0000 L 78.5000,228.0000 A 0.5000,0.5000 0 0,1 78.0000,227.5000 L 78.0000,208.5000 A 0.5000,0.5000 0 0,0 77.5000,208.0000 L 72.5000,208.0000 A 0.5000,0.5000 0 0,0 72.0000,208.5000 L 72.0000,227.5000 A 0.5000,0.5000 0 0,1 71.5000,228.0000 L 68.5000,228.0000 A 0.5000,0.5000 0 0,1 68.0000,227.5000 L 68.0000,208.5000 A 0.5000,0.5000 0 0,0 67.5000,208.0000 L 62.5000,208.0000 A 0.5000,0.5000 0 0,0 62.0000,208.5000 L 62.0000,227.5000 A 0.5000,0.5000 0 0,1 61.5000,228.0000 L 58.5000,228.0000 A 0.5000,0.5000 0 0,1 58.0000,227.5000 L 58.0000,208.5000 A 0.5000,0.5000 0 0,0 57.5000,208.0000 L 50.5000,208.0000 A 0.5000,0.5000 0 0,1 50.0000,207.5000 L 50.0000,186.5000 A 0.5000,0.5000 0 0,1 50.5000,186.0000 Z" fill="none" stroke="#ff0000" stroke-width="0.3"/>
  <path id="beater_hole0" d="M 135.5000,197.0000 A 8.0000,3.5000 0 1,0 119.5000,197.0000 A 8.0000,3.5000 0 1,0 135.5000,197.0000 Z" fill="none" stroke="#ff0000" stroke-width="0.3"/>
  <path id="beater_hole1" d="M 213.0000,197.0000 A 8.0000,3.5000 0 1,0 197.0000,197.0000 A 8.0000,3.5000 0 1,0 213.0000,197.0000 Z" fill="none" stroke="#ff0000" stroke-width="0.3"/>
  <path id="beater_hole2" d="M 290.5000,197.0000 A 8.0000,3.5000 0 1,0 274.5000,197.0000 A 8.0000,3.5000 0 1,0 290.5000,197.0000 Z" fill="none" stroke="#ff0000" stroke-width="0.3"/>
  <text x="205.00" y="207.00" font-size="4.0" font-family="monospace" text-anchor="middle" fill="#000000">BEATER</text>
</g>

</svg>