<?xml version="1.0" encoding="UTF-8"?>
<svg xmlns="http://www.w3.org/2000/svg"
     viewBox="0 0 600.0 600.0"
     width="600.0mm" height="600.0mm">
  <rect x="0" y="0" width="600.0" height="600.0" fill="#faf8f4" stroke="#aaaaaa" stroke-width="0.3"/><g id="stand_L">
  <path d="M 2.0000,2.0000 L 2.0000,44.9500 L 10.0000,44.9500 L 10.0000,46.9500 L 17.0000,46.9500 L 17.0000,77.0500 L 2.0000,77.0500 L 2.0000,194.9500 L 10.0000,194.9500 L 10.0000,196.9500 L 17.0000,196.9500 L 17.0000,227.0500 L 2.0000,227.0500 L 2.0000,344.9500 L 10.0000,344.9500 L 10.0000,346.9500 L 17.0000,346.9500 L 17.0000,377.0500 L 2.0000,377.0500 L 2.0000,422.0000 L 66.9500,422.0000 L 66.9500,407.0000 L 97.0500,407.0000 L 97.0500,422.0000 L 146.9500,422.0000 L 146.9500,407.0000 L 177.0500,407.0000 L 177.0500,422.0000 L 242.0000,422.0000 L 69.4669,120.0671 L 56.4432,127.5091 L 41.5095,101.3750 L 54.5331,93.9329 Z" fill="none" stroke="#ff0000" stroke-width="0.1"/>
  <text x="3.00" y="6.00" font-size="4.0" font-family="monospace" text-anchor="middle" fill="#000000">STAND L</text>
</g>
<g id="stand_R">
  <path d="M 484.0000,2.0000 L 484.0000,44.9500 L 476.0000,44.9500 L 476.0000,46.9500 L 469.0000,46.9500 L 469.0000,77.0500 L 484.0000,77.0500 L 484.0000,194.9500 L 476.0000,194.9500 L 476.0000,196.9500 L 469.0000,196.9500 L 469.0000,227.0500 L 484.0000,227.0500 L 484.0000,344.9500 L 476.0000,344.9500 L 476.0000,346.9500 L 469.0000,346.9500 L 469.0000,377.0500 L 484.0000,377.0500 L 484.0000,422.0000 L 419.0500,422.0000 L 419.0500,407.0000 L 388.9500,407.0000 L 388.9500,422.0000 L 339.0500,422.0000 L 339.0500,407.0000 L 308.9500,407.0000 L 308.9500,422.0000 L 244.0000,422.0000 L 416.5331,120.0671 L 429.5568,127.5091 L 444.4905,101.3750 L 431.4669,93.9329 Z" fill="none" stroke="#ff0000" stroke-width="0.1"/>
  <text x="245.00" y="6.00" font-size="4.0" font-family="monospace" text-anchor="middle" fill="#000000">STAND R</text>
</g>
<g id="hyp_cross">
  <path d="M 486.0000,2.0000 L 516.0000,2.0000 L 516.0000,376.0000 L 486.0000,376.0000 Z" fill="none" stroke="#ff0000" stroke-width="0.1"/>
  <text x="487.00" y="6.00" font-size="4.0" font-family="monospace" text-anchor="middle" fill="#000000">HYP X</text>
</g>
<g id="stand_rear_cross_1">
  <path d="M 2.0000,424.0000 L 17.0000,424.0000 L 17.0000,439.0000 L 39.5000,439.0000 L 39.5000,424.0000 L 338.5000,424.0000 L 338.5000,439.0000 L 361.0000,439.0000 L 361.0000,424.0000 L 376.0000,424.0000 L 376.0000,454.0000 L 2.0000,454.0000 Z" fill="none" stroke="#ff0000" stroke-width="0.1"/>
  <text x="3.00" y="428.00" font-size="4.0" font-family="monospace" text-anchor="middle" fill="#000000">REAR X1</text>
</g>
<g id="stand_rear_cross_2">
  <path d="M 2.0000,456.0000 L 376.0000,456.0000 L 376.0000,486.0000 L 2.0000,486.0000 Z" fill="none" stroke="#ff0000" stroke-width="0.1"/>
  <text x="3.00" y="460.00" font-size="4.0" font-family="monospace" text-anchor="middle" fill="#000000">REAR X2</text>
</g>
<g id="stand_rear_cross_3">
  <path d="M 2.0000,488.0000 L 17.0000,488.0000 L 17.0000,503.0000 L 39.5000,503.0000 L 39.5000,488.0000 L 338.5000,488.0000 L 338.5000,503.0000 L 361.0000,503.0000 L 361.0000,488.0000 L 376.0000,488.0000 L 376.0000,518.0000 L 2.0000,518.0000 Z" fill="none" stroke="#ff0000" stroke-width="0.1"/>
  <text x="3.00" y="492.00" font-size="4.0" font-family="monospace" text-anchor="middle" fill="#000000">REAR X3</text>
</g>
<g id="stand_base_cross_1">
  <path d="M 2.0000,520.0000 L 376.0000,520.0000 L 376.0000,550.0000 L 2.0000,550.0000 Z" fill="none" stroke="#ff0000" stroke-width="0.1"/>
  <text x="3.00" y="524.00" font-size="4.0" font-family="monospace" text-anchor="middle" fill="#000000">BASE X1</text>
</g>
<g id="stand_base_cross_2">
  <path d="M 2.0000,552.0000 L 376.0000,552.0000 L 376.0000,582.0000 L 2.0000,582.0000 Z" fill="none" stroke="#ff0000" stroke-width="0.1"/>
  <text x="3.00" y="556.00" font-size="4.0" font-family="monospace" text-anchor="middle" fill="#000000">BASE X2</text>
</g></svg>