<?xml version="1.0" encoding="UTF-8"?>
<svg xmlns="http://www.w3.org/2000/svg"
     viewBox="0 0 600.0 600.0"
     width="600.0mm" height="600.0mm">
  <!-- BOX + STAND | 3mm BIRCH PLY 600x600mm | RED=CUT (preview 0.3mm stroke; use --laser for 0.01mm) -->
  <rect x="0" y="0" width="600.0" height="600.0" fill="#faf8f4" stroke="#aaaaaa" stroke-width="0.3"/>

<g id="box_base">
  <path id="box_base_outer" d="M 2.0000,2.0000 L 29.1250,2.0000 L 29.1250,5.0000 L 33.1250,5.0000 L 33.1250,2.0000 L 58.2500,2.0000 L 58.2500,5.0000 L 62.2500,5.0000 L 62.2500,2.0000 L 87.3750,2.0000 L 87.3750,5.0000 L 91.3750,5.0000 L 91.3750,2.0000 L 116.5000,2.0000 L 116.5000,5.0000 L 120.5000,5.0000 L 120.5000,2.0000 L 145.6250,2.0000 L 145.6250,5.0000 L 149.6250,5.0000 L 149.6250,2.0000 L 174.7500,2.0000 L 174.7500,5.0000 L 178.7500,5.0000 L 178.7500,2.0000 L 203.8750,2.0000 L 203.8750,5.0000 L 207.8750,5.0000 L 207.8750,2.0000 L 233.0000,2.0000 L 233.0000,5.0000 L 237.0000,5.0000 L 237.0000,2.0000 L 262.1250,2.0000 L 262.1250,5.0000 L 266.1250,5.0000 L 266.1250,2.0000 L 291.2500,2.0000 L 291.2500,5.0000 L 295.2500,5.0000 L 295.2500,2.0000 L 320.3750,2.0000 L 320.3750,5.0000 L 324.3750,5.0000 L 324.3750,2.0000 L 349.5000,2.0000 L 349.5000,5.0000 L 353.5000,5.0000 L 353.5000,2.0000 L 378.6250,2.0000 L 378.6250,5.0000 L 382.6250,5.0000 L 382.6250,2.0000 L 407.7500,2.0000 L 407.7500,5.0000 L 411.7500,5.0000 L 411.7500,2.0000 L 436.8750,2.0000 L 436.8750,5.0000 L 440.8750,5.0000 L 440.8750,2.0000 L 468.0000,2.0000 L 468.0000,46.0000 L 465.0000,46.0000 L 465.0000,50.0000 L 468.0000,50.0000 L 468.0000,89.0000 L 465.0000,89.0000 L 465.0000,93.0000 L 468.0000,93.0000 L 468.0000,132.0000 L 465.0000,132.0000 L 465.0000,136.0000 L 468.0000,136.0000 L 468.0000,175.0000 L 465.0000,175.0000 L 465.0000,179.0000 L 468.0000,179.0000 L 468.0000,218.0000 L 465.0000,218.0000 L 465.0000,222.0000 L 468.0000,222.0000 L 468.0000,266.0000 L 440.8750,266.0000 L 440.8750,263.0000 L 436.8750,263.0000 L 436.8750,266.0000 L 411.7500,266.0000 L 411.7500,263.0000 L 407.7500,263.0000 L 407.7500,266.0000 L 382.6250,266.0000 L 382.6250,263.0000 L 378.6250,263.0000 L 378.6250,266.0000 L 353.5000,266.0000 L 353.5000,263.0000 L 349.5000,263.0000 L 349.5000,266.0000 L 324.3750,266.0000 L 324.3750,263.0000 L 320.3750,263.0000 L 320.3750,266.0000 L 295.2500,266.0000 L 295.2500,263.0000 L 291.2500,263.0000 L 291.2500,266.0000 L 266.1250,266.0000 L 266.1250,263.0000 L 262.1250,263.0000 L 262.1250,266.0000 L 237.0000,266.0000 L 237.0000,263.0000 L 233.0000,263.0000 L 233.0000,266.0000 L 207.8750,266.0000 L 207.8750,263.0000 L 203.8750,263.0000 L 203.8750,266.0000 L 178.7500,266.0000 L 178.7500,263.0000 L 174.7500,263.0000 L 174.7500,266.0000 L 149.6250,266.0000 L 149.6250,263.0000 L 145.6250,263.0000 L 145.6250,266.0000 L 120.5000,266.0000 L 120.5000,263.0000 L 116.5000,263.0000 L 116.5000,266.0000 L 91.3750,266.0000 L 91.3750,263.0000 L 87.3750,263.0000 L 87.3750,266.0000 L 62.2500,266.0000 L 62.2500,263.0000 L 58.2500,263.0000 L 58.2500,266.0000 L 33.1250,266.0000 L 33.1250,263.0000 L 29.1250,263.0000 L 29.1250,266.0000 L 2.0000,266.0000 L 2.0000,222.0000 L 5.0000,222.0000 L 5.0000,218.0000 L 2.0000,218.0000 L 2.0000,179.0000 L 5.0000,179.0000 L 5.0000,175.0000 L 2.0000,175.0000 L 2.0000,136.0000 L 5.0000,136.0000 L 5.0000,132.0000 L 2.0000,132.0000 L 2.0000,93.0000 L 5.0000,93.0000 L 5.0000,89.0000 L 2.0000,89.0000 L 2.0000,50.0000 L 5.0000,50.0000 L 5.0000,46.0000 L 2.0000,46.0000 Z" fill="none" stroke="#ff0000" stroke-width="0.3"/>
  <text x="235.00" y="134.00" font-size="4.0" font-family="monospace" text-anchor="middle" fill="#000000">BOX BASE</text>
</g>

<g id="box_lid">
  <path id="box_lid_outer" d="M 2.0000,268.0000 L 462.0000,268.0000 L 462.0000,526.0000 L 2.0000,526.0000 Z" fill="none" stroke="#ff0000" stroke-width="0.3"/>
  <text x="232.00" y="397.00" font-size="4.0" font-family="monospace" text-anchor="middle" fill="#000000">BOX LID</text>
</g>

<g id="box_long_wall_L">
  <path id="box_long_wall_L_outer" d="M 470.0000,2.0000 L 474.0000,2.0000 L 474.0000,5.0000 L 478.0000,5.0000 L 478.0000,2.0000 L 482.0000,2.0000 L 482.0000,29.1250 L 485.0000,29.1250 L 485.0000,33.1250 L 482.0000,33.1250 L 482.0000,58.2500 L 485.0000,58.2500 L 485.0000,62.2500 L 482.0000,62.2500 L 482.0000,87.3750 L 485.0000,87.3750 L 485.0000,91.3750 L 482.0000,91.3750 L 482.0000,116.5000 L 485.0000,116.5000 L 485.0000,120.5000 L 482.0000,120.5000 L 482.0000,145.6250 L 485.0000,145.6250 L 485.0000,149.6250 L 482.0000,149.6250 L 482.0000,174.7500 L 485.0000,174.7500 L 485.0000,178.7500 L 482.0000,178.7500 L 482.0000,203.8750 L 485.0000,203.8750 L 485.0000,207.8750 L 482.0000,207.8750 L 482.0000,233.0000 L 485.0000,233.0000 L 485.0000,237.0000 L 482.0000,237.0000 L 482.0000,262.1250 L 485.0000,262.1250 L 485.0000,266.1250 L 482.0000,266.1250 L 482.0000,291.2500 L 485.0000,291.2500 L 485.0000,295.2500 L 482.0000,295.2500 L 482.0000,320.3750 L 485.0000,320.3750 L 485.0000,324.3750 L 482.0000,324.3750 L 482.0000,349.5000 L 485.0000,349.5000 L 485.0000,353.5000 L 482.0000,353.5000 L 482.0000,378.6250 L 485.0000,378.6250 L 485.0000,382.6250 L 482.0000,382.6250 L 482.0000,407.7500 L 485.0000,407.7500 L 485.0000,411.7500 L 482.0000,411.7500 L 482.0000,436.8750 L 485.0000,436.8750 L 485.0000,440.8750 L 482.0000,440.8750 L 482.0000,468.0000 L 478.0000,468.0000 L 478.0000,465.0000 L 474.0000,465.0000 L 474.0000,468.0000 L 470.0000,468.0000 Z" fill="none" stroke="#ff0000" stroke-width="0.3"/>
  <text x="477.50" y="235.00" font-size="4.0" font-family="monospace" text-anchor="middle" fill="#000000">LONG WALL L</text>
</g>

<g id="box_long_wall_R">
  <path id="box_long_wall_R_outer" d="M 487.0000,2.0000 L 491.0000,2.0000 L 491.0000,5.0000 L 495.0000,5.0000 L 495.0000,2.0000 L 499.0000,2.0000 L 499.0000,29.1250 L 502.0000,29.1250 L 502.0000,33.1250 L 499.0000,33.1250 L 499.0000,58.2500 L 502.0000,58.2500 L 502.0000,62.2500 L 499.0000,62.2500 L 499.0000,87.3750 L 502.0000,87.3750 L 502.0000,91.3750 L 499.0000,91.3750 L 499.0000,116.5000 L 502.0000,116.5000 L 502.0000,120.5000 L 499.0000,120.5000 L 499.0000,145.6250 L 502.0000,145.6250 L 502.0000,149.6250 L 499.0000,149.6250 L 499.0000,174.7500 L 502.0000,174.7500 L 502.0000,178.7500 L 499.0000,178.7500 L 499.0000,203.8750 L 502.0000,203.8750 L 502.0000,207.8750 L 499.0000,207.8750 L 499.0000,233.0000 L 502.0000,233.0000 L 502.0000,237.0000 L 499.0000,237.0000 L 499.0000,262.1250 L 502.0000,262.1250 L 502.0000,266.1250 L 499.0000,266.1250 L 499.0000,291.2500 L 502.0000,291.2500 L 502.0000,295.2500 L 499.0000,295.2500 L 499.0000,320.3750 L 502.0000,320.3750 L 502.0000,324.3750 L 499.0000,324.3750 L 499.0000,349.5000 L 502.0000,349.5000 L 502.0000,353.5000 L 499.0000,353.5000 L 499.0000,378.6250 L 502.0000,378.6250 L 502.0000,382.6250 L 499.0000,382.6250 L 499.0000,407.7500 L 502.0000,407.7500 L 502.0000,411.7500 L 499.0000,411.7500 L 499.0000,436.8750 L 502.0000,436.8750 L 502.0000,440.8750 L 499.0000,440.8750 L 499.0000,468.0000 L 495.0000,468.0000 L 495.0000,465.0000 L 491.0000,465.0000 L 491.0000,468.0000 L 487.0000,468.0000 Z" fill="none" stroke="#ff0000" stroke-width="0.3"/>
  <text x="494.50" y="235.00" font-size="4.0" font-family="monospace" text-anchor="middle" fill="#000000">LONG WALL R</text>
</g>

<g id="box_short_wall_front">
  <path id="box_short_wall_front_outer" d="M 5.0000,528.0000 L 5.0000,528.8000 L 2.0000,528.8000 L 2.0000,532.8000 L 5.0000,532.8000 L 5.0000,536.8000 L 46.0000,536.8000 L 46.0000,539.8000 L 50.0000,539.8000 L 50.0000,536.8000 L 89.0000,536.8000 L 89.0000,539.8000 L 93.0000,539.8000 L 93.0000,536.8000 L 132.0000,536.8000 L 132.0000,539.8000 L 136.0000,539.8000 L 136.0000,536.8000 L 175.0000,536.8000 L 175.0000,539.8000 L 179.0000,539.8000 L 179.0000,536.8000 L 218.0000,536.8000 L 218.0000,539.8000 L 222.0000,539.8000 L 222.0000,536.8000 L 263.0000,536.8000 L 263.0000,532.8000 L 266.0000,532.8000 L 266.0000,528.8000 L 263.0000,528.8000 L 263.0000,528.0000 Z" fill="none" stroke="#ff0000" stroke-width="0.3"/>
  <text x="134.00" y="533.90" font-size="4.0" font-family="monospace" text-anchor="middle" fill="#000000">SHORT WALL FR</text>
</g>

<g id="box_short_wall_back">
  <path id="box_short_wall_back_outer" d="M 271.0000,528.0000 L 271.0000,528.8000 L 268.0000,528.8000 L 268.0000,532.8000 L 271.0000,532.8000 L 271.0000,536.8000 L 312.0000,536.8000 L 312.0000,539.8000 L 316.0000,539.8000 L 316.0000,536.8000 L 355.0000,536.8000 L 355.0000,539.8000 L 359.0000,539.8000 L 359.0000,536.8000 L 398.0000,536.8000 L 398.0000,539.8000 L 402.0000,539.8000 L 402.0000,536.8000 L 441.0000,536.8000 L 441.0000,539.8000 L 445.0000,539.8000 L 445.0000,536.8000 L 484.0000,536.8000 L 484.0000,539.8000 L 488.0000,539.8000 L 488.0000,536.8000 L 529.0000,536.8000 L 529.0000,532.8000 L 532.0000,532.8000 L 532.0000,528.8000 L 529.0000,528.8000 L 529.0000,528.0000 Z" fill="none" stroke="#ff0000" stroke-width="0.3"/>
  <text x="400.00" y="533.90" font-size="4.0" font-family="monospace" text-anchor="middle" fill="#000000">SHORT WALL BK</text>
</g>

</svg>